<svg xmlns="http://www.w3.org/2000/svg" viewBox="0 0 81.316 81.316"><path d="M33.661.614A40.651 40.651 0 1 1 .613 47.656 40.652 40.652 0 0 1 33.661.614z" fill="#e2e2e2"/><path d="M25.678 53.427V50.9c0-2.077 4.216-8.254 14.987-8.254s14.987 6.121 14.987 8.254v2.527s-.578 3.241-14.8 3.241-15.174-3.241-15.174-3.241zm33.551-.922v-1.31c0-1.266-1.271-4.032-4.771-6.458a13.46 13.46 0 0 1 6.885-1.661 12.687 12.687 0 0 1 7.791 2.247 5.227 5.227 0 0 1 2.334 3.329v1.707c0 .005-.114.554-1.4 1.094-1.185.5-3.639 1.094-8.6 1.094a50.015 50.015 0 0 1-2.239-.041zm-47.6-1.05c-1.35-.542-1.522-1.089-1.524-1.094v-1.707c0-.627.621-2.028 2.334-3.315a12.655 12.655 0 0 1 7.791-2.262 13.61 13.61 0 0 1 6.782 1.589c-3.577 2.439-4.91 5.3-4.91 6.529v1.328c-.568.018-1.155.026-1.745.026-4.963.001-7.49-.594-8.729-1.094zm43.949-17.122a5.705 5.705 0 1 1 5.7 5.95 5.836 5.836 0 0 1-5.701-5.949zm-41.31 0a5.705 5.705 0 1 1 5.7 5.95 5.836 5.836 0 0 1-5.701-5.949zm18.04-4.96a8.367 8.367 0 1 1 8.36 8.02 8.2 8.2 0 0 1-8.361-8.019z" fill="#909090"/></svg>