<?xml version="1.0" standalone="no"?>
<!DOCTYPE svg PUBLIC "-//W3C//DTD SVG 1.1//EN" "http://www.w3.org/Graphics/SVG/1.1/DTD/svg11.dtd" >
<svg xmlns="http://www.w3.org/2000/svg" xmlns:xlink="http://www.w3.org/1999/xlink" version="1.1">
<metadata>
Created by FontForge 20161013 at Fri Nov 25 22:18:14 2011
 By ,,,
Copyright (c) 2011 by AndrijType. All rights reserved.
</metadata>
<defs>
<font id="BanderaPro-Bold" horiz-adv-x="625" >
  <font-face 
    font-family="Bandera Pro"
    font-weight="700"
    font-stretch="normal"
    units-per-em="1000"
    panose-1="2 6 8 4 4 2 0 2 0 4"
    ascent="750"
    descent="-250"
    x-height="500"
    cap-height="650"
    bbox="-86 -349 1804 952"
    underline-thickness="30"
    underline-position="-180"
    unicode-range="U+0020-FB06"
  />
<missing-glyph horiz-adv-x="703" 
d="M157 30l-94 95l91 92l95 -96zM154 425l-91 91l94 96l92 -92zM549 424l-95 96l91 91l96 -95zM545 30l-91 91l95 96l92 -92zM410 89h-113v177h-179v107h179v177h113v-177h176v-107h-176v-177z" />
    <glyph glyph-name="arrowleft" unicode="&#x3c;&#x2d;&#x2d;" horiz-adv-x="796" 
d="M446 457l-159 -134l452 5v-106l-452 5l159 -134l-62 -77l-311 259l311 259z" />
    <glyph glyph-name="arrowright" unicode="&#x2d;&#x2d;&#x3e;" horiz-adv-x="787" 
d="M723 275l-311 -259l-62 77l159 134l-451 -5v106l451 -5l-159 134l62 77z" />
    <glyph glyph-name="ff" unicode="ff" horiz-adv-x="740" 
d="M239 556v-56h199v81q0 31 4 54q-87 27 -113 27q-52 0 -71 -24.5t-19 -81.5zM798 591h-102l-6 50q-21 21 -47 21q-33 0 -45.5 -20.5t-12.5 -75.5v-66h150v-111h-150v-287l55 -5l-6 -97h-245l-7 103l56 6v280h-199v-287l55 -6v-96h-251l-7 104l56 6v279h-57v104l57 6v72
q0 197 205 197q49 0 187 -45q43 45 126 45q45 0 94 -32l14 22h81z" />
    <glyph glyph-name="fi" unicode="fi" horiz-adv-x="692" 
d="M663 0h-245l-7 104l56 6v280l-52 6l6 104h193v-398l55 -4zM294 0h-251l-7 104l56 6v279h-57v104l57 6v72q0 197 205 197q38 0 151 -34l7 23h114v-181h-114l-9 58q-93 28 -117 28q-52 0 -71 -24.5t-19 -81.5v-56h150v-111h-150v-287l55 -6v-96z" />
    <glyph glyph-name="fl" unicode="fl" horiz-adv-x="700" 
d="M294 0h-251l-7 104l56 6v279h-57v104l57 6v72q0 197 205 197q46 0 177 -42v24h148v-648l55 -4l-7 -98h-244l-7 103l55 6v516q-119 37 -145 37q-52 0 -71 -24.5t-19 -81.5v-56h150v-111h-150v-287l55 -6v-96z" />
    <glyph glyph-name="ffi" unicode="ffi" horiz-adv-x="1039" 
d="M1010 0h-245l-7 104l56 6v280l-52 6l6 104h193v-398l55 -4zM239 556v-56h199v71q0 35 6 63q-93 28 -115 28q-52 0 -71 -24.5t-19 -81.5zM294 0h-251l-7 104l56 6v279h-57v104l57 6v72q0 197 205 197q42 0 194 -47q52 47 152 47q39 0 152 -34l7 23h114v-181h-114l-9 58
q-93 28 -118 28q-51 0 -70.5 -24.5t-19.5 -81.5v-56h150v-111h-150v-287l56 -6v-96h-251l-7 104l55 6v279h-199v-287l55 -6v-96z" />
    <glyph glyph-name="ffl" unicode="ffl" horiz-adv-x="1031" 
d="M239 556v-56h199v71q0 35 6 63q-93 28 -115 28q-52 0 -71 -24.5t-19 -81.5zM294 0h-251l-7 104l56 6v279h-57v104l57 6v72q0 197 205 197q42 0 194 -47q52 47 152 47q43 0 163 -37v19h147v-648l55 -4l-6 -98h-245l-7 103l56 6v521q-103 32 -131 32q-51 0 -70.5 -24.5
t-19.5 -81.5v-56h150v-111h-150v-287l56 -6v-96h-251l-7 104l55 6v279h-199v-287l55 -6v-96z" />
    <glyph glyph-name="ft" unicode="ft" horiz-adv-x="734" 
d="M711 389h-132v-212q0 -81 57 -81l68 6v-93q-34 -20 -114 -20q-81 0 -119.5 35t-38.5 118v247h-193v-287l55 -5l-6 -97h-245l-7 103l56 6v280h-57v104l57 6v82q0 87 38.5 137t113.5 50q39 0 86 -33l11 23h81v-154h-103l-3 45q-13 13 -32 13q-25 0 -35 -18.5t-10 -77.5v-66
h194l21 150h125v-150h132v-111z" />
    <glyph glyph-name="tt" unicode="tt" horiz-adv-x="706" 
d="M683 389h-132v-212q0 -81 57 -81l68 6v-93q-34 -20 -114 -20q-81 0 -119.5 35t-38.5 118v247h-180v-212q0 -81 57 -81l68 6v-93q-34 -20 -114 -20q-81 0 -119.5 35t-38.5 118v247h-56v104l57 5l21 152h125v-150h181l21 150h125v-150h132v-111z" />
    <glyph glyph-name="afii10056_afii10056" unicode="&#x407;&#x407;" horiz-adv-x="758" 
d="M718 0h-293l-6 104l75 6v437l-76 6l7 97h293v-104l-70 -6v-438l76 -4zM334 0h-293l-6 104l75 6v437l-76 6l7 97h293v-104l-70 -6v-438l76 -4zM548 787q0 -33 -22 -51.5t-52 -18.5q-32 0 -52.5 19.5t-20.5 50.5q0 29 19.5 49t53.5 20q29 0 51.5 -18t22.5 -51zM741 787
q0 -30 -20 -50t-53 -20t-53.5 20.5t-20.5 49.5t20.5 49t53.5 20q31 0 52 -18.5t21 -50.5zM153 787q0 -30 -20 -50t-53 -20t-53.5 20.5t-20.5 49.5t20.5 49t53.5 20q31 0 52 -18.5t21 -50.5zM346 787q0 -30 -20 -50t-53 -20t-53.5 20.5t-20.5 49.5t20.5 49t53.5 20
q31 0 52 -18.5t21 -50.5z" />
    <glyph glyph-name="quoteright_afii10104" unicode="&#x27;&#x457;" horiz-adv-x="429" 
d="M400 0h-245l-7 104l56 6v280l-52 6l6 104h193v-398l55 -4zM456 652q0 -26 -17.5 -48t-56.5 -22t-56.5 22.5t-17.5 47.5q0 29 20.5 49t53.5 20t53.5 -19t20.5 -50zM191 723l1 -3q2 -2 4 -6t4.5 -10t4 -15t1.5 -19q0 -59 -45 -130t-104 -110l-50 46q90 69 102 141
q-31 7 -45 26t-14 42q0 31 21.5 50.5t54.5 19.5q9 0 17.5 -1.5t15 -4.5t11.5 -6t9 -6.5t6.5 -6l4.5 -4.5z" />
    <glyph glyph-name="afii10104_afii10104" unicode="&#x457;&#x457;" horiz-adv-x="633" 
d="M604 0h-245l-7 104l56 6v280l-52 6l6 104h193v-398l55 -4zM282 0h-245l-7 104l56 6v280l-52 6l6 104h193v-398l55 -4zM477 652q0 -25 -17.5 -47.5t-56.5 -22.5t-56.5 22.5t-17.5 47.5q0 29 20.5 49t53.5 20q29 0 52 -17q22 -22 22 -52zM653 652q0 -26 -17.5 -48
t-56.5 -22t-56.5 22.5t-17.5 47.5q0 29 20.5 49t53.5 20t53.5 -19t20.5 -50zM118 652q0 -30 -19 -50t-54 -20q-39 0 -56.5 22.5t-17.5 47.5q0 29 20.5 49t53.5 20q31 0 52 -18.5t21 -50.5zM299 652q0 -25 -17.5 -47.5t-56.5 -22.5t-56.5 22.5t-17.5 47.5q0 29 20.5 49
t53.5 20q29 0 52 -17q22 -22 22 -52z" />
    <glyph glyph-name="afii10103_afii10104" unicode="&#x456;&#x457;" horiz-adv-x="633" 
d="M604 0h-245l-7 104l56 6v280l-52 6l6 104h193v-398l55 -4zM245 651q0 -35 -22.5 -56.5t-61.5 -21.5t-62.5 22.5t-23.5 56.5t22.5 56t62.5 22q41 0 63 -22.5t22 -56.5zM282 0h-245l-7 104l56 6v280l-52 6l6 104h193v-398l55 -4zM452 652q0 -26 -18 -48t-56 -22
q-39 0 -56.5 22.5t-17.5 47.5q0 29 20.5 49t53.5 20q31 0 52.5 -18.5t21.5 -50.5zM661 652q0 -25 -17.5 -47.5t-56.5 -22.5t-56.5 22.5t-17.5 47.5q0 29 20.5 49t53.5 20q29 0 52 -17q22 -22 22 -52z" />
    <glyph glyph-name=".notdef" horiz-adv-x="703" 
d="M157 30l-94 95l91 92l95 -96zM154 425l-91 91l94 96l92 -92zM549 424l-95 96l91 91l96 -95zM545 30l-91 91l95 96l92 -92zM410 89h-113v177h-179v107h179v177h113v-177h176v-107h-176v-177z" />
    <glyph glyph-name=".null" horiz-adv-x="0" 
 />
    <glyph glyph-name="nonmarkingreturn" horiz-adv-x="333" 
 />
    <glyph glyph-name="space" unicode=" " horiz-adv-x="295" 
 />
    <glyph glyph-name="exclam" unicode="!" horiz-adv-x="372" 
d="M279 64q0 -34 -24.5 -57t-63.5 -23q-38 0 -63 22t-25 58q0 35 24 58t64 23t64 -23.5t24 -57.5zM247 231h-114l-21 438v81h156v-81z" />
    <glyph glyph-name="quotedbl" unicode="&#x22;" horiz-adv-x="443" 
d="M353 495h-101l-3 252l136 -1zM136 495h-101l-3 252l136 -1z" />
    <glyph glyph-name="numbersign" unicode="#" horiz-adv-x="590" 
d="M261 372l-23 -95h87l23 95h-87zM186 63l-82 23l24 100h-79v91h101l23 95h-124v91h146l33 135l83 -23l-28 -112h86l30 123l84 -23l-24 -100h81v-91h-103l-23 -95h126v-91h-148l-33 -136l-83 23l27 113h-87z" />
    <glyph glyph-name="dollar" unicode="$" horiz-adv-x="467" 
d="M289 -50h-104l-8 99q-36 2 -69.5 8.5t-49.5 11.5l-15 5l-13 150l90 6l10 -71q40 -10 75 -10q89 0 89 57q0 19 -19 32.5t-48 21.5t-62.5 21t-62.5 28.5t-48 46t-19 72.5q0 60 38.5 100.5t100.5 52.5l4 119h104l10 -127q22 -8 47 -24l16 27h72l-1 -161h-96l-8 45
q-36 27 -78 27q-28 0 -46 -11t-18 -31q0 -21 27.5 -36.5t66 -28.5t77.5 -29.5t66.5 -49t27.5 -77.5q0 -140 -153 -168z" />
    <glyph glyph-name="percent" unicode="%" horiz-adv-x="993" 
d="M753 82q82 0 82 104q0 101 -82 101q-79 0 -79 -101q0 -104 79 -104zM753 -19q-98 0 -149 55.5t-51 148.5q0 91 53 146.5t147 55.5q92 0 147 -56t55 -146q0 -92 -53 -148t-149 -56zM239 363q82 0 82 104q0 101 -82 101q-79 0 -79 -101q0 -104 79 -104zM239 262
q-98 0 -149 55.5t-51 148.5q0 91 53 146.5t147 55.5q92 0 147 -56t55 -146q0 -92 -53 -148t-149 -56zM385 -12l-108 20l316 627l108 -20z" />
    <glyph glyph-name="ampersand" unicode="&#x26;" horiz-adv-x="734" 
d="M430 150v130h-143q-97 -4 -97 -83q0 -45 31 -76t90 -31q30 0 53 7t36 17.5t19.5 19t10.5 16.5zM456 482h-103l-5 64q-20 13 -41 13q-37 0 -58.5 -20.5t-21.5 -61.5q0 -43 21.5 -68.5t51.5 -27.5h138l50 119h82v-119h131v-101h-131v-113q0 -77 59 -77q16 0 33 2t26 4l9 1
v-97q-22 -19 -107 -19q-91 0 -130 54q-65 -54 -167 -54q-129 0 -191.5 59t-62.5 150q0 108 128 152q-84 58 -84 149q0 80 55 128t135 48q40 0 92 -31l10 21h81v-175z" />
    <glyph glyph-name="quotesingle" unicode="'" horiz-adv-x="226" 
d="M136 495h-101l-3 252l136 -1z" />
    <glyph glyph-name="parenleft" unicode="(" horiz-adv-x="403" 
d="M363 -149l-103 -44q-7 5 -18 16t-40 52t-51 90t-40 131.5t-18 175.5t17 175.5t41.5 134t49 89.5t41.5 55l17 16l104 -45q-5 -6 -13.5 -17.5t-30 -52t-37.5 -86t-29.5 -118.5t-13.5 -151t13 -150t31 -119t36 -83t31 -52z" />
    <glyph glyph-name="parenright" unicode=")" horiz-adv-x="403" 
d="M39 697l104 45q7 -5 18 -16t40 -52t51 -90t40 -131.5t18 -175.5t-17 -175.5t-41.5 -134t-49.5 -89.5t-42 -54l-17 -17l-104 44q5 6 13.5 17.5t30 52.5t37.5 86.5t29.5 118.5t13.5 151q0 77 -13 149t-31 119t-36 83t-31 52z" />
    <glyph glyph-name="asterisk" unicode="*" horiz-adv-x="467" 
d="M162 284l-110 80l122 115l-166 23l43 129l144 -82l-30 166h137l-34 -164l148 80l42 -129l-165 -21l122 -117l-111 -80l-70 151z" />
    <glyph glyph-name="plus" unicode="+" horiz-adv-x="517" 
d="M316 53h-113v168h-171v108h171v167h113v-167h169v-108h-169v-168z" />
    <glyph glyph-name="comma" unicode="," horiz-adv-x="296" 
d="M64 85q0 30 22 49.5t54 19.5q30 0 53 -18l8 -9q28 -32 28 -88q0 -58 -30.5 -117.5t-79.5 -92.5l-70 46q63 66 63 132q0 2 -0.5 6.5t-0.5 6.5q-47 15 -47 65z" />
    <glyph glyph-name="hyphen" unicode="-" horiz-adv-x="375" 
d="M343 221h-311v108h311v-108z" />
    <glyph glyph-name="period" unicode="." horiz-adv-x="331" 
d="M252 64q0 -34 -24.5 -57t-63.5 -23q-38 0 -63 22t-25 58q0 35 24 58t64 23t64 -23.5t24 -57.5z" />
    <glyph glyph-name="slash" unicode="/" horiz-adv-x="519" 
d="M122 -250h-135l429 1000h133z" />
    <glyph glyph-name="zero" unicode="0" horiz-adv-x="664" 
d="M332 88q67 0 95.5 59.5t28.5 186.5q0 125 -27.5 176t-96.5 51t-96.5 -51t-27.5 -176q0 -128 28 -187t96 -59zM332 -19q-146 0 -215 94.5t-69 258.5q0 333 284 333q283 0 283 -333q0 -163 -69 -258t-214 -95z" />
    <glyph glyph-name="one" unicode="1" horiz-adv-x="452" 
d="M217 650h122v-548l56 -4l-7 -98h-280l-7 104l92 6v415l-117 -48l-36 100z" />
    <glyph glyph-name="two" unicode="2" horiz-adv-x="554" 
d="M148 465h-104l7 192h81l14 -36q74 46 140 46q103 0 161 -52.5t58 -139.5q0 -168 -272 -350h181l11 51l98 -7l-8 -169h-479v120q7 3 38 23.5t77 57.5t88.5 78.5t73 91.5t30.5 91q0 51 -24 70.5t-74 19.5q-53 0 -92 -32z" />
    <glyph glyph-name="three" unicode="3" horiz-adv-x="563" 
d="M494 566l-167 -182q84 -4 139 -52.5t55 -130.5q0 -102 -83.5 -161t-210.5 -59q-50 0 -92.5 8t-60.5 16l-17 8l-7 155l97 7l11 -74q32 -8 70 -8q70 0 106 29.5t36 78.5q0 82 -95 82q-15 0 -31 -6.5t-24 -13.5l-9 -7l-64 68l173 203h-158l-8 -55h-98l8 185l117 -7h313v-84z
" />
    <glyph glyph-name="four" unicode="4" horiz-adv-x="617" 
d="M553 0h-260l-7 97l70 6v73h-317l-8 86q45 76 93.5 189t74.5 215l138 -16q-48 -175 -155 -368h174v96l24 174h124v-270h75v-98l-75 -8v-80l56 -5z" />
    <glyph glyph-name="five" unicode="5" horiz-adv-x="558" 
d="M240 312q-67 0 -85 -27l-72 10l39 355h270l7 32l98 -7l-7 -155l-123 7h-141l-14 -117q20 3 42 3q123 0 193.5 -50t70.5 -147q0 -112 -83 -173.5t-205 -61.5q-59 0 -102 8t-56 16l-14 8l-7 154l97 7l11 -73q30 -8 74 -8q61 0 97.5 33.5t36.5 89.5q0 46 -34 71t-93 25z" />
    <glyph glyph-name="six" unicode="6" horiz-adv-x="606" 
d="M310 334q-42 0 -68.5 -16.5t-36.5 -38.5q-5 -20 -5 -47q0 -150 112 -150q53 0 78.5 40t25.5 102q0 110 -106 110zM48 276q0 49 6.5 98t24.5 103t45.5 95t74 68t104.5 27q49 0 107 -36l16 26h81v-175h-103l-7 50q-34 28 -80 28q-115 0 -128 -169q67 36 139 36
q111 0 175.5 -49.5t64.5 -155.5q0 -108 -68.5 -174.5t-187.5 -66.5q-124 0 -194 75.5t-70 219.5z" />
    <glyph glyph-name="seven" unicode="7" horiz-adv-x="513" 
d="M500 532q-135 -224 -225 -532h-168q71 239 230 521h-215l-8 -57h-97l6 193l117 -7h360v-118z" />
    <glyph glyph-name="eight" unicode="8" horiz-adv-x="612" 
d="M208 479q0 -89 103 -106q94 21 94 108q0 94 -99 94q-98 0 -98 -96zM412 178q0 50 -33 74t-77 30q-39 -5 -70.5 -28.5t-31.5 -74.5q0 -52 27.5 -78.5t78.5 -26.5t78.5 26.5t27.5 77.5zM558 485q0 -100 -117 -152q133 -44 133 -162q0 -190 -268 -190q-267 0 -267 191
q0 101 126 157q-112 48 -112 158q0 85 69.5 132.5t183.5 47.5t183 -48t69 -134z" />
    <glyph glyph-name="nine" unicode="9" horiz-adv-x="606" 
d="M296 310q72 0 103 45q7 33 7 76q0 72 -24 104t-82 32q-54 0 -82 -36t-28 -94q0 -56 26.5 -91.5t79.5 -35.5zM558 393q0 -101 -20.5 -177.5t-50.5 -120t-72.5 -70.5t-79.5 -35.5t-78 -8.5q-48 0 -91.5 5t-63.5 10l-19 6l-7 165l97 7l12 -79q31 -6 72 -6q63 0 106.5 43.5
t52.5 127.5q-53 -43 -138 -43q-108 0 -173.5 56t-65.5 164q0 106 70.5 168t190.5 62q258 0 258 -274z" />
    <glyph glyph-name="colon" unicode=":" horiz-adv-x="332" 
d="M252 64q0 -34 -24.5 -57t-63.5 -23q-38 0 -63 22t-25 58q0 35 24 58t64 23t64 -23.5t24 -57.5zM252 415q0 -34 -24.5 -57t-63.5 -23q-38 0 -63 22t-25 58q0 35 24 58t64 23t64 -23.5t24 -57.5z" />
    <glyph glyph-name="semicolon" unicode=";" horiz-adv-x="331" 
d="M252 415q0 -34 -24.5 -57t-63.5 -23q-38 0 -63 22t-25 58q0 35 24 58t64 23t64 -23.5t24 -57.5zM84 85q0 30 22 49.5t54 19.5q30 0 53 -18l8 -9q28 -32 28 -88q0 -58 -30.5 -117.5t-79.5 -92.5l-70 46q63 66 63 132q0 2 -0.5 6.5t-0.5 6.5q-47 15 -47 65z" />
    <glyph glyph-name="less" unicode="&#x3c;" horiz-adv-x="430" 
d="M331 90l-278 226l278 225l63 -66l-200 -160l201 -159z" />
    <glyph glyph-name="equal" unicode="=" horiz-adv-x="596" 
d="M564 329h-532v108h532v-108zM564 113h-532v108h532v-108z" />
    <glyph glyph-name="greater" unicode="&#x3e;" horiz-adv-x="430" 
d="M378 316l-279 -226l-63 66l199 159l-199 160l63 66z" />
    <glyph glyph-name="question" unicode="?" horiz-adv-x="506" 
d="M285 64q0 -34 -24.5 -57t-63.5 -23q-38 0 -63 22t-25 58q0 35 24 58t64 23t64 -23.5t24 -57.5zM144 572h-104l7 186h81l12 -30q69 40 129 40q100 0 155.5 -57t55.5 -128q0 -55 -25 -95t-61 -63.5t-72 -44.5t-61 -50.5t-25 -68.5q0 -15 3 -31l-81 -7q-26 52 -26 91
q0 34 19 61.5t46.5 46.5l55 38t46.5 45.5t19 58.5q0 92 -89 92q-47 0 -79 -28z" />
    <glyph glyph-name="at" unicode="@" horiz-adv-x="991" 
d="M508 65q57 0 78 54v172q-23 37 -76 37q-101 0 -101 -125q0 -64 25 -101t74 -37zM770 -64l40 -91q-3 -4 -10 -10t-33 -22.5t-57 -29t-83 -22.5t-111 -10q-236 0 -351 117t-115 328q0 209 125 326.5t362 117.5q199 0 304 -94t105 -260q0 -157 -59.5 -230.5t-164.5 -73.5
q-92 0 -120 42q-43 -43 -119 -43q-88 0 -141 58t-53 164q0 95 58 150.5t151 55.5q62 0 110 -35l18 17h63v-278q0 -48 41 -48q46 0 72.5 47t26.5 167q0 263 -292 263q-355 0 -355 -346q0 -166 87.5 -252.5t246.5 -86.5q45 0 87.5 8t71 19.5t51.5 23.5t34 20z" />
    <glyph glyph-name="A" unicode="A" horiz-adv-x="726" 
d="M355 531h-2l-88 -258h175zM256 0h-253l-6 104l70 5l198 541h200l197 -549l68 -3l-6 -98h-272v83l55 6l-35 89h-240l-32 -83l63 -5z" />
    <glyph glyph-name="B" unicode="B" horiz-adv-x="656" 
d="M247 380h117q30 0 53 22.5t23 67.5q0 42 -26 58t-79 16h-88v-164zM372 283h-125v-176h94q127 0 127 97q0 43 -24 61t-72 18zM349 0h-308l-6 104l75 6v437l-76 6l7 97h302q125 0 183 -46.5t58 -119.5q0 -77 -76 -133q109 -43 109 -147q0 -91 -66.5 -147.5t-201.5 -56.5z
" />
    <glyph glyph-name="C" unicode="C" horiz-adv-x="665" 
d="M610 401h-118l-11 117q-44 31 -99 31q-82 0 -133 -56t-51 -160q0 -106 52.5 -169t147.5 -63q34 0 67.5 10t57 23.5t42.5 27.5t28 24l9 10l57 -94q-3 -5 -10 -13t-31.5 -29t-53.5 -37t-77.5 -29t-103.5 -13q-172 0 -258 96t-86 256q0 150 91 242t230 92q74 0 140 -44
l22 34h88v-256z" />
    <glyph glyph-name="D" unicode="D" horiz-adv-x="766" 
d="M371 531h-107v-412h109q101 0 148 53t47 162q0 107 -46.5 152t-150.5 45zM41 0l-6 104l75 6v437l-76 6l7 97h330q357 0 357 -316q0 -160 -90.5 -247t-265.5 -87h-331z" />
    <glyph glyph-name="E" unicode="E" horiz-adv-x="622" 
d="M566 473h-118l-5 63h-179v-154l262 1v-110h-262v-159h198l11 72l111 -7l-7 -179h-536l-6 104l75 6v437l-76 6l7 97h395l130 7v-184z" />
    <glyph glyph-name="F" unicode="F" horiz-adv-x="579" 
d="M354 0h-313l-6 104l75 6v437l-76 6l7 97h404l131 7v-184h-118l-5 63h-189v-167l261 1v-111h-261v-157l96 -4z" />
    <glyph glyph-name="G" unicode="G" horiz-adv-x="718" 
d="M609 431h-111l-10 86q-44 32 -104 32q-98 0 -142 -54t-44 -162t51.5 -170t134.5 -62q112 0 136 71v60h-121v96h252v-328h-87l-16 51q-72 -70 -197 -70q-150 0 -231 95.5t-81 257.5q0 153 91 243t238 90q60 0 136 -44l17 34h88v-226z" />
    <glyph glyph-name="H" unicode="H" horiz-adv-x="798" 
d="M334 0h-293l-6 104l75 6v437l-76 6l7 97h293v-104l-70 -6v-160h270v160l-76 6l7 104h293v-104l-70 -6v-438l76 -4l-7 -98h-292l-7 104l76 6v160h-270v-161l76 -5z" />
    <glyph glyph-name="I" unicode="I" horiz-adv-x="374" 
d="M334 0h-293l-6 104l75 6v437l-76 6l7 97h293v-104l-70 -6v-438l76 -4z" />
    <glyph glyph-name="J" unicode="J" horiz-adv-x="479" 
d="M447 546l-53 -6v-334q0 -124 -50.5 -174.5t-159.5 -50.5q-48 0 -88.5 7t-57.5 14l-16 7l-14 173l104 7l12 -91q20 -5 42 -5q36 0 55 25.5t19 87.5v341l-93 6l7 97h293v-104z" />
    <glyph glyph-name="K" unicode="K" horiz-adv-x="748" 
d="M334 0h-293l-6 104l75 6v437l-76 6l7 97h279v-90l-56 -6v-187l65 29l135 162l-19 2v90h273v-104l-116 -5l-160 -188l194 -246l113 -3l-7 -104h-209l-44 35l-166 225l-59 -35v-116l76 -5z" />
    <glyph glyph-name="L" unicode="L" horiz-adv-x="571" 
d="M41 0l-6 104l75 6v437l-76 6l7 97h293v-104l-70 -6v-426h182l12 79l111 -6l-7 -187h-521z" />
    <glyph glyph-name="M" unicode="M" horiz-adv-x="1043" 
d="M305 0h-264l-6 104l75 6l1 437l-75 6l7 97h266l214 -489h5l209 489h265v-104l-70 -6l1 -431l77 -5l-7 -104h-273l-7 90l62 6l-1 345h-4l-192 -441h-143l-193 441h-4l-1 -345l65 -6z" />
    <glyph glyph-name="N" unicode="N" horiz-adv-x="811" 
d="M716 -3l-155 -1l-316 436h-3l5 -59v-264l79 -5l-7 -104h-278l-6 104l75 6v437l-76 6l7 97h228l311 -445h2l-4 45v291l-79 5l7 104h279v-104l-69 -6v-543z" />
    <glyph glyph-name="O" unicode="O" horiz-adv-x="761" 
d="M564 335q0 103 -47.5 158.5t-137.5 55.5q-89 0 -135 -55.5t-46 -158.5q0 -106 46.5 -171t134.5 -65q89 0 137 65t48 171zM724 335q0 -157 -91.5 -255.5t-253.5 -98.5q-161 0 -250.5 98t-89.5 256q0 155 88 243.5t252 88.5q165 0 255 -88.5t90 -243.5z" />
    <glyph glyph-name="P" unicode="P" horiz-adv-x="620" 
d="M307 543h-54v-238h54q59 0 94.5 30.5t35.5 96.5q0 61 -34 86t-96 25zM340 0h-299l-6 104l75 6v437l-76 6l7 97h292q264 0 264 -209q0 -60 -23.5 -107t-62 -75t-83.5 -42.5t-92 -14.5h-83v-106l94 -5z" />
    <glyph glyph-name="Q" unicode="Q" horiz-adv-x="761" 
d="M379 99q89 0 137 65t48 171q0 103 -47.5 158.5t-137.5 55.5q-89 0 -135 -55.5t-46 -158.5q0 -106 46.5 -171t134.5 -65zM667 -59l13 -116q-39 -15 -83 -15q-80 0 -154.5 45.5t-115.5 128.5q-138 15 -213 110.5t-75 240.5q0 155 88 243.5t252 88.5q166 0 255.5 -85
t89.5 -240q0 -135 -68 -230.5t-190 -121.5q61 -61 137 -61q31 0 64 12z" />
    <glyph glyph-name="R" unicode="R" horiz-adv-x="665" 
d="M308 543h-55v-220h84q42 0 71.5 32.5t29.5 85.5q0 54 -31 78t-99 24zM310 0h-269l-6 104l75 13v430l-76 6l7 97h293q127 0 195 -50.5t68 -149.5q0 -66 -34.5 -118t-90.5 -84l95 -142l101 -2l-7 -104h-190l-36 32l-108 181h-74v-117l64 -5z" />
    <glyph glyph-name="S" unicode="S" horiz-adv-x="578" 
d="M517 467h-117l-7 64q-42 30 -84 30q-44 0 -68 -20.5t-24 -57.5q0 -31 34 -54t82.5 -40t97.5 -38.5t83 -61.5t34 -97q0 -100 -67.5 -155.5t-188.5 -55.5q-64 0 -121 10.5t-82 20.5l-25 10l-3 182l110 7l13 -107q49 -14 92 -14q120 0 120 82q0 25 -24.5 44t-61 30.5
t-79.5 29.5t-79.5 39t-61 60.5t-24.5 91.5q0 87 61 143.5t158 56.5q59 0 125 -42l20 32h87v-190z" />
    <glyph glyph-name="T" unicode="T" horiz-adv-x="599" 
d="M107 453h-110l7 204l130 -7h338l131 7v-204h-111l-9 83h-106v-427l76 -5l-7 -104h-292l-7 104l75 6v426h-104z" />
    <glyph glyph-name="U" unicode="U" horiz-adv-x="749" 
d="M309 553l-69 -6v-270q0 -168 140 -168q73 0 107 45t34 123v264l-80 5l7 104h285v-97l-69 -8v-299q0 -117 -70 -191t-219 -74q-148 0 -218.5 74.5t-70.5 190.5v301l-76 6l7 97h292v-97z" />
    <glyph glyph-name="V" unicode="V" horiz-adv-x="695" 
d="M271 553l-56 -5l142 -433h3l139 427l-63 4l6 104h262v-97l-60 -5l-194 -548h-199l-192 547l-67 5l7 98h272v-97z" />
    <glyph glyph-name="W" unicode="W" horiz-adv-x="1046" 
d="M271 553l-56 -5l106 -376h2l133 478h159l142 -475h2l95 366l-68 5l7 104h261v-97l-55 -5l-166 -548h-159l-143 463h-2l-139 -463h-161l-170 547l-67 5l7 98h272v-97z" />
    <glyph glyph-name="X" unicode="X" horiz-adv-x="722" 
d="M302 553l-21 -2l83 -122h1l81 116l-21 1v104h283v-104l-103 -4l-153 -213l161 -222l110 -3l-7 -104h-298v97l21 1l-84 124h-1l-81 -117l24 -1v-104h-290l-7 104l109 5l158 214l-161 225l-102 5l6 97h292v-97z" />
    <glyph glyph-name="Y" unicode="Y" horiz-adv-x="663" 
d="M277 553l-34 -3l103 -169h1l95 164l-31 1v104h270v-104l-89 -4l-177 -290v-143l77 -5l-7 -104h-292l-7 104l75 6v141l-187 298l-94 4l7 97h290v-97z" />
    <glyph glyph-name="Z" unicode="Z" horiz-adv-x="640" 
d="M588 550l-347 -436h238l12 72l111 -7l-8 -179h-550v99l348 437h-214l-7 -63h-118l7 184l130 -7h398v-100z" />
    <glyph glyph-name="bracketleft" unicode="[" horiz-adv-x="435" 
d="M429 -89h-335v800h335v-101h-205v-598h205v-101z" />
    <glyph glyph-name="backslash" unicode="\" horiz-adv-x="519" 
d="M531 -250h-133l-428 1000h133z" />
    <glyph glyph-name="bracketright" unicode="]" horiz-adv-x="435" 
d="M340 -89h-335v101h205v598h-205v100h335v-799z" />
    <glyph glyph-name="asciicircum" unicode="^" horiz-adv-x="405" 
d="M87 474l-56 57l171 167l172 -167l-57 -57l-115 114z" />
    <glyph glyph-name="underscore" unicode="_" horiz-adv-x="776" 
d="M743 -179h-711v108h711v-108z" />
    <glyph glyph-name="grave" unicode="`" horiz-adv-x="269" 
d="M180 581l-98 -9l-139 139l138 17z" />
    <glyph glyph-name="a" unicode="a" horiz-adv-x="561" 
d="M252 80q30 0 53.5 13.5t30.5 23.5t10 17v86q-48 -4 -72.5 -7t-50.5 -10.5t-36.5 -21t-10.5 -34.5q0 -67 76 -67zM180 331h-109l6 177h87l12 -30q61 40 129 40q87 0 137.5 -47.5t50.5 -147.5v-221l55 -4l-7 -98h-168l-19 49q-1 -3 -4 -7.5t-15 -16t-27.5 -20.5t-43 -16.5
t-59.5 -7.5q-84 0 -132.5 41t-48.5 111q0 24 7.5 44.5t17.5 35.5t30 28t35.5 22t43.5 16.5t45 11.5t49.5 8.5t47 6t46.5 4.5v10q0 53 -18.5 74.5t-61.5 21.5q-49 0 -79 -26z" />
    <glyph glyph-name="b" unicode="b" horiz-adv-x="612" 
d="M312 410q-34 0 -59.5 -13t-33.5 -26l-8 -13v-233q3 -4 9 -10t30 -16.5t56 -10.5q130 0 130 180q0 79 -29 110.5t-95 31.5zM176 0h-112v640l-52 6l6 104h193v-278h5q4 5 13.5 12.5t46 20.5t81.5 13q105 0 168 -67t63 -180q0 -125 -66 -207.5t-174 -82.5q-47 0 -85 12.5
t-53 24.5l-14 13h-4z" />
    <glyph glyph-name="c" unicode="c" horiz-adv-x="503" 
d="M472 304h-110l-8 82q-30 30 -72 30q-53 0 -79 -35t-26 -121q0 -175 131 -175q32 0 63.5 15.5t46.5 31.5l15 15l63 -70q-2 -4 -6.5 -10.5t-22 -23t-38.5 -29t-58 -23t-79 -10.5q-133 0 -200.5 73t-67.5 204q0 121 63.5 190.5t173.5 69.5q51 0 108 -40l16 30h89z" />
    <glyph glyph-name="d" unicode="d" 
d="M299 90q64 0 102 51v233q-3 4 -10 10t-32 16.5t-54 10.5q-68 0 -98.5 -37.5t-30.5 -119.5q0 -164 123 -164zM596 0h-177l-12 35q-5 -6 -14.5 -15t-49 -24t-89.5 -15q-103 0 -167 76.5t-64 192.5q0 124 61.5 196t169.5 72q44 0 79.5 -9t48.5 -18l14 -9h5v158l-53 6l7 104
h192v-648l55 -4z" />
    <glyph glyph-name="e" unicode="e" horiz-adv-x="528" 
d="M280 416q-49 0 -75 -28t-33 -85h200q1 13 1 22q0 91 -93 91zM487 208h-314q17 -120 133 -120q35 0 66.5 14t45.5 28l14 13l67 -72q-2 -4 -7 -10t-23 -21.5t-39.5 -27.5t-56.5 -21.5t-74 -9.5q-130 0 -202.5 69.5t-72.5 201.5q0 128 70.5 197t185.5 69q110 0 168.5 -57.5
t58.5 -164.5q0 -23 -5 -45t-10 -33z" />
    <glyph glyph-name="f" unicode="f" horiz-adv-x="394" 
d="M452 591h-102l-6 50q-21 21 -47 21q-33 0 -45.5 -20.5t-12.5 -75.5v-66h150v-111h-150v-287l55 -5l-6 -97h-245l-7 103l56 6v280h-57v104l57 6v82q0 187 172 187q45 0 94 -32l14 22h81z" />
    <glyph glyph-name="g" unicode="g" horiz-adv-x="542" 
d="M271 418q-89 0 -89 -84q0 -47 23.5 -71.5t63.5 -24.5q39 0 62 25t23 74q0 81 -83 81zM399 -91q0 20 -10.5 31.5t-31.5 16t-42.5 6t-53 3.5t-54.5 6q-51 -15 -51 -57q0 -35 31 -57t92 -22q120 0 120 73zM534 394l-45 -3q8 -27 8 -57q0 -90 -63 -140.5t-161 -50.5h-8
t-17.5 -1.5t-22 -4.5t-17.5 -9t-8 -14q0 -11 7 -18.5t34.5 -13t77.5 -6.5q108 -3 163.5 -39t55.5 -114q0 -86 -63.5 -139t-195.5 -53q-134 0 -196.5 51.5t-62.5 132.5q0 86 82 121q-17 28 -17 71q0 44 40 75q-85 52 -85 152q0 91 69.5 137.5t169.5 46.5q76 0 129 -28l119 10
z" />
    <glyph glyph-name="h" unicode="h" horiz-adv-x="631" 
d="M274 0h-245l-6 104l55 6v530l-52 6l7 104h192v-278h5q6 5 16.5 12.5t49.5 20.5t84 13q182 0 182 -170v-246l56 -4l-7 -98h-196v324q0 39 -20 56.5t-67 17.5q-29 0 -55 -9t-37 -18l-11 -9v-260l56 -4z" />
    <glyph glyph-name="i" unicode="i" horiz-adv-x="311" 
d="M244 651q0 -35 -22.5 -56.5t-61.5 -21.5t-62.5 22.5t-23.5 56.5t22.5 56t62.5 22q41 0 63 -22.5t22 -56.5zM282 0h-245l-7 104l56 6v280l-52 6l6 104h193v-398l55 -4z" />
    <glyph glyph-name="j" unicode="j" horiz-adv-x="296" 
d="M243 651q0 -35 -22.5 -56.5t-61.5 -21.5t-62.5 22.5t-23.5 56.5t22.5 56t62.5 22q41 0 63 -22.5t22 -56.5zM-75 -243l37 111q33 -11 65 -11q26 0 42.5 31t16.5 86v416l-52 6l7 104h191v-526q0 -120 -55.5 -181.5t-132.5 -61.5q-41 0 -70.5 6.5t-39.5 12.5z" />
    <glyph glyph-name="k" unicode="k" horiz-adv-x="582" 
d="M260 0h-231l-6 104l55 6v530l-52 6l7 104h192v-448l67 29l42 69l-21 3l6 97h234v-104l-100 -14l-73 -101l106 -167l97 -3l-7 -111h-171l-40 40l-110 175l-30 -13v-106l42 -5z" />
    <glyph glyph-name="l" unicode="l" horiz-adv-x="303" 
d="M274 0h-245l-6 104l55 6v530l-52 6l7 104h192v-648l56 -4z" />
    <glyph glyph-name="m" unicode="m" horiz-adv-x="888" 
d="M868 0h-196v334q0 40 -14.5 53.5t-50.5 13.5q-45 0 -80 -31v-268l55 -4l-7 -98h-196v334q0 40 -14.5 53.5t-49.5 13.5q-51 0 -82 -31v-268l55 -4l-6 -98h-245l-7 104l56 6v280l-52 6l6 104h174l11 -37h2q5 6 15 15t45.5 24.5t77.5 15.5q95 0 134 -54h2q5 6 16 15t52 24
t90 15q83 0 122 -38.5t39 -123.5v-254l55 -4z" />
    <glyph glyph-name="n" unicode="n" horiz-adv-x="639" 
d="M282 0h-245l-7 104l56 6v280l-52 6l6 104h174l12 -35h1l5.5 5.5t17.5 13t31 16.5t46 12.5t61 5.5q183 0 183 -168v-248l55 -4l-6 -98h-196v323q0 41 -20 58t-67 17q-29 0 -55 -9t-38 -18l-11 -9v-260l55 -4z" />
    <glyph glyph-name="o" unicode="o" horiz-adv-x="586" 
d="M293 83q117 0 117 170q0 81 -27.5 122t-89.5 41q-117 0 -117 -163q0 -170 117 -170zM293 -19q-129 0 -199 73.5t-70 200.5q0 125 69.5 194t199.5 69t199.5 -69t69.5 -194t-72 -199.5t-197 -74.5z" />
    <glyph glyph-name="p" unicode="p" 
d="M326 410q-30 0 -55.5 -13t-34 -22.5t-12.5 -16.5v-233q3 -4 10 -10t32 -16.5t54 -10.5q129 0 129 180q0 82 -28 112t-95 30zM273 -250h-244l-6 104l55 6v530l-52 6l7 104h173l10 -35h2q5 6 16.5 15t52.5 23.5t91 14.5q104 0 164 -66.5t60 -180.5q0 -125 -62.5 -207.5
t-168.5 -82.5q-44 0 -80 9t-49 18l-14 9h-4v-165l56 -4z" />
    <glyph glyph-name="q" unicode="q" horiz-adv-x="611" 
d="M300 90q34 0 59 13t33 26l9 13v232q-37 37 -95 37q-70 0 -100 -36t-30 -121q0 -86 30 -125t94 -39zM596 -250h-244l-7 104l56 6v174h-5q-2 -2 -5 -5.5t-15 -13t-27 -16.5t-40.5 -12.5t-54.5 -5.5q-102 0 -166 76.5t-64 192.5q0 123 65.5 195.5t173.5 72.5q41 0 77 -11
t52 -21l15 -11h4l23 25h114v-648l54 -4z" />
    <glyph glyph-name="r" unicode="r" horiz-adv-x="465" 
d="M297 0h-260l-7 104l56 6v280l-61 6l7 104h168l15 -60h3q2 3 5 8.5t14.5 19t25 24t36 19t47.5 8.5q27 0 51.5 -5t35.5 -10l11 -4l1 -182h-105l-8 86h-15q-27 0 -48 -14t-27 -23.5t-9 -17.5v-247l70 -4z" />
    <glyph glyph-name="s" unicode="s" horiz-adv-x="467" 
d="M426 347h-96l-8 45q-36 27 -78 27q-28 0 -46 -11t-18 -31q0 -21 27.5 -36.5t66 -28.5t77.5 -29.5t66.5 -49t27.5 -77.5q0 -81 -57 -128t-179 -47q-44 0 -85.5 6.5t-61.5 12.5l-19 6l-13 150l90 6l10 -71q40 -10 75 -10q89 0 89 57q0 19 -19 32.5t-48 21.5t-62.5 21
t-62.5 28.5t-48 46t-19 72.5q0 72 53.5 115t133.5 43q59 0 117 -37l16 27h72z" />
    <glyph glyph-name="t" unicode="t" horiz-adv-x="379" 
d="M356 389h-132v-212q0 -81 57 -81l68 6v-93q-34 -20 -114 -20q-81 0 -119.5 35t-38.5 118v247h-56v104l57 5l21 152h125v-150h132v-111z" />
    <glyph glyph-name="u" unicode="u" horiz-adv-x="632" 
d="M406 138v252l-52 6l7 104h193v-398l55 -4l-7 -98h-177l-11 34h-2l-5.5 -5.5t-17.5 -13t-31 -16.5t-46 -12.5t-61 -5.5q-88 0 -135.5 50t-47.5 140v219l-52 6l7 104h193v-302q0 -96 87 -96q29 0 55 9t37 18z" />
    <glyph glyph-name="v" unicode="v" horiz-adv-x="557" 
d="M568 396l-66 -6l-146 -390h-156l-146 391l-71 5l7 104h189l104 -346h4l77 239l-39 3v104h243v-104z" />
    <glyph glyph-name="w" unicode="w" horiz-adv-x="824" 
d="M243 181h4l96 319h139l105 -319h3l53 219l-49 3v97h243v-104l-60 -6l-118 -390h-152l-92 313h-2l-99 -313h-152l-114 391l-65 5l7 104h185z" />
    <glyph glyph-name="x" unicode="x" horiz-adv-x="594" 
d="M585 0h-171l-37 37l-85 142h-1l-57 -94l-6 -85h-218v104l93 5l101 144l-94 139l-97 4l7 104h185l96 -169h2l38 67h-2l7 102h223v-104l-89 -5l-91 -132l108 -159l94 -2z" />
    <glyph glyph-name="y" unicode="y" horiz-adv-x="562" 
d="M5 -238l13 101q45 -16 81 -16q70 0 121 152l-164 392l-72 5l6 104h185l122 -341h2l79 233l-49 4v104h243v-104l-66 -6l-154 -410q-94 -249 -236 -249q-44 0 -72 8t-34 15z" />
    <glyph glyph-name="z" unicode="z" horiz-adv-x="496" 
d="M466 405l-252 -299h135l12 72l103 -7l-7 -171h-430v95l252 299h-130l-7 -62h-103l7 175l117 -7h303v-95z" />
    <glyph glyph-name="braceleft" unicode="{" horiz-adv-x="460" 
d="M427 -65v-100q-141 0 -196 38.5t-55 116.5q0 36 15 97t15 86q0 29 -33.5 45.5t-66.5 16.5v114q33 0 66.5 16.5t33.5 44.5q0 26 -15 87t-15 97q0 78 55 116t196 38v-99q-66 0 -95 -21.5t-29 -64.5q0 -30 15 -90.5t15 -91.5q0 -51 -52 -89q52 -38 52 -89q0 -31 -15 -91.5
t-15 -90.5q0 -43 29 -64.5t95 -21.5z" />
    <glyph glyph-name="bar" unicode="|" horiz-adv-x="387" 
d="M259 -250h-130v1000h130v-1000z" />
    <glyph glyph-name="braceright" unicode="}" horiz-adv-x="460" 
d="M32 -165v100q66 0 95.5 21.5t29.5 64.5q0 30 -15.5 90.5t-15.5 91.5q0 51 51 89q-51 38 -51 89q0 31 15.5 91.5t15.5 90.5q0 43 -29.5 64.5t-95.5 21.5v99q141 0 196.5 -38t55.5 -116q0 -36 -15.5 -97t-15.5 -87q0 -28 33.5 -44.5t66.5 -16.5v-114q-33 0 -66.5 -16.5
t-33.5 -45.5q0 -25 15.5 -86t15.5 -97q0 -78 -55.5 -116.5t-196.5 -38.5z" />
    <glyph glyph-name="asciitilde" unicode="~" horiz-adv-x="685" 
d="M608 410l57 -60q-2 -5 -6 -13.5t-19.5 -29.5t-34.5 -37t-51.5 -29.5t-69.5 -13.5q-68 0 -154 38.5t-149 38.5q-31 0 -55 -11t-32 -23l-9 -11l-68 66q2 5 6.5 13.5t21.5 30.5t38 38.5t57 30t78 13.5q50 0 94 -12.5t70.5 -27t64 -27t76.5 -12.5q27 0 48 9.5t29 18.5z" />
    <glyph glyph-name="nbspace" unicode="&#xa0;" horiz-adv-x="430" 
 />
    <glyph glyph-name="exclamdown" unicode="&#xa1;" horiz-adv-x="372" 
d="M268 435q0 -34 -24.5 -57t-63.5 -23q-38 0 -63 22t-25 58q0 35 24 58t64 23t64 -23.5t24 -57.5zM261 -250h-157v81l21 438h115l21 -438v-81z" />
    <glyph glyph-name="cent" unicode="&#xa2;" horiz-adv-x="503" 
d="M321 -50h-107l-8 110q-182 43 -182 268q0 105 47.5 171t132.5 83l3 118h107l8 -126q22 -8 47 -26l16 30h89l-2 -204h-110l-8 82q-30 30 -72 30q-53 0 -79 -35t-26 -121q0 -175 131 -175q32 0 63.5 15.5t46.5 31.5l15 15l63 -70l-6 -9t-19 -21t-33 -27t-49 -23.5
t-67 -14.5z" />
    <glyph glyph-name="sterling" unicode="&#xa3;" horiz-adv-x="606" 
d="M585 0h-542v122h45q48 35 48 130v8l-93 2v107h87q-5 53 -5 99q0 91 56.5 145t151.5 54q49 0 106 -38l14 28h81v-175h-103l-7 50q-24 20 -57 20q-80 0 -80 -92v-91h236v-110h-239q-7 -86 -29 -137h228l12 54l98 -7z" />
    <glyph glyph-name="currency" unicode="&#xa4;" horiz-adv-x="627" 
d="M314 212q44 0 71 27.5t27 75.5t-27 75t-71 27t-70.5 -27t-26.5 -74q0 -48 27 -76t70 -28zM100 59l-54 67l105 85q-28 47 -28 104q0 56 27 100l-105 89l55 67l99 -101q50 36 115 36q63 0 111 -34l101 98l55 -66l-105 -85q30 -47 30 -104q0 -55 -29 -102l105 -88l-55 -66
l-99 100q-51 -35 -114 -35q-64 0 -112 34z" />
    <glyph glyph-name="yen" unicode="&#xa5;" horiz-adv-x="663" 
d="M277 553l-34 -3l103 -169h1l95 164l-31 1v104h270v-104l-89 -4l-101 -165h69v-82h-119l-26 -43v-7h145v-82h-145v-54l77 -5l-7 -104h-292l-7 104l75 6v53h-145v82h145v6l-28 44h-117v82h66l-108 172l-94 4l7 97h290v-97z" />
    <glyph glyph-name="brokenbar" unicode="&#xa6;" horiz-adv-x="387" 
d="M259 350h-130v400h130v-400zM259 -250h-130v400h130v-400z" />
    <glyph glyph-name="section" unicode="&#xa7;" horiz-adv-x="577" 
d="M188 332q0 -32 29 -51.5t95 -39.5t90 -31q19 24 19 55q0 28 -30.5 46t-95 38t-92.5 33q-15 -22 -15 -50zM496 490h-108l-7 51q-32 23 -64 23q-66 0 -66 -55q0 -25 30 -43t72.5 -30.5t85.5 -28.5t73 -48t30 -77q0 -73 -61 -134q15 -27 15 -57q0 -81 -49.5 -124t-169.5 -43
q-60 0 -105.5 6t-61.5 12l-15 7l-8 165l102 7l18 -92q38 -2 60 -2q82 0 82 58q0 23 -29 39t-70.5 28t-83 28t-70.5 50t-29 84q0 71 56 127q-20 28 -20 64q0 74 54 118t130 44q54 0 110 -38l18 28h81v-167z" />
    <glyph glyph-name="dieresis" unicode="&#xa8;" horiz-adv-x="477" 
d="M148 652q0 -26 -17.5 -48t-56.5 -22t-56.5 22.5t-17.5 47.5q0 29 20.5 49t53.5 20t53.5 -19t20.5 -50zM361 652q0 -26 -17.5 -48t-56.5 -22t-56.5 22.5t-17.5 47.5q0 29 20.5 49t53.5 20t53.5 -19t20.5 -50z" />
    <glyph glyph-name="copyright" unicode="&#xa9;" horiz-adv-x="840" 
d="M551 351h-80l-6 52q-19 15 -40 15q-36 0 -55 -20.5t-19 -70.5q0 -47 26 -75t66 -28q28 0 52.5 9.5t34.5 18.5l11 10l31 -58q-5 -7 -15 -18t-45.5 -29t-77.5 -18q-85 0 -135 51.5t-50 136.5q0 80 48 126t112 46q38 0 74 -24l10 16h59zM678 322q0 125 -69 196.5t-192 71.5
q-121 0 -188 -71.5t-67 -196.5q0 -124 66.5 -193.5t188.5 -69.5q124 0 192.5 69.5t68.5 193.5zM774 323q0 -158 -92 -250t-264 -92q-171 0 -261.5 91.5t-90.5 250.5q0 158 91.5 251t260.5 93q170 0 263 -93t93 -251z" />
    <glyph glyph-name="ordfeminine" unicode="&#xaa;" horiz-adv-x="469" 
d="M280 430v49q-63 -5 -92 -16.5t-29 -38.5q0 -39 55 -39q23 0 39.5 11.5t21.5 22.5zM412 320h-106l-21 39q-3 -6 -9.5 -14.5t-36.5 -23t-72 -14.5q-67 0 -102.5 28t-35.5 78q0 36 24.5 62.5t66.5 39.5t80 19t80 8v9q0 50 -69 50q-28 0 -54 -8.5t-38 -16.5l-12 -9l-35 59
q6 6 17.5 15.5t55.5 25.5t96 16q171 0 171 -137v-226z" />
    <glyph glyph-name="guillemotleft" unicode="&#xab;" horiz-adv-x="610" 
d="M547 372l-115 -123l114 -124l-59 -66l-186 191l187 186zM335 372l-115 -123l114 -124l-59 -66l-186 191l187 186z" />
    <glyph glyph-name="logicalnot" unicode="&#xac;" horiz-adv-x="562" 
d="M507 99h-112v162h-341v108h453v-270z" />
    <glyph glyph-name="uni00AD" unicode="&#xad;" horiz-adv-x="402" 
d="M356 221h-311v108h311v-108z" />
    <glyph glyph-name="registered" unicode="&#xae;" horiz-adv-x="764" 
d="M383 526h-36v-93h36q57 0 57 51q0 42 -57 42zM347 274h-79v310h113q143 0 143 -99q0 -66 -62 -91l62 -120h-87l-55 107h-35v-107zM619 429q0 122 -62 189.5t-177 67.5q-114 0 -174 -68.5t-60 -188.5q0 -121 59.5 -186t174.5 -65q116 0 177.5 65t61.5 186zM715 430
q0 -150 -88 -240t-246 -90t-244.5 90t-86.5 240q0 149 89 239t242 90t243.5 -90t90.5 -239z" />
    <glyph glyph-name="macron" unicode="&#xaf;" horiz-adv-x="486" 
d="M366 616h-246v74h246v-74z" />
    <glyph glyph-name="degree" unicode="&#xb0;" horiz-adv-x="479" 
d="M239 461q82 0 82 104q0 101 -82 101q-79 0 -79 -101q0 -104 79 -104zM239 360q-98 0 -149 55.5t-51 148.5q0 91 53 146.5t147 55.5q92 0 147 -56t55 -146q0 -92 -53 -148t-149 -56z" />
    <glyph glyph-name="plusminus" unicode="&#xb1;" horiz-adv-x="596" 
d="M564 112h-532v108h532v-108zM358 304h-113v168h-171v108h171v167h113v-167h169v-108h-169v-168z" />
    <glyph glyph-name="twosuperior" unicode="&#xb2;" horiz-adv-x="497" 
d="M147 594h-95l6 162h74l13 -30q57 39 113 39q86 0 135 -47t49 -119q0 -123 -207 -255h122l9 39l90 -7l-7 -146h-402v110q14 5 70 44t116.5 100t60.5 103q0 40 -18 56.5t-56 16.5q-37 0 -69 -27z" />
    <glyph glyph-name="threesuperior" unicode="&#xb3;" horiz-adv-x="496" 
d="M426 673l-126 -134q63 -7 105 -49t42 -107q0 -82 -68.5 -125.5t-174.5 -43.5q-40 0 -75 6.5t-51 13.5l-15 6l-6 132l89 6l9 -56q26 -6 56 -6q105 0 105 69q0 29 -17 46t-49 17q-15 0 -29.5 -6t-20.5 -12l-7 -6l-59 63l136 151h-113l-7 -43h-89l7 161l107 -6h251v-77z" />
    <glyph glyph-name="acute" unicode="&#xb4;" horiz-adv-x="269" 
d="M151 572l-98 7l95 148l140 -16z" />
    <glyph glyph-name="uni00B5" unicode="&#xb5;" horiz-adv-x="641" 
d="M415 138v252l-52 6l7 104h193v-398l55 -4l-7 -98h-177l-11 34h-2l-5.5 -5.5t-17.5 -13t-31 -16.5t-46 -12.5t-61 -5.5q-20 0 -37 3q2 -156 2 -234h-148v640l-52 6l7 104h193v-302q0 -96 87 -96q29 0 55 9t37 18z" />
    <glyph glyph-name="paragraph" unicode="&#xb6;" horiz-adv-x="798" 
d="M687 0h-146v528h-96v-528h-142v233q-126 0 -195 55.5t-69 165.5q0 102 68 149t224 47h428v-122h-72v-528z" />
    <glyph glyph-name="periodcentered" unicode="&#xb7;" horiz-adv-x="331" 
d="M252 364q0 -34 -24.5 -57t-63.5 -23q-38 0 -63 22t-25 58q0 35 24 58t64 23t64 -23.5t24 -57.5z" />
    <glyph glyph-name="cedilla" unicode="&#xb8;" horiz-adv-x="279" 
d="M41 -214l20 53q30 -24 64 -24q45 0 45 40q0 17 -17.5 28t-35 16t-17.5 7l11 93h71l-5 -54q0 -1 23.5 -8.5t46.5 -28t23 -54.5q0 -48 -29.5 -76.5t-84.5 -28.5q-37 0 -66 9.5t-39 18.5z" />
    <glyph glyph-name="onesuperior" unicode="&#xb9;" horiz-adv-x="496" 
d="M226 750h113v-421l92 -4l-6 -95h-320l-6 95l106 10v292l-93 -44l-40 92z" />
    <glyph glyph-name="ordmasculine" unicode="&#xba;" horiz-adv-x="499" 
d="M250 384q44 0 63 27.5t19 83.5q0 55 -19 81t-63 26q-45 0 -64 -25.5t-19 -80.5q0 -56 19.5 -84t63.5 -28zM250 307q-108 0 -164 49.5t-56 138.5t56 138.5t164 49.5t163.5 -49.5t55.5 -138.5q0 -88 -57.5 -138t-161.5 -50z" />
    <glyph glyph-name="guillemotright" unicode="&#xbb;" horiz-adv-x="610" 
d="M520 245l-187 -186l-60 63l115 123l-113 125l59 66zM308 245l-187 -186l-60 63l115 123l-113 125l59 66z" />
    <glyph glyph-name="onequarter" unicode="&#xbc;" horiz-adv-x="1002" 
d="M946 -265h-216l-6 88l53 5v55h-234l-7 79q87 158 118 307l126 -14q-30 -124 -108 -275h105v35l22 161h113v-196h54v-89l-54 -7v-56l41 -4zM399 -48l-88 47l389 605l87 -47zM226 750h113v-421l92 -4l-6 -95h-320l-6 95l106 10v292l-93 -44l-40 92z" />
    <glyph glyph-name="onehalf" unicode="&#xbd;" horiz-adv-x="1058" 
d="M708 99h-95l6 162h74l13 -30q57 39 113 39q86 0 135 -47t49 -119q0 -121 -207 -255h122l9 39l90 -7l-7 -146h-402v110q14 5 70 44t116.5 100t60.5 103q0 40 -18 56.5t-56 16.5q-37 0 -69 -27zM392 -48l-88 47l389 605l87 -47zM226 750h113v-421l92 -4l-6 -95h-320l-6 95
l106 10v292l-93 -44l-40 92z" />
    <glyph glyph-name="threequarters" unicode="&#xbe;" horiz-adv-x="980" 
d="M924 -265h-216l-6 88l53 5v55h-234l-7 79q87 158 118 307l126 -14q-30 -124 -108 -275h105v35l22 161h113v-196h54v-89l-54 -7v-56l41 -4zM377 -48l-88 47l389 605l87 -47zM427 673l-126 -134q63 -7 105 -49t42 -107q0 -82 -68.5 -125.5t-174.5 -43.5q-40 0 -75 6.5
t-50 13.5l-16 6l-6 132l89 6l9 -56q25 -6 56 -6q105 0 105 69q0 29 -17 46t-49 17q-15 0 -29.5 -6t-21.5 -12l-6 -6l-59 63l136 151h-113l-7 -43h-89l7 161l107 -6h251v-77z" />
    <glyph glyph-name="questiondown" unicode="&#xbf;" horiz-adv-x="506" 
d="M394 435q0 -34 -24.5 -57t-63.5 -23q-38 0 -63 22t-25 58q0 35 24 58t64 23t64 -23.5t24 -57.5zM446 -249q-65 -20 -170 -20q-128 0 -190 52.5t-62 125.5q0 40 13.5 72t35.5 53t48 39t52 33.5t48 32t35.5 40t13.5 52.5q0 13 -3 30l81 7q25 -50 25 -90q0 -34 -19.5 -62
t-47 -47t-55 -37.5t-47 -45t-19.5 -59.5q0 -84 106 -84q21 0 47 4l11 96l104 -7z" />
    <glyph glyph-name="Agrave" unicode="&#xc0;" horiz-adv-x="726" 
d="M427 716l-98 -9l-139 139l138 17zM355 531h-2l-88 -258h175zM256 0h-253l-6 104l70 5l198 541h200l197 -549l68 -3l-6 -98h-272v83l55 6l-35 89h-240l-32 -83l63 -5z" />
    <glyph glyph-name="Aacute" unicode="&#xc1;" horiz-adv-x="726" 
d="M397 707l-98 7l95 148l140 -16zM355 531h-2l-88 -258h175zM256 0h-253l-6 104l70 5l198 541h200l197 -549l68 -3l-6 -98h-272v83l55 6l-35 89h-240l-32 -83l63 -5z" />
    <glyph glyph-name="Acircumflex" unicode="&#xc2;" horiz-adv-x="726" 
d="M488 714l-125 80l-124 -80l-45 82l131 92h78l130 -92zM355 531h-2l-88 -258h175zM256 0h-253l-6 104l70 5l198 541h200l197 -549l68 -3l-6 -98h-272v83l55 6l-35 89h-240l-32 -83l63 -5z" />
    <glyph glyph-name="Atilde" unicode="&#xc3;" horiz-adv-x="726" 
d="M540 844l18 -72q0 -2 -1.5 -5.5t-8 -12.5t-16 -16t-29.5 -12.5t-45 -5.5q-39 0 -96 25t-88 25q-20 0 -40.5 -8t-31.5 -16l-10 -7l-18 80l3 6t10.5 14.5t19.5 18t32.5 14t46.5 6.5q45 0 101.5 -26t83.5 -26q20 0 37 4.5t24 9.5zM355 531h-2l-88 -258h175zM256 0h-253
l-6 104l70 5l198 541h200l197 -549l68 -3l-6 -98h-272v83l55 6l-35 89h-240l-32 -83l63 -5z" />
    <glyph glyph-name="Adieresis" unicode="&#xc4;" horiz-adv-x="726" 
d="M328 787q0 -26 -17.5 -48t-56.5 -22t-56.5 22.5t-17.5 47.5q0 29 20.5 49t53.5 20t53.5 -19t20.5 -50zM541 787q0 -26 -17.5 -48t-56.5 -22t-56.5 22.5t-17.5 47.5q0 29 20.5 49t53.5 20t53.5 -19t20.5 -50zM355 531h-2l-88 -258h175zM256 0h-253l-6 104l70 5l198 541
h200l197 -549l68 -3l-6 -98h-272v83l55 6l-35 89h-240l-32 -83l63 -5z" />
    <glyph glyph-name="Aring" unicode="&#xc5;" horiz-adv-x="726" 
d="M364 781q23 0 37 15t14 39t-15 39t-36 15q-23 0 -37.5 -15t-14.5 -39t14.5 -39t37.5 -15zM364 717q-55 0 -87 32.5t-32 85.5q0 51 33.5 84t85.5 33q50 0 84 -33t34 -84q0 -52 -33 -85t-85 -33zM355 531h-2l-88 -258h175zM256 0h-253l-6 104l70 5l198 541h200l197 -549
l68 -3l-6 -98h-272v83l55 6l-35 89h-240l-32 -83l63 -5z" />
    <glyph glyph-name="AE" unicode="&#xc6;" horiz-adv-x="945" 
d="M434 536l-144 -263h153v263h-9zM899 473h-117l-5 63h-180v-154l262 1v-110h-262v-159h198l11 72l111 -7l-7 -179h-535l-7 77l75 6v95h-206l-54 -92l49 -3l-7 -83h-268l-7 104l97 5l269 433l-84 4l7 104h530l130 7v-184z" />
    <glyph glyph-name="Ccedilla" unicode="&#xc7;" horiz-adv-x="665" 
d="M250 -214l20 53q30 -24 64 -24q45 0 45 40q0 17 -17.5 28t-35 16t-17.5 7l9 80q-139 18 -208.5 110.5t-69.5 236.5q0 150 91 242t230 92q74 0 140 -44l22 34h88v-256h-118l-11 117q-44 31 -99 31q-82 0 -133 -56t-51 -160q0 -106 52.5 -169t147.5 -63q34 0 67.5 10
t57 23.5t42.5 27.5t28 24l9 10l57 -94q-3 -5 -9.5 -13t-31 -28.5t-53 -36t-76.5 -29t-101 -14.5l-3 -36q0 -1 23 -8.5t46.5 -28t23.5 -54.5q0 -48 -29.5 -76.5t-84.5 -28.5q-37 0 -66 9.5t-39 18.5z" />
    <glyph glyph-name="Egrave" unicode="&#xc8;" horiz-adv-x="622" 
d="M395 716l-98 -9l-139 139l138 17zM566 473h-118l-5 63h-179v-154l262 1v-110h-262v-159h198l11 72l111 -7l-7 -179h-536l-6 104l75 6v437l-76 6l7 97h395l130 7v-184z" />
    <glyph glyph-name="Eacute" unicode="&#xc9;" horiz-adv-x="622" 
d="M365 707l-98 7l95 148l140 -16zM566 473h-118l-5 63h-179v-154l262 1v-110h-262v-159h198l11 72l111 -7l-7 -179h-536l-6 104l75 6v437l-76 6l7 97h395l130 7v-184z" />
    <glyph glyph-name="Ecircumflex" unicode="&#xca;" horiz-adv-x="622" 
d="M456 714l-125 80l-124 -80l-45 82l131 92h78l130 -92zM566 473h-118l-5 63h-179v-154l262 1v-110h-262v-159h198l11 72l111 -7l-7 -179h-536l-6 104l75 6v437l-76 6l7 97h395l130 7v-184z" />
    <glyph glyph-name="Edieresis" unicode="&#xcb;" horiz-adv-x="622" 
d="M296 787q0 -26 -17.5 -48t-56.5 -22t-56.5 22.5t-17.5 47.5q0 29 20.5 49t53.5 20t53.5 -19t20.5 -50zM509 787q0 -26 -17.5 -48t-56.5 -22t-56.5 22.5t-17.5 47.5q0 29 20.5 49t53.5 20t53.5 -19t20.5 -50zM566 473h-118l-5 63h-179v-154l262 1v-110h-262v-159h198
l11 72l111 -7l-7 -179h-536l-6 104l75 6v437l-76 6l7 97h395l130 7v-184z" />
    <glyph glyph-name="Igrave" unicode="&#xcc;" horiz-adv-x="374" 
d="M249 716l-98 -9l-139 139l138 17zM334 0h-293l-6 104l75 6v437l-76 6l7 97h293v-104l-70 -6v-438l76 -4z" />
    <glyph glyph-name="Iacute" unicode="&#xcd;" horiz-adv-x="374" 
d="M219 707l-98 7l95 148l140 -16zM334 0h-293l-6 104l75 6v437l-76 6l7 97h293v-104l-70 -6v-438l76 -4z" />
    <glyph glyph-name="Icircumflex" unicode="&#xce;" horiz-adv-x="374" 
d="M310 714l-125 80l-124 -80l-45 82l131 92h78l130 -92zM334 0h-293l-6 104l75 6v437l-76 6l7 97h293v-104l-70 -6v-438l76 -4z" />
    <glyph glyph-name="Idieresis" unicode="&#xcf;" horiz-adv-x="374" 
d="M150 787q0 -26 -17.5 -48t-56.5 -22t-56.5 22.5t-17.5 47.5q0 29 20.5 49t53.5 20t53.5 -19t20.5 -50zM363 787q0 -26 -17.5 -48t-56.5 -22t-56.5 22.5t-17.5 47.5q0 29 20.5 49t53.5 20t53.5 -19t20.5 -50zM334 0h-293l-6 104l75 6v437l-76 6l7 97h293v-104l-70 -6v-438
l76 -4z" />
    <glyph glyph-name="Eth" unicode="&#xd0;" horiz-adv-x="766" 
d="M371 531h-107v-162h147v-94h-147v-156h109q101 0 148 53t47 162q0 107 -46.5 152t-150.5 45zM41 0l-6 104l75 6v165h-90v94h90v178l-76 6l7 97h330q357 0 357 -316q0 -160 -90.5 -247t-265.5 -87h-331z" />
    <glyph glyph-name="Ntilde" unicode="&#xd1;" horiz-adv-x="811" 
d="M583 844l18 -72q0 -2 -1.5 -5.5t-8 -12.5t-16 -16t-29.5 -12.5t-45 -5.5q-39 0 -96 25t-88 25q-20 0 -40.5 -8t-30.5 -16l-11 -7l-18 80l3 6t10.5 14.5t19.5 18t32.5 14t46.5 6.5q45 0 101.5 -26t83.5 -26q20 0 37 4.5t25 9.5zM716 -3l-155 -1l-316 436h-3l5 -59v-264
l79 -5l-7 -104h-278l-6 104l75 6v437l-76 6l7 97h228l311 -445h2l-4 45v291l-79 5l7 104h279v-104l-69 -6v-543z" />
    <glyph glyph-name="Ograve" unicode="&#xd2;" horiz-adv-x="761" 
d="M443 716l-98 -9l-139 139l138 17zM564 335q0 103 -47.5 158.5t-137.5 55.5q-89 0 -135 -55.5t-46 -158.5q0 -106 46.5 -171t134.5 -65q89 0 137 65t48 171zM724 335q0 -157 -91.5 -255.5t-253.5 -98.5q-161 0 -250.5 98t-89.5 256q0 155 88 243.5t252 88.5
q165 0 255 -88.5t90 -243.5z" />
    <glyph glyph-name="Oacute" unicode="&#xd3;" horiz-adv-x="761" 
d="M413 707l-98 7l95 148l140 -16zM564 335q0 103 -47.5 158.5t-137.5 55.5q-89 0 -135 -55.5t-46 -158.5q0 -106 46.5 -171t134.5 -65q89 0 137 65t48 171zM724 335q0 -157 -91.5 -255.5t-253.5 -98.5q-161 0 -250.5 98t-89.5 256q0 155 88 243.5t252 88.5q165 0 255 -88.5
t90 -243.5z" />
    <glyph glyph-name="Ocircumflex" unicode="&#xd4;" horiz-adv-x="761" 
d="M504 714l-125 80l-124 -80l-45 82l131 92h78l130 -92zM564 335q0 103 -47.5 158.5t-137.5 55.5q-89 0 -135 -55.5t-46 -158.5q0 -106 46.5 -171t134.5 -65q89 0 137 65t48 171zM724 335q0 -157 -91.5 -255.5t-253.5 -98.5q-161 0 -250.5 98t-89.5 256q0 155 88 243.5
t252 88.5q165 0 255 -88.5t90 -243.5z" />
    <glyph glyph-name="Otilde" unicode="&#xd5;" horiz-adv-x="761" 
d="M556 844l18 -72q0 -2 -1.5 -5.5t-8 -12.5t-16 -16t-29.5 -12.5t-45 -5.5q-39 0 -96 25t-88 25q-20 0 -40.5 -8t-31.5 -16l-10 -7l-18 80l3 6t10.5 14.5t19.5 18t32.5 14t46.5 6.5q45 0 101.5 -26t83.5 -26q20 0 37 4.5t24 9.5zM564 335q0 103 -47.5 158.5t-137.5 55.5
q-89 0 -135 -55.5t-46 -158.5q0 -106 46.5 -171t134.5 -65q89 0 137 65t48 171zM724 335q0 -157 -91.5 -255.5t-253.5 -98.5q-161 0 -250.5 98t-89.5 256q0 155 88 243.5t252 88.5q165 0 255 -88.5t90 -243.5z" />
    <glyph glyph-name="Odieresis" unicode="&#xd6;" horiz-adv-x="761" 
d="M344 787q0 -26 -17.5 -48t-56.5 -22t-56.5 22.5t-17.5 47.5q0 29 20.5 49t53.5 20t53.5 -19t20.5 -50zM557 787q0 -26 -17.5 -48t-56.5 -22t-56.5 22.5t-17.5 47.5q0 29 20.5 49t53.5 20t53.5 -19t20.5 -50zM564 335q0 103 -47.5 158.5t-137.5 55.5q-89 0 -135 -55.5
t-46 -158.5q0 -106 46.5 -171t134.5 -65q89 0 137 65t48 171zM724 335q0 -157 -91.5 -255.5t-253.5 -98.5q-161 0 -250.5 98t-89.5 256q0 155 88 243.5t252 88.5q165 0 255 -88.5t90 -243.5z" />
    <glyph glyph-name="multiply" unicode="&#xd7;" horiz-adv-x="476" 
d="M116 119l-81 86l118 114l-118 115l80 86l123 -119l124 119l80 -86l-119 -115l118 -114l-80 -86l-123 118z" />
    <glyph glyph-name="Oslash" unicode="&#xd8;" horiz-adv-x="761" 
d="M564 335q0 117 -61 172l-180 -400q27 -8 56 -8q89 0 137 65t48 171zM268 138l181 400q-33 11 -70 11q-89 0 -135 -55.5t-46 -158.5q0 -136 70 -197zM724 335q0 -157 -91.5 -255.5t-253.5 -98.5q-54 0 -104 13l-42 -101l-64 11l46 111q-85 42 -130.5 125.5t-45.5 194.5
q0 155 88 243.5t252 88.5q65 0 124 -16l37 75l64 -11l-43 -86q79 -39 121 -114.5t42 -179.5z" />
    <glyph glyph-name="Ugrave" unicode="&#xd9;" horiz-adv-x="749" 
d="M480 716l-98 -9l-139 139l138 17zM309 553l-69 -6v-270q0 -168 140 -168q73 0 107 45t34 123v264l-80 5l7 104h285v-97l-69 -8v-299q0 -117 -70 -191t-219 -74q-148 0 -218.5 74.5t-70.5 190.5v301l-76 6l7 97h292v-97z" />
    <glyph glyph-name="Uacute" unicode="&#xda;" horiz-adv-x="749" 
d="M384 707l-98 7l95 148l140 -16zM309 553l-69 -6v-270q0 -168 140 -168q73 0 107 45t34 123v264l-80 5l7 104h285v-97l-69 -8v-299q0 -117 -70 -191t-219 -74q-148 0 -218.5 74.5t-70.5 190.5v301l-76 6l7 97h292v-97z" />
    <glyph glyph-name="Ucircumflex" unicode="&#xdb;" horiz-adv-x="749" 
d="M502 714l-125 80l-124 -80l-45 82l131 92h78l130 -92zM309 553l-69 -6v-270q0 -168 140 -168q73 0 107 45t34 123v264l-80 5l7 104h285v-97l-69 -8v-299q0 -117 -70 -191t-219 -74q-148 0 -218.5 74.5t-70.5 190.5v301l-76 6l7 97h292v-97z" />
    <glyph glyph-name="Udieresis" unicode="&#xdc;" horiz-adv-x="749" 
d="M343 787q0 -26 -17.5 -48t-56.5 -22t-56.5 22.5t-17.5 47.5q0 29 20.5 49t53.5 20t53.5 -19t20.5 -50zM556 787q0 -26 -17.5 -48t-56.5 -22t-56.5 22.5t-17.5 47.5q0 29 20.5 49t53.5 20t53.5 -19t20.5 -50zM309 553l-69 -6v-270q0 -168 140 -168q73 0 107 45t34 123v264
l-80 5l7 104h285v-97l-69 -8v-299q0 -117 -70 -191t-219 -74q-148 0 -218.5 74.5t-70.5 190.5v301l-76 6l7 97h292v-97z" />
    <glyph glyph-name="Yacute" unicode="&#xdd;" horiz-adv-x="663" 
d="M385 707l-98 7l95 148l140 -16zM277 553l-34 -3l103 -169h1l95 164l-31 1v104h270v-104l-89 -4l-177 -290v-143l77 -5l-7 -104h-292l-7 104l75 6v141l-187 298l-94 4l7 97h290v-97z" />
    <glyph glyph-name="Thorn" unicode="&#xde;" horiz-adv-x="630" 
d="M321 436h-68v-241h67q125 0 125 129q0 64 -31.5 88t-92.5 24zM253 0h-212l-6 104l75 6v437l-76 6l7 97h212v-100h80q264 0 264 -217q0 -62 -23.5 -111.5t-62 -78t-83 -43t-92.5 -14.5h-83v-86z" />
    <glyph glyph-name="germandbls" unicode="&#xdf;" horiz-adv-x="646" 
d="M226 0h-196l-6 104l55 6v422q0 236 247 236q104 0 162.5 -47t58.5 -128q0 -82 -78 -130q153 -53 153 -221q0 -127 -58.5 -194t-158.5 -67q-50 0 -85 8.5t-44 16.5l-10 9l20 87q23 -14 72 -14q50 0 80.5 38t30.5 112q0 84 -37 116t-133 32v107q4 0 11 1.5t25 7.5t31.5 14
t24.5 24.5t11 37.5q0 39 -20.5 61t-60.5 22q-95 0 -95 -129v-532z" />
    <glyph glyph-name="agrave" unicode="&#xe0;" horiz-adv-x="561" 
d="M351 581l-98 -9l-139 139l138 17zM252 80q30 0 53.5 13.5t30.5 23.5t10 17v86q-48 -4 -72.5 -7t-50.5 -10.5t-36.5 -21t-10.5 -34.5q0 -67 76 -67zM180 331h-109l6 177h87l12 -30q61 40 129 40q87 0 137.5 -47.5t50.5 -147.5v-221l55 -4l-7 -98h-168l-19 49
q-1 -3 -4 -7.5t-15 -16t-27.5 -20.5t-43 -16.5t-59.5 -7.5q-84 0 -132.5 41t-48.5 111q0 24 7.5 44.5t17.5 35.5t30 28t35.5 22t43.5 16.5t45 11.5t49.5 8.5t47 6t46.5 4.5v10q0 53 -18.5 74.5t-61.5 21.5q-49 0 -79 -26z" />
    <glyph glyph-name="aacute" unicode="&#xe1;" horiz-adv-x="561" 
d="M321 572l-98 7l95 148l140 -16zM252 80q30 0 53.5 13.5t30.5 23.5t10 17v86q-48 -4 -72.5 -7t-50.5 -10.5t-36.5 -21t-10.5 -34.5q0 -67 76 -67zM180 331h-109l6 177h87l12 -30q61 40 129 40q87 0 137.5 -47.5t50.5 -147.5v-221l55 -4l-7 -98h-168l-19 49q-1 -3 -4 -7.5
t-15 -16t-27.5 -20.5t-43 -16.5t-59.5 -7.5q-84 0 -132.5 41t-48.5 111q0 24 7.5 44.5t17.5 35.5t30 28t35.5 22t43.5 16.5t45 11.5t49.5 8.5t47 6t46.5 4.5v10q0 53 -18.5 74.5t-61.5 21.5q-49 0 -79 -26z" />
    <glyph glyph-name="acircumflex" unicode="&#xe2;" horiz-adv-x="561" 
d="M411 579l-125 80l-124 -80l-45 82l131 92h78l130 -92zM252 80q30 0 53.5 13.5t30.5 23.5t10 17v86q-48 -4 -72.5 -7t-50.5 -10.5t-36.5 -21t-10.5 -34.5q0 -67 76 -67zM180 331h-109l6 177h87l12 -30q61 40 129 40q87 0 137.5 -47.5t50.5 -147.5v-221l55 -4l-7 -98h-168
l-19 49q-1 -3 -4 -7.5t-15 -16t-27.5 -20.5t-43 -16.5t-59.5 -7.5q-84 0 -132.5 41t-48.5 111q0 24 7.5 44.5t17.5 35.5t30 28t35.5 22t43.5 16.5t45 11.5t49.5 8.5t47 6t46.5 4.5v10q0 53 -18.5 74.5t-61.5 21.5q-49 0 -79 -26z" />
    <glyph glyph-name="atilde" unicode="&#xe3;" horiz-adv-x="561" 
d="M464 709l18 -72q0 -2 -1.5 -5.5t-8 -12.5t-16 -16t-29.5 -12.5t-45 -5.5q-39 0 -96 25t-88 25q-20 0 -40.5 -7.5t-31.5 -15.5l-10 -8l-18 80l3 6t10.5 14.5t19.5 18t32.5 14t46.5 6.5q45 0 101.5 -26t83.5 -26q20 0 37 4.5t24 8.5zM252 80q30 0 53.5 13.5t30.5 23.5
t10 17v86q-48 -4 -72.5 -7t-50.5 -10.5t-36.5 -21t-10.5 -34.5q0 -67 76 -67zM180 331h-109l6 177h87l12 -30q61 40 129 40q87 0 137.5 -47.5t50.5 -147.5v-221l55 -4l-7 -98h-168l-19 49q-1 -3 -4 -7.5t-15 -16t-27.5 -20.5t-43 -16.5t-59.5 -7.5q-84 0 -132.5 41
t-48.5 111q0 24 7.5 44.5t17.5 35.5t30 28t35.5 22t43.5 16.5t45 11.5t49.5 8.5t47 6t46.5 4.5v10q0 53 -18.5 74.5t-61.5 21.5q-49 0 -79 -26z" />
    <glyph glyph-name="adieresis" unicode="&#xe4;" horiz-adv-x="561" 
d="M251 652q0 -26 -17.5 -48t-56.5 -22t-56.5 22.5t-17.5 47.5q0 29 20.5 49t53.5 20t53.5 -19t20.5 -50zM464 652q0 -26 -17.5 -48t-56.5 -22t-56.5 22.5t-17.5 47.5q0 29 20.5 49t53.5 20t53.5 -19t20.5 -50zM252 80q30 0 53.5 13.5t30.5 23.5t10 17v86q-48 -4 -72.5 -7
t-50.5 -10.5t-36.5 -21t-10.5 -34.5q0 -67 76 -67zM180 331h-109l6 177h87l12 -30q61 40 129 40q87 0 137.5 -47.5t50.5 -147.5v-221l55 -4l-7 -98h-168l-19 49q-1 -3 -4 -7.5t-15 -16t-27.5 -20.5t-43 -16.5t-59.5 -7.5q-84 0 -132.5 41t-48.5 111q0 24 7.5 44.5t17.5 35.5
t30 28t35.5 22t43.5 16.5t45 11.5t49.5 8.5t47 6t46.5 4.5v10q0 53 -18.5 74.5t-61.5 21.5q-49 0 -79 -26z" />
    <glyph glyph-name="aring" unicode="&#xe5;" horiz-adv-x="561" 
d="M288 645q23 0 37 15t14 39t-15 39t-36 15q-23 0 -37.5 -15t-14.5 -39t14.5 -39t37.5 -15zM288 581q-55 0 -87 32.5t-32 85.5q0 51 33.5 84t85.5 33q50 0 84 -33t34 -84q0 -52 -33 -85t-85 -33zM252 80q30 0 53.5 13.5t30.5 23.5t10 17v86q-48 -4 -72.5 -7t-50.5 -10.5
t-36.5 -21t-10.5 -34.5q0 -67 76 -67zM180 331h-109l6 177h87l12 -30q61 40 129 40q87 0 137.5 -47.5t50.5 -147.5v-221l55 -4l-7 -98h-168l-19 49q-1 -3 -4 -7.5t-15 -16t-27.5 -20.5t-43 -16.5t-59.5 -7.5q-84 0 -132.5 41t-48.5 111q0 24 7.5 44.5t17.5 35.5t30 28
t35.5 22t43.5 16.5t45 11.5t49.5 8.5t47 6t46.5 4.5v10q0 53 -18.5 74.5t-61.5 21.5q-49 0 -79 -26z" />
    <glyph glyph-name="ae" unicode="&#xe6;" horiz-adv-x="841" 
d="M248 79q78 0 95 103q-4 24 -5 37q-44 -3 -68 -6t-48.5 -10.5t-35 -21t-10.5 -34.5q0 -68 72 -68zM593 416q-49 0 -75 -28t-33 -85h200q1 13 1 22q0 91 -93 91zM800 208h-314q17 -120 133 -120q35 0 66.5 14t45.5 28l14 13l67 -72q-2 -4 -7 -10t-23 -21.5t-39.5 -27.5
t-56.5 -21.5t-74 -9.5q-150 0 -221 90q-57 -90 -188 -90q-84 0 -131.5 41t-47.5 111q0 30 11.5 55t27.5 41.5t46 30t52 20.5t61.5 13.5t59 8.5t59.5 6q2 14 4 22q-2 46 -23 65t-63 19q-41 0 -72 -24l-7 -54h-109l6 172h86l12 -27q65 37 124 37q83 0 124 -54q67 54 170 54
q110 0 168.5 -57.5t58.5 -164.5q0 -23 -5 -45t-10 -33z" />
    <glyph glyph-name="ccedilla" unicode="&#xe7;" horiz-adv-x="503" 
d="M163 -214l20 53q30 -24 64 -24q45 0 45 40q0 17 -17.5 28t-35 16t-17.5 7l9 80q-103 15 -155 86t-52 186q0 121 63.5 190.5t173.5 69.5q51 0 108 -40l16 30h89l-2 -204h-110l-8 82q-30 30 -72 30q-53 0 -79 -35t-26 -121q0 -175 131 -175q32 0 63.5 15.5t46.5 31.5l15 15
l63 -70q-2 -4 -6.5 -10t-21 -22t-36.5 -28.5t-55 -23.5t-75 -12l-3 -36q0 -1 23.5 -8.5t46.5 -28t23 -54.5q0 -48 -29.5 -76.5t-84.5 -28.5q-37 0 -66 9.5t-39 18.5z" />
    <glyph glyph-name="egrave" unicode="&#xe8;" horiz-adv-x="528" 
d="M343 581l-98 -9l-139 139l138 17zM280 416q-49 0 -75 -28t-33 -85h200q1 13 1 22q0 91 -93 91zM487 208h-314q17 -120 133 -120q35 0 66.5 14t45.5 28l14 13l67 -72q-2 -4 -7 -10t-23 -21.5t-39.5 -27.5t-56.5 -21.5t-74 -9.5q-130 0 -202.5 69.5t-72.5 201.5
q0 128 70.5 197t185.5 69q110 0 168.5 -57.5t58.5 -164.5q0 -23 -5 -45t-10 -33z" />
    <glyph glyph-name="eacute" unicode="&#xe9;" horiz-adv-x="528" 
d="M314 572l-98 7l95 148l140 -16zM280 416q-49 0 -75 -28t-33 -85h200q1 13 1 22q0 91 -93 91zM487 208h-314q17 -120 133 -120q35 0 66.5 14t45.5 28l14 13l67 -72q-2 -4 -7 -10t-23 -21.5t-39.5 -27.5t-56.5 -21.5t-74 -9.5q-130 0 -202.5 69.5t-72.5 201.5
q0 128 70.5 197t185.5 69q110 0 168.5 -57.5t58.5 -164.5q0 -23 -5 -45t-10 -33z" />
    <glyph glyph-name="ecircumflex" unicode="&#xea;" horiz-adv-x="528" 
d="M404 579l-125 80l-124 -80l-45 82l131 92h78l130 -92zM280 416q-49 0 -75 -28t-33 -85h200q1 13 1 22q0 91 -93 91zM487 208h-314q17 -120 133 -120q35 0 66.5 14t45.5 28l14 13l67 -72q-2 -4 -7 -10t-23 -21.5t-39.5 -27.5t-56.5 -21.5t-74 -9.5q-130 0 -202.5 69.5
t-72.5 201.5q0 128 70.5 197t185.5 69q110 0 168.5 -57.5t58.5 -164.5q0 -23 -5 -45t-10 -33z" />
    <glyph glyph-name="edieresis" unicode="&#xeb;" horiz-adv-x="528" 
d="M245 652q0 -26 -17.5 -48t-56.5 -22t-56.5 22.5t-17.5 47.5q0 29 20.5 49t53.5 20t53.5 -19t20.5 -50zM458 652q0 -26 -17.5 -48t-56.5 -22t-56.5 22.5t-17.5 47.5q0 29 20.5 49t53.5 20t53.5 -19t20.5 -50zM280 416q-49 0 -75 -28t-33 -85h200q1 13 1 22q0 91 -93 91z
M487 208h-314q17 -120 133 -120q35 0 66.5 14t45.5 28l14 13l67 -72q-2 -4 -7 -10t-23 -21.5t-39.5 -27.5t-56.5 -21.5t-74 -9.5q-130 0 -202.5 69.5t-72.5 201.5q0 128 70.5 197t185.5 69q110 0 168.5 -57.5t58.5 -164.5q0 -23 -5 -45t-10 -33z" />
    <glyph glyph-name="igrave" unicode="&#xec;" horiz-adv-x="311" 
d="M222 581l-98 -9l-139 139l138 17zM282 0h-245l-7 104l56 6v280l-52 6l6 104h193v-398l55 -4z" />
    <glyph glyph-name="iacute" unicode="&#xed;" horiz-adv-x="311" 
d="M193 572l-98 7l95 148l140 -16zM282 0h-245l-7 104l56 6v280l-52 6l6 104h193v-398l55 -4z" />
    <glyph glyph-name="icircumflex" unicode="&#xee;" horiz-adv-x="311" 
d="M283 579l-125 80l-124 -80l-45 82l131 92h78l130 -92zM282 0h-245l-7 104l56 6v280l-52 6l6 104h193v-398l55 -4z" />
    <glyph glyph-name="idieresis" unicode="&#xef;" horiz-adv-x="311" 
d="M124 652q0 -26 -17.5 -48t-56.5 -22t-56.5 22.5t-17.5 47.5q0 29 20.5 49t53.5 20t53.5 -19t20.5 -50zM337 652q0 -26 -17.5 -48t-56.5 -22t-56.5 22.5t-17.5 47.5q0 29 20.5 49t53.5 20t53.5 -19t20.5 -50zM282 0h-245l-7 104l56 6v280l-52 6l6 104h193v-398l55 -4z" />
    <glyph glyph-name="eth" unicode="&#xf0;" horiz-adv-x="591" 
d="M293 416q-62 0 -89.5 -38t-27.5 -117q0 -178 117 -178t117 179q0 77 -27.5 115.5t-89.5 38.5zM24 261q0 124 68 190.5t192 66.5q72 0 136 -37q-26 75 -81 133l-108 -52l-25 52l88 42q-31 24 -54 37l57 66q51 -26 88 -58l88 43l25 -52l-69 -34q134 -150 134 -375
q0 -142 -70 -222t-200 -80q-123 0 -196 77t-73 203z" />
    <glyph glyph-name="ntilde" unicode="&#xf1;" horiz-adv-x="639" 
d="M492 709l18 -72q0 -2 -1.5 -5.5t-8 -12.5t-16 -16t-29.5 -12.5t-45 -5.5q-39 0 -96 25t-88 25q-20 0 -40.5 -7.5t-31.5 -15.5l-10 -8l-18 80l3 6t10.5 14.5t19.5 18t32.5 14t46.5 6.5q45 0 101.5 -26t83.5 -26q20 0 37 4.5t24 8.5zM282 0h-245l-7 104l56 6v280l-52 6
l6 104h174l12 -35h1l5.5 5.5t17.5 13t31 16.5t46 12.5t61 5.5q183 0 183 -168v-248l55 -4l-6 -98h-196v323q0 41 -20 58t-67 17q-29 0 -55 -9t-38 -18l-11 -9v-260l55 -4z" />
    <glyph glyph-name="ograve" unicode="&#xf2;" horiz-adv-x="586" 
d="M357 581l-98 -9l-139 139l138 17zM293 83q117 0 117 170q0 81 -27.5 122t-89.5 41q-117 0 -117 -163q0 -170 117 -170zM293 -19q-129 0 -199 73.5t-70 200.5q0 125 69.5 194t199.5 69t199.5 -69t69.5 -194t-72 -199.5t-197 -74.5z" />
    <glyph glyph-name="oacute" unicode="&#xf3;" horiz-adv-x="586" 
d="M327 572l-98 7l95 148l140 -16zM293 83q117 0 117 170q0 81 -27.5 122t-89.5 41q-117 0 -117 -163q0 -170 117 -170zM293 -19q-129 0 -199 73.5t-70 200.5q0 125 69.5 194t199.5 69t199.5 -69t69.5 -194t-72 -199.5t-197 -74.5z" />
    <glyph glyph-name="ocircumflex" unicode="&#xf4;" horiz-adv-x="586" 
d="M417 579l-125 80l-124 -80l-45 82l131 92h78l130 -92zM293 83q117 0 117 170q0 81 -27.5 122t-89.5 41q-117 0 -117 -163q0 -170 117 -170zM293 -19q-129 0 -199 73.5t-70 200.5q0 125 69.5 194t199.5 69t199.5 -69t69.5 -194t-72 -199.5t-197 -74.5z" />
    <glyph glyph-name="otilde" unicode="&#xf5;" horiz-adv-x="586" 
d="M469 709l18 -72q0 -2 -1.5 -5.5t-8 -12.5t-16 -16t-29.5 -12.5t-45 -5.5q-39 0 -96 25t-88 25q-20 0 -40.5 -7.5t-30.5 -15.5l-11 -8l-18 80l3 6t10.5 14.5t19.5 18t32.5 14t46.5 6.5q45 0 101.5 -26t83.5 -26q20 0 37 4.5t25 8.5zM293 83q117 0 117 170q0 81 -27.5 122
t-89.5 41q-117 0 -117 -163q0 -170 117 -170zM293 -19q-129 0 -199 73.5t-70 200.5q0 125 69.5 194t199.5 69t199.5 -69t69.5 -194t-72 -199.5t-197 -74.5z" />
    <glyph glyph-name="odieresis" unicode="&#xf6;" horiz-adv-x="586" 
d="M257 652q0 -26 -17.5 -48t-56.5 -22t-56.5 22.5t-17.5 47.5q0 29 20.5 49t53.5 20t53.5 -19t20.5 -50zM470 652q0 -26 -17.5 -48t-56.5 -22t-56.5 22.5t-17.5 47.5q0 29 20.5 49t53.5 20t53.5 -19t20.5 -50zM293 83q117 0 117 170q0 81 -27.5 122t-89.5 41
q-117 0 -117 -163q0 -170 117 -170zM293 -19q-129 0 -199 73.5t-70 200.5q0 125 69.5 194t199.5 69t199.5 -69t69.5 -194t-72 -199.5t-197 -74.5z" />
    <glyph glyph-name="divide" unicode="&#xf7;" horiz-adv-x="596" 
d="M564 211h-532v108h532v-108zM386 454q0 -34 -24.5 -57t-63.5 -23q-38 0 -63 22t-25 58q0 35 24 58t64 23t64 -23.5t24 -57.5zM385 76q0 -34 -24.5 -57t-63.5 -23q-38 0 -63 22t-25 58q0 35 24 58t64 23t64 -23.5t24 -57.5z" />
    <glyph glyph-name="oslash" unicode="&#xf8;" horiz-adv-x="591" 
d="M293 83q117 0 117 170q0 63 -16 101l-123 -270q7 -1 22 -1zM176 253q0 -76 23 -118l125 278q-15 3 -31 3q-117 0 -117 -163zM150 -183l-90 11l85 188q-121 67 -121 239q0 125 69.5 194t199.5 69q35 0 75 -7l63 139l92 -11l-72 -159q111 -65 111 -225q0 -125 -72 -199.5
t-197 -74.5q-36 0 -66 6z" />
    <glyph glyph-name="ugrave" unicode="&#xf9;" horiz-adv-x="632" 
d="M377 581l-98 -9l-139 139l138 17zM406 138v252l-52 6l7 104h193v-398l55 -4l-7 -98h-177l-11 34h-2l-5.5 -5.5t-17.5 -13t-31 -16.5t-46 -12.5t-61 -5.5q-88 0 -135.5 50t-47.5 140v219l-52 6l7 104h193v-302q0 -96 87 -96q29 0 55 9t37 18z" />
    <glyph glyph-name="uacute" unicode="&#xfa;" horiz-adv-x="632" 
d="M347 572l-98 7l95 148l140 -16zM406 138v252l-52 6l7 104h193v-398l55 -4l-7 -98h-177l-11 34h-2l-5.5 -5.5t-17.5 -13t-31 -16.5t-46 -12.5t-61 -5.5q-88 0 -135.5 50t-47.5 140v219l-52 6l7 104h193v-302q0 -96 87 -96q29 0 55 9t37 18z" />
    <glyph glyph-name="ucircumflex" unicode="&#xfb;" horiz-adv-x="632" 
d="M438 579l-125 80l-124 -80l-45 82l131 92h78l130 -92zM406 138v252l-52 6l7 104h193v-398l55 -4l-7 -98h-177l-11 34h-2l-5.5 -5.5t-17.5 -13t-31 -16.5t-46 -12.5t-61 -5.5q-88 0 -135.5 50t-47.5 140v219l-52 6l7 104h193v-302q0 -96 87 -96q29 0 55 9t37 18z" />
    <glyph glyph-name="udieresis" unicode="&#xfc;" horiz-adv-x="632" 
d="M279 652q0 -26 -17.5 -48t-56.5 -22t-56.5 22.5t-17.5 47.5q0 29 20.5 49t53.5 20t53.5 -19t20.5 -50zM492 652q0 -26 -17.5 -48t-56.5 -22t-56.5 22.5t-17.5 47.5q0 29 20.5 49t53.5 20t53.5 -19t20.5 -50zM406 138v252l-52 6l7 104h193v-398l55 -4l-7 -98h-177l-11 34
h-2l-5.5 -5.5t-17.5 -13t-31 -16.5t-46 -12.5t-61 -5.5q-88 0 -135.5 50t-47.5 140v219l-52 6l7 104h193v-302q0 -96 87 -96q29 0 55 9t37 18z" />
    <glyph glyph-name="yacute" unicode="&#xfd;" horiz-adv-x="562" 
d="M323 572l-98 7l95 148l140 -16zM5 -238l13 101q45 -16 81 -16q70 0 121 152l-164 392l-72 5l6 104h185l122 -341h2l79 233l-49 4v104h243v-104l-66 -6l-154 -410q-94 -249 -236 -249q-44 0 -72 8t-34 15z" />
    <glyph glyph-name="thorn" unicode="&#xfe;" horiz-adv-x="611" 
d="M312 410q-33 0 -58 -13t-32.5 -23t-10.5 -16v-233q3 -4 9 -10t30 -16.5t56 -10.5q130 0 130 180q0 79 -29 110.5t-95 31.5zM260 -250h-244l-7 104l55 6v780l-52 6l6 104h193v-278h5q4 5 13.5 12.5t46 20.5t81.5 13q105 0 168 -67t63 -180q0 -125 -66 -207.5t-174 -82.5
q-85 0 -137 37v-166l55 -4z" />
    <glyph glyph-name="ydieresis" unicode="&#xff;" horiz-adv-x="562" 
d="M254 652q0 -26 -17.5 -48t-56.5 -22t-56.5 22.5t-17.5 47.5q0 29 20.5 49t53.5 20t53.5 -19t20.5 -50zM467 652q0 -26 -17.5 -48t-56.5 -22t-56.5 22.5t-17.5 47.5q0 29 20.5 49t53.5 20t53.5 -19t20.5 -50zM5 -238l13 101q45 -16 81 -16q70 0 121 152l-164 392l-72 5
l6 104h185l122 -341h2l79 233l-49 4v104h243v-104l-66 -6l-154 -410q-94 -249 -236 -249q-44 0 -72 8t-34 15z" />
    <glyph glyph-name="Amacron" unicode="&#x100;" horiz-adv-x="726" 
d="M493 751h-246v74h246v-74zM355 531h-2l-88 -258h175zM256 0h-253l-6 104l70 5l198 541h200l197 -549l68 -3l-6 -98h-272v83l55 6l-35 89h-240l-32 -83l63 -5z" />
    <glyph glyph-name="amacron" unicode="&#x101;" horiz-adv-x="561" 
d="M418 616h-246v74h246v-74zM252 80q30 0 53.5 13.5t30.5 23.5t10 17v86q-48 -4 -72.5 -7t-50.5 -10.5t-36.5 -21t-10.5 -34.5q0 -67 76 -67zM180 331h-109l6 177h87l12 -30q61 40 129 40q87 0 137.5 -47.5t50.5 -147.5v-221l55 -4l-7 -98h-168l-19 49q-1 -3 -4 -7.5
t-15 -16t-27.5 -20.5t-43 -16.5t-59.5 -7.5q-84 0 -132.5 41t-48.5 111q0 24 7.5 44.5t17.5 35.5t30 28t35.5 22t43.5 16.5t45 11.5t49.5 8.5t47 6t46.5 4.5v10q0 53 -18.5 74.5t-61.5 21.5q-49 0 -79 -26z" />
    <glyph glyph-name="Abreve" unicode="&#x102;" horiz-adv-x="726" 
d="M363 793q33 0 54 13.5t25 26.5l4 13v3l120 -18q-1 -5 -2.5 -14t-14 -32t-32 -40t-60.5 -31.5t-94 -14.5t-93 13.5t-60 33t-32 39t-14 33.5l-3 13l121 18v-3q0 -2 1 -5.5t6.5 -13t13.5 -16.5t24 -12.5t36 -5.5zM355 531h-2l-88 -258h175zM256 0h-253l-6 104l70 5l198 541
h200l197 -549l68 -3l-6 -98h-272v83l55 6l-35 89h-240l-32 -83l63 -5z" />
    <glyph glyph-name="abreve" unicode="&#x103;" horiz-adv-x="561" 
d="M287 658q21 0 37.5 5.5t24.5 13t13 15.5t6 14l2 5v3l120 -18q-1 -5 -2.5 -14t-14 -32t-32 -40t-60.5 -31.5t-94 -14.5t-93 13.5t-60 33t-32 39t-14 32.5l-3 14l121 18v-3q0 -2 1 -5.5t6.5 -13t13.5 -16.5t24 -12.5t36 -5.5zM252 80q30 0 53.5 13.5t30.5 23.5t10 17v86
q-48 -4 -72.5 -7t-50.5 -10.5t-36.5 -21t-10.5 -34.5q0 -67 76 -67zM180 331h-109l6 177h87l12 -30q61 40 129 40q87 0 137.5 -47.5t50.5 -147.5v-221l55 -4l-7 -98h-168l-19 49q-1 -3 -4 -7.5t-15 -16t-27.5 -20.5t-43 -16.5t-59.5 -7.5q-84 0 -132.5 41t-48.5 111
q0 24 7.5 44.5t17.5 35.5t30 28t35.5 22t43.5 16.5t45 11.5t49.5 8.5t47 6t46.5 4.5v10q0 53 -18.5 74.5t-61.5 21.5q-49 0 -79 -26z" />
    <glyph glyph-name="Aogonek" unicode="&#x104;" horiz-adv-x="726" 
d="M355 531h-2l-88 -258h175zM697 -177v-73q-197 0 -197 132q0 67 78 118h-126v83l55 6l-35 89h-240l-32 -83l63 -5l-7 -90h-253l-6 104l70 5l198 541h200l197 -549l68 -3l-6 -98h-24q-4 -1 -12 -4t-23.5 -12t-28 -21t-22.5 -33t-10 -46q0 -35 23.5 -48t69.5 -13z" />
    <glyph glyph-name="aogonek" unicode="&#x105;" horiz-adv-x="561" 
d="M252 80q30 0 53.5 13.5t30.5 23.5t10 17v86q-48 -4 -72.5 -7t-50.5 -10.5t-36.5 -21t-10.5 -34.5q0 -67 76 -67zM487 -177v-73q-197 0 -197 132q0 71 82 120l-18 47q-1 -3 -4 -7.5t-15 -16t-27.5 -20.5t-43 -16.5t-59.5 -7.5q-84 0 -132.5 41t-48.5 111q0 24 7.5 44.5
t17.5 35.5t30 28t35.5 22t43.5 16.5t45 11.5t49.5 8.5t47 6t46.5 4.5v10q0 53 -18.5 74.5t-61.5 21.5q-49 0 -79 -26l-7 -59h-109l6 177h87l12 -30q61 40 129 40q87 0 137.5 -47.5t50.5 -147.5v-221l55 -4l-7 -98h-50q-4 -1 -10.5 -3.5t-23 -11.5t-29.5 -21t-23.5 -33.5
t-10.5 -46.5q0 -35 23.5 -48t69.5 -13z" />
    <glyph glyph-name="Cacute" unicode="&#x106;" horiz-adv-x="665" 
d="M412 707l-98 7l95 148l140 -16zM611 401h-118l-11 117q-44 31 -99 31q-82 0 -133 -56t-51 -160q0 -106 52.5 -169t147.5 -63q34 0 67.5 10t57 23.5t42.5 27.5t28 24l9 10l57 -94q-3 -5 -10 -13t-31.5 -29t-53.5 -37t-77.5 -29t-103.5 -13q-172 0 -258 96t-86 256
q0 150 91 242t230 92q74 0 140 -44l22 34h88v-256z" />
    <glyph glyph-name="cacute" unicode="&#x107;" horiz-adv-x="503" 
d="M331 572l-98 7l95 148l140 -16zM472 304h-110l-8 82q-30 30 -72 30q-53 0 -79 -35t-26 -121q0 -175 131 -175q32 0 63.5 15.5t46.5 31.5l15 15l63 -70q-2 -4 -6.5 -10.5t-22 -23t-38.5 -29t-58 -23t-79 -10.5q-133 0 -200.5 73t-67.5 204q0 121 63.5 190.5t173.5 69.5
q51 0 108 -40l16 30h89z" />
    <glyph glyph-name="Ccaron" unicode="&#x10c;" horiz-adv-x="665" 
d="M550 799l-132 -92h-78l-133 92l46 83l125 -82l127 82zM611 401h-118l-11 117q-44 31 -99 31q-82 0 -133 -56t-51 -160q0 -106 52.5 -169t147.5 -63q34 0 67.5 10t57 23.5t42.5 27.5t28 24l9 10l57 -94q-3 -5 -10 -13t-31.5 -29t-53.5 -37t-77.5 -29t-103.5 -13
q-172 0 -258 96t-86 256q0 150 91 242t230 92q74 0 140 -44l22 34h88v-256z" />
    <glyph glyph-name="ccaron" unicode="&#x10d;" horiz-adv-x="503" 
d="M468 664l-132 -92h-78l-133 92l46 83l125 -82l127 82zM472 304h-110l-8 82q-30 30 -72 30q-53 0 -79 -35t-26 -121q0 -175 131 -175q32 0 63.5 15.5t46.5 31.5l15 15l63 -70q-2 -4 -6.5 -10.5t-22 -23t-38.5 -29t-58 -23t-79 -10.5q-133 0 -200.5 73t-67.5 204
q0 121 63.5 190.5t173.5 69.5q51 0 108 -40l16 30h89z" />
    <glyph glyph-name="Dcaron" unicode="&#x10e;" horiz-adv-x="766" 
d="M522 799l-132 -92h-78l-133 92l46 83l125 -82l127 82zM371 531h-107v-412h109q101 0 148 53t47 162q0 107 -46.5 152t-150.5 45zM41 0l-6 104l75 6v437l-76 6l7 97h330q357 0 357 -316q0 -160 -90.5 -247t-265.5 -87h-331z" />
    <glyph glyph-name="dcaron" unicode="&#x10f;" 
d="M678 542l-84 13q27 54 27 130q0 30 -4 50l11 65l101 -14q-12 -161 -51 -244zM299 90q64 0 102 51v233q-3 4 -10 10t-32 16.5t-54 10.5q-68 0 -98.5 -37.5t-30.5 -119.5q0 -164 123 -164zM596 0h-177l-12 35q-5 -6 -14.5 -15t-49 -24t-89.5 -15q-103 0 -167 76.5
t-64 192.5q0 124 61.5 196t169.5 72q44 0 79.5 -9t48.5 -18l14 -9h5v158l-53 6l7 104h192v-648l55 -4z" />
    <glyph glyph-name="Dcroat" unicode="&#x110;" horiz-adv-x="766" 
d="M371 531h-107v-162h147v-94h-147v-156h109q101 0 148 53t47 162q0 107 -46.5 152t-150.5 45zM41 0l-6 104l75 6v165h-90v94h90v178l-76 6l7 97h330q357 0 357 -316q0 -160 -90.5 -247t-265.5 -87h-331z" />
    <glyph glyph-name="dcroat" unicode="&#x111;" 
d="M299 90q31 0 56.5 13t35.5 26l10 13v232q-3 4 -10 10t-32 16.5t-54 10.5q-129 0 -129 -168q0 -81 29.5 -117t93.5 -36zM596 0h-179l-11 34q-6 -8 -17 -17t-49 -22.5t-86 -13.5q-104 0 -167.5 71.5t-63.5 186.5q0 125 62 202t169 77q44 0 79.5 -9t48.5 -18l14 -9h5v111
h-113v96h113v61h146v-61h76v-84l-71 -12h-5v-477l55 -5z" />
    <glyph glyph-name="Emacron" unicode="&#x112;" horiz-adv-x="622" 
d="M462 751h-246v74h246v-74zM566 473h-118l-5 63h-179v-154l262 1v-110h-262v-159h198l11 72l111 -7l-7 -179h-536l-6 104l75 6v437l-76 6l7 97h395l130 7v-184z" />
    <glyph glyph-name="emacron" unicode="&#x113;" horiz-adv-x="528" 
d="M410 616h-246v74h246v-74zM280 416q-49 0 -75 -28t-33 -85h200q1 13 1 22q0 91 -93 91zM487 208h-314q17 -120 133 -120q35 0 66.5 14t45.5 28l14 13l67 -72q-2 -4 -7 -10t-23 -21.5t-39.5 -27.5t-56.5 -21.5t-74 -9.5q-130 0 -202.5 69.5t-72.5 201.5q0 128 70.5 197
t185.5 69q110 0 168.5 -57.5t58.5 -164.5q0 -23 -5 -45t-10 -33z" />
    <glyph glyph-name="Edotaccent" unicode="&#x116;" horiz-adv-x="622" 
d="M416 786q0 -35 -22.5 -56.5t-61.5 -21.5t-62.5 22.5t-23.5 56.5t22.5 56t62.5 22q41 0 63 -22.5t22 -56.5zM566 473h-118l-5 63h-179v-154l262 1v-110h-262v-159h198l11 72l111 -7l-7 -179h-536l-6 104l75 6v437l-76 6l7 97h395l130 7v-184z" />
    <glyph glyph-name="edotaccent" unicode="&#x117;" horiz-adv-x="528" 
d="M364 651q0 -35 -22.5 -56.5t-61.5 -21.5t-62.5 22.5t-23.5 56.5t22.5 56t62.5 22q41 0 63 -22.5t22 -56.5zM280 416q-49 0 -75 -28t-33 -85h200q1 13 1 22q0 91 -93 91zM487 208h-314q17 -120 133 -120q35 0 66.5 14t45.5 28l14 13l67 -72q-2 -4 -7 -10t-23 -21.5
t-39.5 -27.5t-56.5 -21.5t-74 -9.5q-130 0 -202.5 69.5t-72.5 201.5q0 128 70.5 197t185.5 69q110 0 168.5 -57.5t58.5 -164.5q0 -23 -5 -45t-10 -33z" />
    <glyph glyph-name="Eogonek" unicode="&#x118;" horiz-adv-x="622" 
d="M570 -177v-73q-197 0 -197 132q0 67 78 118h-410l-6 104l75 6v437l-76 6l7 97h395l130 7v-184h-118l-5 63h-179v-154l262 1v-110h-262v-159h198l11 72l111 -7l-7 -179h-4q-4 -1 -12 -4t-23.5 -12t-28 -21t-22.5 -33t-10 -46q0 -35 23.5 -48t69.5 -13z" />
    <glyph glyph-name="eogonek" unicode="&#x119;" horiz-adv-x="528" 
d="M280 416q-49 0 -75 -28t-33 -85h200q1 13 1 22q0 91 -93 91zM388 -177v-73q-197 0 -197 132q0 58 56 103q-106 13 -164.5 81t-58.5 186q0 128 70.5 197t185.5 69q110 0 168.5 -57.5t58.5 -164.5q0 -23 -5 -45t-10 -33l-5 -10h-314q17 -120 133 -120q35 0 66.5 14t45.5 28
l14 13l67 -72q-5 -7 -14.5 -18t-45 -33.5t-76.5 -31.5q-68 -33 -68 -104q0 -35 23.5 -48t69.5 -13z" />
    <glyph glyph-name="Ecaron" unicode="&#x11a;" horiz-adv-x="622" 
d="M503 799l-132 -92h-78l-133 92l46 83l125 -82l127 82zM566 473h-118l-5 63h-179v-154l262 1v-110h-262v-159h198l11 72l111 -7l-7 -179h-536l-6 104l75 6v437l-76 6l7 97h395l130 7v-184z" />
    <glyph glyph-name="ecaron" unicode="&#x11b;" horiz-adv-x="528" 
d="M451 664l-132 -92h-78l-133 92l46 83l125 -82l127 82zM280 416q-49 0 -75 -28t-33 -85h200q1 13 1 22q0 91 -93 91zM487 208h-314q17 -120 133 -120q35 0 66.5 14t45.5 28l14 13l67 -72q-2 -4 -7 -10t-23 -21.5t-39.5 -27.5t-56.5 -21.5t-74 -9.5q-130 0 -202.5 69.5
t-72.5 201.5q0 128 70.5 197t185.5 69q110 0 168.5 -57.5t58.5 -164.5q0 -23 -5 -45t-10 -33z" />
    <glyph glyph-name="Gbreve" unicode="&#x11e;" horiz-adv-x="718" 
d="M399 793q33 0 54 13.5t25 26.5l4 13v3l120 -18q-1 -5 -2.5 -14t-14 -32t-32 -40t-60.5 -31.5t-94 -14.5t-93 13.5t-60 33t-32 39t-14 33.5l-3 13l121 18v-3q0 -2 1 -5.5t6.5 -13t13.5 -16.5t24 -12.5t36 -5.5zM609 431h-111l-10 86q-44 32 -104 32q-98 0 -142 -54
t-44 -162t51.5 -170t134.5 -62q112 0 136 71v60h-121v96h252v-328h-87l-16 51q-72 -70 -197 -70q-150 0 -231 95.5t-81 257.5q0 153 91 243t238 90q60 0 136 -44l17 34h88v-226z" />
    <glyph glyph-name="gbreve" unicode="&#x11f;" horiz-adv-x="542" 
d="M256 658q21 0 37.5 5.5t24.5 13t13 15.5t7 14l1 5v3l120 -18q-1 -5 -2.5 -14t-14 -32t-32 -40t-60.5 -31.5t-94 -14.5t-93 13.5t-60 33t-32 39t-15 32.5l-2 14l121 18v-3q0 -2 1 -5.5t6.5 -13t13.5 -16.5t24 -12.5t36 -5.5zM271 418q-89 0 -89 -84q0 -47 23.5 -71.5
t63.5 -24.5q39 0 62 25t23 74q0 81 -83 81zM399 -91q0 20 -10.5 31.5t-31.5 16t-42.5 6t-53 3.5t-54.5 6q-51 -15 -51 -57q0 -35 31 -57t92 -22q120 0 120 73zM534 394l-45 -3q8 -27 8 -57q0 -90 -63 -140.5t-161 -50.5h-8t-17.5 -1.5t-22 -4.5t-17.5 -9t-8 -14
q0 -11 7 -18.5t34.5 -13t77.5 -6.5q108 -3 163.5 -39t55.5 -114q0 -86 -63.5 -139t-195.5 -53q-134 0 -196.5 51.5t-62.5 132.5q0 86 82 121q-17 28 -17 71q0 44 40 75q-85 52 -85 152q0 91 69.5 137.5t169.5 46.5q76 0 129 -28l119 10z" />
    <glyph glyph-name="Gcommaaccent" unicode="&#x122;" horiz-adv-x="718" 
d="M370 -48q14 0 27.5 -5t20.5 -10.5t7 -8.5q28 -32 28 -78q0 -51 -31.5 -104t-82.5 -87l-43 39q64 50 64 108q0 15 -2 22q-26 4 -41 20.5t-15 40.5q0 28 20 45.5t48 17.5zM609 431h-111l-10 86q-44 32 -104 32q-98 0 -142 -54t-44 -162t51.5 -170t134.5 -62q112 0 136 71
v60h-121v96h252v-328h-87l-16 51q-72 -70 -197 -70q-150 0 -231 95.5t-81 257.5q0 153 91 243t238 90q60 0 136 -44l17 34h88v-226z" />
    <glyph glyph-name="gcommaaccent" unicode="&#x123;" horiz-adv-x="542" 
d="M265 563q-14 0 -27.5 5t-20.5 10.5t-7 8.5q-28 32 -28 78q0 51 31.5 104t82.5 87l43 -39q-64 -50 -64 -108q0 -15 2 -22q26 -4 41 -20.5t15 -40.5q0 -28 -20 -45.5t-48 -17.5zM271 418q-89 0 -89 -84q0 -47 23.5 -71.5t63.5 -24.5q39 0 62 25t23 74q0 81 -83 81zM399 -91
q0 20 -10.5 31.5t-31.5 16t-42.5 6t-53 3.5t-54.5 6q-51 -15 -51 -57q0 -35 31 -57t92 -22q120 0 120 73zM534 394l-45 -3q8 -27 8 -57q0 -90 -63 -140.5t-161 -50.5h-8t-17.5 -1.5t-22 -4.5t-17.5 -9t-8 -14q0 -11 7 -18.5t34.5 -13t77.5 -6.5q108 -3 163.5 -39t55.5 -114
q0 -86 -63.5 -139t-195.5 -53q-134 0 -196.5 51.5t-62.5 132.5q0 86 82 121q-17 28 -17 71q0 44 40 75q-85 52 -85 152q0 91 69.5 137.5t169.5 46.5q76 0 129 -28l119 10z" />
    <glyph glyph-name="uni012A" unicode="&#x12a;" horiz-adv-x="374" 
d="M315 751h-246v74h246v-74zM334 0h-293l-6 104l75 6v437l-76 6l7 97h293v-104l-70 -6v-438l76 -4z" />
    <glyph glyph-name="imacron" unicode="&#x12b;" horiz-adv-x="311" 
d="M289 616h-246v74h246v-74zM282 0h-245l-7 104l56 6v280l-52 6l6 104h193v-398l55 -4z" />
    <glyph glyph-name="Iogonek" unicode="&#x12e;" horiz-adv-x="374" 
d="M260 -177v-73q-197 0 -197 132q0 67 78 118h-100l-6 104l75 6v437l-76 6l7 97h293v-104l-70 -6v-438l76 -4l-6 -98h-70q-4 -1 -10.5 -3.5t-23 -11.5t-29.5 -21t-23.5 -33.5t-10.5 -46.5q0 -35 23.5 -48t69.5 -13z" />
    <glyph glyph-name="iogonek" unicode="&#x12f;" horiz-adv-x="311" 
d="M243 651q0 -35 -22.5 -56.5t-61.5 -21.5t-62.5 22.5t-23.5 56.5t22.5 56t62.5 22q41 0 63 -22.5t22 -56.5zM228 -177v-73q-197 0 -197 132q0 67 78 118h-72l-7 104l56 6v280l-52 6l6 104h193v-398l55 -4l-6 -98h-50q-4 -1 -10.5 -3.5t-23 -11.5t-29.5 -21t-23.5 -33.5
t-10.5 -46.5q0 -35 23.5 -48t69.5 -13z" />
    <glyph glyph-name="Idotaccent" unicode="&#x130;" horiz-adv-x="374" 
d="M272 786q0 -35 -22.5 -56.5t-61.5 -21.5t-62.5 22.5t-23.5 56.5t22.5 56t62.5 22q41 0 63 -22.5t22 -56.5zM334 0h-293l-6 104l75 6v437l-76 6l7 97h293v-104l-70 -6v-438l76 -4z" />
    <glyph glyph-name="dotlessi" unicode="&#x131;" horiz-adv-x="311" 
d="M282 0h-245l-7 104l56 6v280l-52 6l6 104h193v-398l55 -4z" />
    <glyph glyph-name="Kcommaaccent" unicode="&#x136;" horiz-adv-x="748" 
d="M359 -48q14 0 27.5 -5t20.5 -10.5t7 -8.5q28 -32 28 -78q0 -51 -31.5 -104t-82.5 -87l-43 39q64 50 64 108q0 15 -2 22q-26 4 -41 20.5t-15 40.5q0 28 20 45.5t48 17.5zM334 0h-293l-6 104l75 6v437l-76 6l7 97h279v-90l-56 -6v-187l65 29l135 162l-19 2v90h273v-104
l-116 -5l-160 -188l194 -246l113 -3l-7 -104h-209l-44 35l-166 225l-59 -35v-116l76 -5z" />
    <glyph glyph-name="kcommaaccent" unicode="&#x137;" horiz-adv-x="585" 
d="M307 -48q14 0 27.5 -5t20.5 -10.5t7 -8.5q28 -32 28 -78q0 -51 -31.5 -104t-82.5 -87l-43 39q64 50 64 108q0 15 -2 22q-26 4 -41 20.5t-15 40.5q0 28 20 45.5t48 17.5zM260 0h-231l-6 104l55 6v530l-52 6l7 104h192v-448l67 29l42 69l-21 3l6 97h234v-104l-100 -14
l-73 -101l106 -167l97 -3l-7 -111h-171l-40 40l-110 175l-30 -13v-106l42 -5z" />
    <glyph glyph-name="Lacute" unicode="&#x139;" horiz-adv-x="571" 
d="M214 707l-98 7l95 148l140 -16zM41 0l-6 104l75 6v437l-76 6l7 97h293v-104l-70 -6v-426h182l12 79l111 -6l-7 -187h-521z" />
    <glyph glyph-name="lacute" unicode="&#x13a;" horiz-adv-x="303" 
d="M204 797l-98 7l95 148l140 -16zM274 0h-245l-6 104l55 6v530l-52 6l7 104h192v-648l56 -4z" />
    <glyph glyph-name="Lcommaaccent" unicode="&#x13b;" horiz-adv-x="571" 
d="M309 -48q14 0 27.5 -5t20.5 -10.5t7 -8.5q28 -32 28 -78q0 -51 -31.5 -104t-82.5 -87l-43 39q64 50 64 108q0 15 -2 22q-26 4 -41 20.5t-15 40.5q0 28 20 45.5t48 17.5zM41 0l-6 104l75 6v437l-76 6l7 97h293v-104l-70 -6v-426h182l12 79l111 -6l-7 -187h-521z" />
    <glyph glyph-name="lcommaaccent" unicode="&#x13c;" horiz-adv-x="303" 
d="M153 -48q14 0 27.5 -5t20.5 -10.5t7 -8.5q28 -32 28 -78q0 -51 -31.5 -104t-82.5 -87l-43 39q64 50 64 108q0 15 -2 22q-26 4 -41 20.5t-15 40.5q0 28 20 45.5t48 17.5zM274 0h-245l-6 104l55 6v530l-52 6l7 104h192v-648l56 -4z" />
    <glyph glyph-name="Lcaron" unicode="&#x13d;" horiz-adv-x="571" 
d="M364 799l-132 -92h-78l-133 92l46 83l125 -82l127 82zM41 0l-6 104l75 6v437l-76 6l7 97h293v-104l-70 -6v-426h182l12 79l111 -6l-7 -187h-521z" />
    <glyph glyph-name="lcaron" unicode="&#x13e;" horiz-adv-x="303" 
d="M358 542l-84 13q27 54 27 130q0 30 -4 50l11 65l101 -14q-12 -161 -51 -244zM274 0h-245l-6 104l55 6v530l-52 6l7 104h192v-648l56 -4z" />
    <glyph glyph-name="Lslash" unicode="&#x141;" horiz-adv-x="591" 
d="M58 0l-6 104l75 6v116l-60 -35l-38 60l98 57v239l-76 6l7 97h293v-104l-70 -6v-143l114 67l37 -61l-151 -88v-201h182l12 79l111 -6l-7 -187h-521z" />
    <glyph glyph-name="lslash" unicode="&#x142;" horiz-adv-x="360" 
d="M306 0h-245l-6 104l55 6v182l-63 -40l-38 59l101 65v264l-52 6l7 104h192v-279l71 46l38 -59l-109 -71v-285l56 -4z" />
    <glyph glyph-name="Nacute" unicode="&#x143;" horiz-adv-x="811" 
d="M441 707l-98 7l95 148l140 -16zM716 -3l-155 -1l-316 436h-3l5 -59v-264l79 -5l-7 -104h-278l-6 104l75 6v437l-76 6l7 97h228l311 -445h2l-4 45v291l-79 5l7 104h279v-104l-69 -6v-543z" />
    <glyph glyph-name="nacute" unicode="&#x144;" horiz-adv-x="639" 
d="M349 572l-98 7l95 148l140 -16zM282 0h-245l-7 104l56 6v280l-52 6l6 104h174l12 -35h1l5.5 5.5t17.5 13t31 16.5t46 12.5t61 5.5q183 0 183 -168v-248l55 -4l-6 -98h-196v323q0 41 -20 58t-67 17q-29 0 -55 -9t-38 -18l-11 -9v-260l55 -4z" />
    <glyph glyph-name="Ncommaaccent" unicode="&#x145;" horiz-adv-x="811" 
d="M400 -48q14 0 27.5 -5t20.5 -10.5t7 -8.5q28 -32 28 -78q0 -51 -31.5 -104t-82.5 -87l-43 39q64 50 64 108q0 15 -2 22q-26 4 -41 20.5t-15 40.5q0 28 20 45.5t48 17.5zM716 -3l-155 -1l-316 436h-3l5 -59v-264l79 -5l-7 -104h-278l-6 104l75 6v437l-76 6l7 97h228
l311 -445h2l-4 45v291l-79 5l7 104h279v-104l-69 -6v-543z" />
    <glyph glyph-name="ncommaaccent" unicode="&#x146;" horiz-adv-x="639" 
d="M332 -48q14 0 27.5 -5t20.5 -10.5t7 -8.5q28 -32 28 -78q0 -51 -31.5 -104t-82.5 -87l-43 39q64 50 64 108q0 15 -2 22q-26 4 -41 20.5t-15 40.5q0 28 20 45.5t48 17.5zM282 0h-245l-7 104l56 6v280l-52 6l6 104h174l12 -35h1l5.5 5.5t17.5 13t31 16.5t46 12.5t61 5.5
q183 0 183 -168v-248l55 -4l-6 -98h-196v323q0 41 -20 58t-67 17q-29 0 -55 -9t-38 -18l-11 -9v-260l55 -4z" />
    <glyph glyph-name="Ncaron" unicode="&#x147;" horiz-adv-x="811" 
d="M608 799l-132 -92h-78l-133 92l46 83l125 -82l127 82zM716 -3l-155 -1l-316 436h-3l5 -59v-264l79 -5l-7 -104h-278l-6 104l75 6v437l-76 6l7 97h228l311 -445h2l-4 45v291l-79 5l7 104h279v-104l-69 -6v-543z" />
    <glyph glyph-name="ncaron" unicode="&#x148;" horiz-adv-x="639" 
d="M487 664l-132 -92h-78l-133 92l46 83l125 -82l127 82zM282 0h-245l-7 104l56 6v280l-52 6l6 104h174l12 -35h1l5.5 5.5t17.5 13t31 16.5t46 12.5t61 5.5q183 0 183 -168v-248l55 -4l-6 -98h-196v323q0 41 -20 58t-67 17q-29 0 -55 -9t-38 -18l-11 -9v-260l55 -4z" />
    <glyph glyph-name="Omacron" unicode="&#x14c;" horiz-adv-x="761" 
d="M509 751h-246v74h246v-74zM564 335q0 103 -47.5 158.5t-137.5 55.5q-89 0 -135 -55.5t-46 -158.5q0 -106 46.5 -171t134.5 -65q89 0 137 65t48 171zM724 335q0 -157 -91.5 -255.5t-253.5 -98.5q-161 0 -250.5 98t-89.5 256q0 155 88 243.5t252 88.5q165 0 255 -88.5
t90 -243.5z" />
    <glyph glyph-name="omacron" unicode="&#x14d;" horiz-adv-x="586" 
d="M423 616h-246v74h246v-74zM293 83q117 0 117 170q0 81 -27.5 122t-89.5 41q-117 0 -117 -163q0 -170 117 -170zM293 -19q-129 0 -199 73.5t-70 200.5q0 125 69.5 194t199.5 69t199.5 -69t69.5 -194t-72 -199.5t-197 -74.5z" />
    <glyph glyph-name="Ohungarumlaut" unicode="&#x150;" horiz-adv-x="761" 
d="M515 716l-108 10l90 184l83 -33zM336 716l-107 10l89 184l84 -33zM564 335q0 103 -47.5 158.5t-137.5 55.5q-89 0 -135 -55.5t-46 -158.5q0 -106 46.5 -171t134.5 -65q89 0 137 65t48 171zM724 335q0 -157 -91.5 -255.5t-253.5 -98.5q-161 0 -250.5 98t-89.5 256
q0 155 88 243.5t252 88.5q165 0 255 -88.5t90 -243.5z" />
    <glyph glyph-name="ohungarumlaut" unicode="&#x151;" horiz-adv-x="586" 
d="M429 581l-108 10l90 184l83 -33zM250 581l-107 10l89 184l84 -33zM293 83q117 0 117 170q0 81 -27.5 122t-89.5 41q-117 0 -117 -163q0 -170 117 -170zM293 -19q-129 0 -199 73.5t-70 200.5q0 125 69.5 194t199.5 69t199.5 -69t69.5 -194t-72 -199.5t-197 -74.5z" />
    <glyph glyph-name="OE" unicode="&#x152;" horiz-adv-x="1078" 
d="M564 335q0 103 -47.5 158.5t-137.5 55.5q-89 0 -135 -55.5t-46 -158.5q0 -106 46.5 -171t134.5 -65q89 0 137 65t48 171zM1022 473h-118l-5 63h-180v-132l2 -22l260 1v-110h-261q-1 -3 -1 -9v-150h198l11 72l112 -7l-8 -179h-467v26q-79 -45 -186 -45q-161 0 -250.5 98
t-89.5 256q0 155 88 243.5t252 88.5q108 0 186 -40v23h326l131 7v-184z" />
    <glyph glyph-name="oe" unicode="&#x153;" horiz-adv-x="916" 
d="M668 416q-49 0 -75 -28t-33 -85h200q1 13 1 22q0 91 -93 91zM293 83q117 0 117 170q0 81 -27.5 122t-89.5 41q-117 0 -117 -163q0 -170 117 -170zM875 208h-314q17 -120 133 -120q35 0 66.5 14t45.5 28l14 13l67 -72q-2 -4 -7 -10t-23 -21.5t-39.5 -27.5t-56.5 -21.5
t-74 -9.5q-131 0 -202 69q-72 -69 -192 -69q-129 0 -199 73.5t-70 200.5q0 125 69.5 194t199.5 69q124 0 194 -64q68 64 181 64q110 0 168.5 -57.5t58.5 -164.5q0 -23 -5 -45t-10 -33z" />
    <glyph glyph-name="Racute" unicode="&#x154;" horiz-adv-x="665" 
d="M359 707l-98 7l95 148l140 -16zM308 543h-55v-220h84q42 0 71.5 32.5t29.5 85.5q0 54 -31 78t-99 24zM310 0h-269l-6 104l75 13v430l-76 6l7 97h293q127 0 195 -50.5t68 -149.5q0 -66 -34.5 -118t-90.5 -84l95 -142l101 -2l-7 -104h-190l-36 32l-108 181h-74v-117l64 -5z
" />
    <glyph glyph-name="racute" unicode="&#x155;" horiz-adv-x="465" 
d="M272 572l-98 7l95 148l140 -16zM297 0h-260l-7 104l56 6v280l-61 6l7 104h168l15 -60h3q2 3 5 8.5t14.5 19t25 24t36 19t47.5 8.5q27 0 51.5 -5t35.5 -10l11 -4l1 -182h-105l-8 86h-15q-27 0 -48 -14t-27 -23.5t-9 -17.5v-247l70 -4z" />
    <glyph glyph-name="Rcommaaccent" unicode="&#x156;" horiz-adv-x="665" 
d="M347 -48q14 0 27.5 -5t20.5 -10.5t7 -8.5q28 -32 28 -78q0 -51 -31.5 -104t-82.5 -87l-43 39q64 50 64 108q0 15 -2 22q-26 4 -41 20.5t-15 40.5q0 28 20 45.5t48 17.5zM308 543h-55v-220h84q42 0 71.5 32.5t29.5 85.5q0 54 -31 78t-99 24zM310 0h-269l-6 104l75 13v430
l-76 6l7 97h293q127 0 195 -50.5t68 -149.5q0 -66 -34.5 -118t-90.5 -84l95 -142l101 -2l-7 -104h-190l-36 32l-108 181h-74v-117l64 -5z" />
    <glyph glyph-name="rcommaaccent" unicode="&#x157;" horiz-adv-x="465" 
d="M156 -48q14 0 27.5 -5t20.5 -10.5t7 -8.5q28 -32 28 -78q0 -51 -31.5 -104t-82.5 -87l-43 39q64 50 64 108q0 15 -2 22q-26 4 -41 20.5t-15 40.5q0 28 20 45.5t48 17.5zM297 0h-260l-7 104l56 6v280l-61 6l7 104h168l15 -60h3q2 3 5 8.5t14.5 19t25 24t36 19t47.5 8.5
q27 0 51.5 -5t35.5 -10l11 -4l1 -182h-105l-8 86h-15q-27 0 -48 -14t-27 -23.5t-9 -17.5v-247l70 -4z" />
    <glyph glyph-name="Rcaron" unicode="&#x158;" horiz-adv-x="665" 
d="M497 799l-132 -92h-78l-133 92l46 83l125 -82l127 82zM308 543h-55v-220h84q42 0 71.5 32.5t29.5 85.5q0 54 -31 78t-99 24zM334 650q127 0 195 -50.5t68 -149.5q0 -66 -34.5 -118t-90.5 -84l95 -142l101 -2l-7 -104h-190l-36 32l-108 181h-74v-117l64 -5l-7 -91h-269
l-6 104l75 13v430l-76 6l7 97h293z" />
    <glyph glyph-name="rcaron" unicode="&#x159;" horiz-adv-x="465" 
d="M410 664l-132 -92h-78l-133 92l46 83l125 -82l127 82zM297 0h-260l-7 104l56 6v280l-61 6l7 104h168l15 -60h3q2 3 5 8.5t14.5 19t25 24t36 19t47.5 8.5q27 0 51.5 -5t35.5 -10l11 -4l1 -182h-105l-8 86h-15q-27 0 -48 -14t-27 -23.5t-9 -17.5v-247l70 -4z" />
    <glyph glyph-name="Sacute" unicode="&#x15a;" horiz-adv-x="578" 
d="M344 707l-98 7l95 148l140 -16zM517 467h-117l-7 64q-42 30 -84 30q-44 0 -68 -20.5t-24 -57.5q0 -31 34 -54t82.5 -40t97.5 -38.5t83 -61.5t34 -97q0 -100 -67.5 -155.5t-188.5 -55.5q-64 0 -121 10.5t-82 20.5l-25 10l-3 182l110 7l13 -107q49 -14 92 -14q120 0 120 82
q0 25 -24.5 44t-61 30.5t-79.5 29.5t-79.5 39t-61 60.5t-24.5 91.5q0 87 61 143.5t158 56.5q59 0 125 -42l20 32h87v-190z" />
    <glyph glyph-name="sacute" unicode="&#x15b;" horiz-adv-x="467" 
d="M277 572l-98 7l95 148l140 -16zM426 347h-96l-8 45q-36 27 -78 27q-28 0 -46 -11t-18 -31q0 -21 27.5 -36.5t66 -28.5t77.5 -29.5t66.5 -49t27.5 -77.5q0 -81 -57 -128t-179 -47q-44 0 -85.5 6.5t-61.5 12.5l-19 6l-13 150l90 6l10 -71q40 -10 75 -10q89 0 89 57
q0 19 -19 32.5t-48 21.5t-62.5 21t-62.5 28.5t-48 46t-19 72.5q0 72 53.5 115t133.5 43q59 0 117 -37l16 27h72z" />
    <glyph glyph-name="Scedilla" unicode="&#x15e;" horiz-adv-x="578" 
d="M179 -214l20 53q30 -24 64 -24q45 0 45 40q0 17 -17.5 28t-35 16t-17.5 7l9 77q-52 3 -97.5 13t-65.5 18l-20 8l-3 182l110 7l13 -107q49 -14 92 -14q120 0 120 82q0 25 -24.5 44t-61 30.5t-79.5 29.5t-79.5 39t-61 60.5t-24.5 91.5q0 87 61 143.5t158 56.5q59 0 125 -42
l20 32h87v-190h-117l-7 64q-42 30 -84 30q-44 0 -68 -20.5t-24 -57.5q0 -31 34 -54t82.5 -40t97.5 -38.5t83 -61.5t34 -97q0 -95 -60.5 -149.5t-169.5 -60.5l-3 -37q0 -1 23.5 -8.5t46.5 -28t23 -54.5q0 -48 -29.5 -76.5t-84.5 -28.5q-37 0 -66 9.5t-39 18.5z" />
    <glyph glyph-name="scedilla" unicode="&#x15f;" horiz-adv-x="467" 
d="M120 -214l20 53q30 -24 64 -24q45 0 45 40q0 17 -17.5 28t-35 16t-17.5 7l9 75q-39 1 -75.5 7.5t-52.5 11.5l-17 6l-13 150l90 6l10 -71q40 -10 75 -10q89 0 89 57q0 19 -19 32.5t-48 21.5t-62.5 21t-62.5 28.5t-48 46t-19 72.5q0 72 53.5 115t133.5 43q59 0 117 -37
l16 27h72l-1 -161h-96l-8 45q-36 27 -78 27q-28 0 -46 -11t-18 -31q0 -21 27.5 -36.5t66 -28.5t77.5 -29.5t66.5 -49t27.5 -77.5q0 -154 -186 -172l-3 -39q0 -1 23 -8.5t46.5 -28t23.5 -54.5q0 -48 -29.5 -76.5t-84.5 -28.5q-37 0 -66 9.5t-39 18.5z" />
    <glyph glyph-name="Scaron" unicode="&#x160;" horiz-adv-x="578" 
d="M482 799l-132 -92h-78l-133 92l46 83l125 -82l127 82zM517 467h-117l-7 64q-42 30 -84 30q-44 0 -68 -20.5t-24 -57.5q0 -31 34 -54t82.5 -40t97.5 -38.5t83 -61.5t34 -97q0 -100 -67.5 -155.5t-188.5 -55.5q-64 0 -121 10.5t-82 20.5l-25 10l-3 182l110 7l13 -107
q49 -14 92 -14q120 0 120 82q0 25 -24.5 44t-61 30.5t-79.5 29.5t-79.5 39t-61 60.5t-24.5 91.5q0 87 61 143.5t158 56.5q59 0 125 -42l20 32h87v-190z" />
    <glyph glyph-name="scaron" unicode="&#x161;" horiz-adv-x="467" 
d="M404 664l-132 -92h-78l-133 92l46 83l125 -82l127 82zM426 347h-96l-8 45q-36 27 -78 27q-28 0 -46 -11t-18 -31q0 -21 27.5 -36.5t66 -28.5t77.5 -29.5t66.5 -49t27.5 -77.5q0 -81 -57 -128t-179 -47q-44 0 -85.5 6.5t-61.5 12.5l-19 6l-13 150l90 6l10 -71
q40 -10 75 -10q89 0 89 57q0 19 -19 32.5t-48 21.5t-62.5 21t-62.5 28.5t-48 46t-19 72.5q0 72 53.5 115t133.5 43q59 0 117 -37l16 27h72z" />
    <glyph glyph-name="Tcommaaccent" unicode="&#x162;" horiz-adv-x="599" 
d="M303 -48q14 0 27.5 -5t20.5 -10.5t7 -8.5q28 -32 28 -78q0 -51 -31.5 -104t-82.5 -87l-43 39q64 50 64 108q0 15 -2 22q-26 4 -41 20.5t-15 40.5q0 28 20 45.5t48 17.5zM107 453h-110l7 204l130 -7h338l131 7v-204h-111l-9 83h-106v-427l76 -5l-7 -104h-292l-7 104l75 6
v426h-104z" />
    <glyph glyph-name="tcommaaccent" unicode="&#x163;" horiz-adv-x="379" 
d="M196 -48q14 0 27.5 -5t20.5 -10.5t7 -8.5q28 -32 28 -78q0 -51 -31.5 -104t-82.5 -87l-43 39q64 50 64 108q0 15 -2 22q-26 4 -41 20.5t-15 40.5q0 28 20 45.5t48 17.5zM356 389h-132v-212q0 -81 57 -81l68 6v-93q-34 -20 -114 -20q-81 0 -119.5 35t-38.5 118v247h-56
v104l57 5l21 152h125v-150h132v-111z" />
    <glyph glyph-name="Tcaron" unicode="&#x164;" horiz-adv-x="599" 
d="M471 799l-132 -92h-78l-133 92l46 83l125 -82l127 82zM107 453h-110l7 204l130 -7h338l131 7v-204h-111l-9 83h-106v-427l76 -5l-7 -104h-292l-7 104l75 6v426h-104z" />
    <glyph glyph-name="tcaron" unicode="&#x165;" horiz-adv-x="379" 
d="M394 542l-84 13q27 54 27 130q0 30 -4 50l11 65l101 -14q-12 -161 -51 -244zM356 389h-132v-212q0 -81 57 -81l68 6v-93q-34 -20 -114 -20q-81 0 -119.5 35t-38.5 118v247h-56v104l57 5l21 152h125v-150h132v-111z" />
    <glyph glyph-name="Umacron" unicode="&#x16a;" horiz-adv-x="749" 
d="M503 751h-246v74h246v-74zM309 553l-69 -6v-270q0 -168 140 -168q73 0 107 45t34 123v264l-80 5l7 104h285v-97l-69 -8v-299q0 -117 -70 -191t-219 -74q-148 0 -218.5 74.5t-70.5 190.5v301l-76 6l7 97h292v-97z" />
    <glyph glyph-name="umacron" unicode="&#x16b;" horiz-adv-x="632" 
d="M444 616h-246v74h246v-74zM406 138v252l-52 6l7 104h193v-398l55 -4l-7 -98h-177l-11 34h-2l-5.5 -5.5t-17.5 -13t-31 -16.5t-46 -12.5t-61 -5.5q-88 0 -135.5 50t-47.5 140v219l-52 6l7 104h193v-302q0 -96 87 -96q29 0 55 9t37 18z" />
    <glyph glyph-name="Uring" unicode="&#x16e;" horiz-adv-x="749" 
d="M374 781q23 0 37 15t14 39t-15 39t-36 15q-23 0 -37.5 -15t-14.5 -39t14.5 -39t37.5 -15zM374 717q-55 0 -87 32.5t-32 85.5q0 51 33.5 84t85.5 33q50 0 84 -33t34 -84q0 -52 -33 -85t-85 -33zM309 553l-69 -6v-270q0 -168 140 -168q73 0 107 45t34 123v264l-80 5l7 104
h285v-97l-69 -8v-299q0 -117 -70 -191t-219 -74q-148 0 -218.5 74.5t-70.5 190.5v301l-76 6l7 97h292v-97z" />
    <glyph glyph-name="uring" unicode="&#x16f;" horiz-adv-x="632" 
d="M314 645q23 0 37 15t14 39t-15 39t-36 15q-23 0 -37.5 -15t-14.5 -39t14.5 -39t37.5 -15zM314 581q-55 0 -87 32.5t-32 85.5q0 51 33.5 84t85.5 33q50 0 84 -33t34 -84q0 -52 -33 -85t-85 -33zM406 138v252l-52 6l7 104h193v-398l55 -4l-7 -98h-177l-11 34h-2l-5.5 -5.5
t-17.5 -13t-31 -16.5t-46 -12.5t-61 -5.5q-88 0 -135.5 50t-47.5 140v219l-52 6l7 104h193v-302q0 -96 87 -96q29 0 55 9t37 18z" />
    <glyph glyph-name="Uhungarumlaut" unicode="&#x170;" horiz-adv-x="749" 
d="M495 716l-108 10l90 184l83 -33zM316 716l-107 10l89 184l84 -33zM309 553l-69 -6v-270q0 -168 140 -168q73 0 107 45t34 123v264l-80 5l7 104h285v-97l-69 -8v-299q0 -117 -70 -191t-219 -74q-148 0 -218.5 74.5t-70.5 190.5v301l-76 6l7 97h292v-97z" />
    <glyph glyph-name="uhungarumlaut" unicode="&#x171;" horiz-adv-x="632" 
d="M450 581l-108 10l90 184l83 -33zM271 581l-107 10l89 184l84 -33zM406 138v252l-52 6l7 104h193v-398l55 -4l-7 -98h-177l-11 34h-2l-5.5 -5.5t-17.5 -13t-31 -16.5t-46 -12.5t-61 -5.5q-88 0 -135.5 50t-47.5 140v219l-52 6l7 104h193v-302q0 -96 87 -96q29 0 55 9
t37 18z" />
    <glyph glyph-name="Uogonek" unicode="&#x172;" horiz-adv-x="749" 
d="M470 -177v-73q-197 0 -197 132q0 57 55 101q-123 12 -182.5 84.5t-59.5 178.5v301l-76 6l7 97h292v-97l-69 -6v-270q0 -168 140 -168q73 0 107 45t34 123v264l-80 5l7 104h285v-97l-69 -8v-299q0 -103 -54.5 -173.5t-169.5 -86.5q-63 -36 -63 -102q0 -35 23.5 -48
t69.5 -13z" />
    <glyph glyph-name="uogonek" unicode="&#x173;" horiz-adv-x="632" 
d="M547 -177v-73q-197 0 -197 132q0 67 78 118h-3l-11 34h-2l-5.5 -5.5t-17.5 -13t-31 -16.5t-46 -12.5t-61 -5.5q-88 0 -135.5 50t-47.5 140v219l-52 6l7 104h193v-302q0 -96 87 -96q29 0 55 9t37 18l11 9v252l-52 6l7 104h193v-398l55 -4l-7 -98h-51q-4 -1 -10.5 -3.5
t-23 -11.5t-29.5 -21t-23.5 -33.5t-10.5 -46.5q0 -35 23.5 -48t69.5 -13z" />
    <glyph glyph-name="Ydieresis" unicode="&#x178;" horiz-adv-x="663" 
d="M530 787q0 -26 -17.5 -48t-56.5 -22t-56.5 22.5t-17.5 47.5q0 29 20.5 49t53.5 20t53.5 -19t20.5 -50zM317 787q0 -26 -17.5 -48t-56.5 -22t-56.5 22.5t-17.5 47.5q0 29 20.5 49t53.5 20t53.5 -19t20.5 -50zM277 553l-34 -3l103 -169h1l95 164l-31 1v104h270v-104l-89 -4
l-177 -290v-143l77 -5l-7 -104h-292l-7 104l75 6v141l-187 298l-94 4l7 97h290v-97z" />
    <glyph glyph-name="Zacute" unicode="&#x179;" horiz-adv-x="640" 
d="M360 707l-98 7l95 148l140 -16zM588 550l-347 -436h238l12 72l111 -7l-8 -179h-550v99l348 437h-214l-7 -63h-118l7 184l130 -7h398v-100z" />
    <glyph glyph-name="zacute" unicode="&#x17a;" horiz-adv-x="496" 
d="M299 572l-98 7l95 148l140 -16zM466 405l-252 -299h135l12 72l103 -7l-7 -171h-430v95l252 299h-130l-7 -62h-103l7 175l117 -7h303v-95z" />
    <glyph glyph-name="Zdotaccent" unicode="&#x17b;" horiz-adv-x="640" 
d="M414 786q0 -35 -22.5 -56.5t-61.5 -21.5t-62.5 22.5t-23.5 56.5t22.5 56t62.5 22q41 0 63 -22.5t22 -56.5zM588 550l-347 -436h238l12 72l111 -7l-8 -179h-550v99l348 437h-214l-7 -63h-118l7 184l130 -7h398v-100z" />
    <glyph glyph-name="zdotaccent" unicode="&#x17c;" horiz-adv-x="496" 
d="M349 651q0 -35 -22.5 -56.5t-61.5 -21.5t-62.5 22.5t-23.5 56.5t22.5 56t62.5 22q41 0 63 -22.5t22 -56.5zM466 405l-252 -299h135l12 72l103 -7l-7 -171h-430v95l252 299h-130l-7 -62h-103l7 175l117 -7h303v-95z" />
    <glyph glyph-name="Zcaron" unicode="&#x17d;" horiz-adv-x="640" 
d="M498 799l-132 -92h-78l-133 92l46 83l125 -82l127 82zM588 550l-347 -436h238l12 72l111 -7l-8 -179h-550v99l348 437h-214l-7 -63h-118l7 184l130 -7h398v-100z" />
    <glyph glyph-name="zcaron" unicode="&#x17e;" horiz-adv-x="496" 
d="M436 664l-132 -92h-78l-133 92l46 83l125 -82l127 82zM466 405l-252 -299h135l12 72l103 -7l-7 -171h-430v95l252 299h-130l-7 -62h-103l7 175l117 -7h303v-95z" />
    <glyph glyph-name="longs" unicode="&#x17f;" horiz-adv-x="312" 
d="M439 591h-102l-7 52q-21 19 -47 19q-32 0 -44.5 -20.5t-12.5 -75.5v-464l56 -5l-7 -97h-245l-6 104l55 6v471q0 86 42.5 136.5t121.5 50.5q44 0 101 -36l15 25h81z" />
    <glyph glyph-name="florin" unicode="&#x192;" horiz-adv-x="400" 
d="M448 591h-103l-6 58q-19 13 -39 13q-30 0 -42.5 -21t-12.5 -75v-66h151v-111h-151v-425q0 -119 -55 -176t-134 -57q-40 0 -70 6.5t-40 12.5l-9 7l37 111q34 -11 66 -11q58 0 58 107v425h-55v104l55 6v1h1v81q0 187 150 187q42 0 98 -33l8 22h94z" />
    <glyph glyph-name="dotlessj" unicode="&#x237;" horiz-adv-x="296" 
d="M-75 -243l37 111q33 -11 65 -11q26 0 42.5 31t16.5 86v416l-52 6l7 104h191v-526q0 -120 -55.5 -181.5t-132.5 -61.5q-41 0 -70.5 6.5t-39.5 12.5z" />
    <glyph glyph-name="circumflex" unicode="&#x2c6;" horiz-adv-x="405" 
d="M326 579l-125 80l-124 -80l-45 82l131 92h78l130 -92z" />
    <glyph glyph-name="caron" unicode="&#x2c7;" horiz-adv-x="405" 
d="M373 664l-132 -92h-78l-133 92l46 83l125 -82l127 82z" />
    <glyph glyph-name="breve" unicode="&#x2d8;" horiz-adv-x="434" 
d="M216 658q21 0 37.5 5.5t24.5 13t13 15.5t7 14l1 5v3l120 -18q-1 -5 -2.5 -14t-14 -32t-32 -40t-60.5 -31.5t-94 -14.5t-93 13.5t-60 33t-32 39t-15 32.5l-2 14l121 18v-3q0 -2 1 -5.5t6.5 -13t13.5 -16.5t24 -12.5t36 -5.5z" />
    <glyph glyph-name="dotaccent" unicode="&#x2d9;" horiz-adv-x="462" 
d="M340 651q0 -35 -22.5 -56.5t-61.5 -21.5t-62.5 22.5t-23.5 56.5t22.5 56t62.5 22q41 0 63 -22.5t22 -56.5z" />
    <glyph glyph-name="ring" unicode="&#x2da;" horiz-adv-x="479" 
d="M170 645q23 0 37 15t14 39t-15 39t-36 15q-23 0 -37.5 -15t-14.5 -39t14.5 -39t37.5 -15zM170 581q-55 0 -87 32.5t-32 85.5q0 51 33.5 84t85.5 33q50 0 84 -33t34 -84q0 -52 -33 -85t-85 -33z" />
    <glyph glyph-name="ogonek" unicode="&#x2db;" horiz-adv-x="278" 
d="M230 -177v-73q-197 0 -197 132q0 31 17.5 59t42 45.5t49 31t42.5 18.5l17 6l33 -42q-4 -1 -10.5 -3.5t-23 -11.5t-29.5 -21t-23.5 -33.5t-10.5 -46.5q0 -35 23.5 -48t69.5 -13z" />
    <glyph glyph-name="tilde" unicode="&#x2dc;" horiz-adv-x="486" 
d="M417 709l18 -72q0 -2 -1.5 -5.5t-8 -12.5t-16 -16t-29.5 -12.5t-45 -5.5q-39 0 -96 25t-88 25q-20 0 -40.5 -7.5t-30.5 -15.5l-11 -8l-18 80l3 6t10.5 14.5t19.5 18t32.5 14t46.5 6.5q45 0 101.5 -26t83.5 -26q20 0 37 4.5t25 8.5z" />
    <glyph glyph-name="hungarumlaut" unicode="&#x2dd;" horiz-adv-x="477" 
d="M319 581l-108 10l90 184l83 -33zM140 581l-107 10l89 184l84 -33z" />
    <glyph glyph-name="tonos" unicode="&#x384;" horiz-adv-x="269" 
d="M156 562l-69 19l63 202l96 -30z" />
    <glyph glyph-name="dieresistonos" unicode="&#x385;" horiz-adv-x="269" 
d="M144 562l-69 19l63 202l96 -30zM61 652q0 -30 -20 -50t-53 -20t-53.5 20.5t-20.5 49.5t20.5 49t53.5 20q31 0 52 -18.5t21 -50.5zM364 652q0 -31 -21 -50.5t-52 -19.5q-32 0 -53 20.5t-21 49.5t20.5 49t53.5 20q30 0 51.5 -18t21.5 -51z" />
    <glyph glyph-name="Alphatonos" unicode="&#x386;" horiz-adv-x="813" 
d="M186 562l-69 19l63 202l96 -30zM442 531h-2l-88 -258h175zM343 0h-253l-6 104l70 5l198 541h200l197 -549l68 -3l-6 -98h-272v83l55 6l-35 89h-240l-32 -83l63 -5z" />
    <glyph glyph-name="Epsilontonos" unicode="&#x388;" horiz-adv-x="710" 
d="M72 562l-69 19l63 202l96 -30zM653 473h-118l-5 63h-179v-154l262 1v-110h-262v-159h198l11 72l111 -7l-7 -179h-536l-6 104l75 6v437l-76 6l7 97h395l130 7v-184z" />
    <glyph glyph-name="Etatonos" unicode="&#x389;" horiz-adv-x="885" 
d="M72 562l-69 19l63 202l96 -30zM421 0h-293l-6 104l75 6v437l-76 6l7 97h293v-104l-70 -6v-160h270v160l-76 6l7 104h293v-104l-70 -6v-438l76 -4l-7 -98h-292l-7 104l76 6v160h-270v-161l76 -5z" />
    <glyph glyph-name="Iotatonos" unicode="&#x38a;" horiz-adv-x="461" 
d="M72 562l-69 19l63 202l96 -30zM421 0h-293l-6 104l75 6v437l-76 6l7 97h293v-104l-70 -6v-438l76 -4z" />
    <glyph glyph-name="Omicrontonos" unicode="&#x38c;" horiz-adv-x="849" 
d="M109 562l-69 19l63 202l96 -30zM651 335q0 103 -47.5 158.5t-137.5 55.5q-89 0 -135 -55.5t-46 -158.5q0 -106 46.5 -171t134.5 -65q89 0 137 65t48 171zM811 335q0 -157 -91.5 -255.5t-253.5 -98.5q-161 0 -250.5 98t-89.5 256q0 155 88 243.5t252 88.5q165 0 255 -88.5
t90 -243.5z" />
    <glyph glyph-name="Upsilontonos" unicode="&#x38e;" horiz-adv-x="750" 
d="M21 562l-69 19l63 202l96 -30zM74 650h290v-97l-34 -3l103 -169h1l95 164l-31 1v104h270v-104l-89 -4l-177 -290v-143l77 -5l-7 -104h-292l-7 104l75 6v141l-187 298l-94 4z" />
    <glyph glyph-name="Omegatonos" unicode="&#x38f;" horiz-adv-x="849" 
d="M112 562l-69 19l63 202l96 -30zM423 0h-293l-7 143l76 7l11 -41h124l7 6q-35 12 -67 30.5t-66.5 49t-55 79t-20.5 108.5q0 130 90 207.5t246 77.5q157 0 246.5 -77.5t89.5 -207.5q0 -60 -20.5 -108.5t-55.5 -79t-66 -48.5t-67 -31l8 -6h123l11 41l77 -7l-8 -143h-292
l-8 186q6 2 15 6.5t32.5 21t41.5 37.5t33 57t15 78q0 78 -45 120.5t-130 42.5q-84 0 -129.5 -42.5t-45.5 -120.5q0 -42 14 -78t34 -57.5t40.5 -37t34.5 -21.5l14 -6z" />
    <glyph glyph-name="iotadieresistonos" unicode="&#x390;" horiz-adv-x="311" 
d="M164 562l-69 19l63 202l96 -30zM282 0h-245l-7 104l56 6v280l-52 6l6 104h193v-398l55 -4zM84 652q0 -30 -20 -50t-53 -20t-53.5 20.5t-20.5 49.5t20.5 49t53.5 20q31 0 52 -18.5t21 -50.5zM387 652q0 -30 -20 -50t-53 -20t-53.5 20.5t-20.5 49.5t20.5 49t53.5 20
q31 0 52 -18.5t21 -50.5z" />
    <glyph glyph-name="Alpha" unicode="&#x391;" horiz-adv-x="726" 
d="M355 531h-2l-88 -258h175zM256 0h-253l-6 104l70 5l198 541h200l197 -549l68 -3l-6 -98h-272v83l55 6l-35 89h-240l-32 -83l63 -5z" />
    <glyph glyph-name="Beta" unicode="&#x392;" horiz-adv-x="656" 
d="M247 380h117q30 0 53 22.5t23 67.5q0 42 -26 58t-79 16h-88v-164zM372 283h-125v-176h94q127 0 127 97q0 43 -24 61t-72 18zM349 0h-308l-6 104l75 6v437l-76 6l7 97h302q125 0 183 -46.5t58 -119.5q0 -77 -76 -133q109 -43 109 -147q0 -91 -66.5 -147.5t-201.5 -56.5z
" />
    <glyph glyph-name="Gamma" unicode="&#x393;" horiz-adv-x="521" 
d="M344 0h-303l-6 104l75 6v437l-76 6l7 97h366l131 7v-217h-118l-6 96h-150v-434l86 -4z" />
    <glyph glyph-name="Delta" unicode="&#x394;" horiz-adv-x="711" 
d="M350 537h-1l-170 -415h340zM677 0h-643v116l223 534h200l220 -534v-116z" />
    <glyph glyph-name="Epsilon" unicode="&#x395;" horiz-adv-x="622" 
d="M566 473h-118l-5 63h-179v-154l262 1v-110h-262v-159h198l11 72l111 -7l-7 -179h-536l-6 104l75 6v437l-76 6l7 97h395l130 7v-184z" />
    <glyph glyph-name="Zeta" unicode="&#x396;" horiz-adv-x="640" 
d="M588 550l-347 -436h238l12 72l111 -7l-8 -179h-550v99l348 437h-214l-7 -63h-118l7 184l130 -7h398v-100z" />
    <glyph glyph-name="Eta" unicode="&#x397;" horiz-adv-x="798" 
d="M334 0h-293l-6 104l75 6v437l-76 6l7 97h293v-104l-70 -6v-160h270v160l-76 6l7 104h293v-104l-70 -6v-438l76 -4l-7 -98h-292l-7 104l76 6v160h-270v-161l76 -5z" />
    <glyph glyph-name="Theta" unicode="&#x398;" horiz-adv-x="761" 
d="M564 335q0 103 -47.5 158.5t-137.5 55.5q-89 0 -135 -55.5t-46 -158.5q0 -106 46.5 -171t134.5 -65q89 0 137 65t48 171zM724 335q0 -157 -91.5 -255.5t-253.5 -98.5q-161 0 -250.5 98t-89.5 256q0 155 88 243.5t252 88.5q165 0 255 -88.5t90 -243.5zM505 267h-248v113
h248v-113z" />
    <glyph glyph-name="Iota" unicode="&#x399;" horiz-adv-x="374" 
d="M334 0h-293l-6 104l75 6v437l-76 6l7 97h293v-104l-70 -6v-438l76 -4z" />
    <glyph glyph-name="Kappa" unicode="&#x39a;" horiz-adv-x="748" 
d="M334 0h-293l-6 104l75 6v437l-76 6l7 97h279v-90l-56 -6v-187l65 29l135 162l-19 2v90h273v-104l-116 -5l-160 -188l194 -246l113 -3l-7 -104h-209l-44 35l-166 225l-59 -35v-116l76 -5z" />
    <glyph glyph-name="Lambda" unicode="&#x39b;" horiz-adv-x="706" 
d="M263 0h-260l-6 104l68 5l190 541h200l190 -549l65 -3l-6 -98h-272v90l56 11l-140 428h-2l-142 -429l66 -4z" />
    <glyph glyph-name="Mu" unicode="&#x39c;" horiz-adv-x="1043" 
d="M305 0h-264l-6 104l75 6l1 437l-75 6l7 97h266l214 -489h5l209 489h265v-104l-70 -6l1 -431l77 -5l-7 -104h-273l-7 90l62 6l-1 345h-4l-192 -441h-143l-193 441h-4l-1 -345l65 -6z" />
    <glyph glyph-name="Nu" unicode="&#x39d;" horiz-adv-x="811" 
d="M716 -3l-155 -1l-316 436h-3l5 -59v-264l79 -5l-7 -104h-278l-6 104l75 6v437l-76 6l7 97h228l311 -445h2l-4 45v291l-79 5l7 104h279v-104l-69 -6v-543z" />
    <glyph glyph-name="Xi" unicode="&#x39e;" horiz-adv-x="640" 
d="M477 269h-315v112h315v-112zM141 474h-104l8 176h556l1 -176h-104l-9 54h-339zM594 0h-549l-8 179l104 7l10 -64h337l10 64l104 -7z" />
    <glyph glyph-name="Omicron" unicode="&#x39f;" horiz-adv-x="761" 
d="M564 335q0 103 -47.5 158.5t-137.5 55.5q-89 0 -135 -55.5t-46 -158.5q0 -106 46.5 -171t134.5 -65q89 0 137 65t48 171zM724 335q0 -157 -91.5 -255.5t-253.5 -98.5q-161 0 -250.5 98t-89.5 256q0 155 88 243.5t252 88.5q165 0 255 -88.5t90 -243.5z" />
    <glyph glyph-name="Pi" unicode="&#x3a0;" horiz-adv-x="780" 
d="M333 0h-292l-6 104l75 6v437l-76 6l7 97h699v-97l-70 -6v-438l76 -5l-6 -104h-293l-6 104l75 6v426h-252v-427l76 -5z" />
    <glyph glyph-name="Rho" unicode="&#x3a1;" horiz-adv-x="620" 
d="M307 543h-54v-238h54q59 0 94.5 30.5t35.5 96.5q0 61 -34 86t-96 25zM340 0h-299l-6 104l75 6v437l-76 6l7 97h292q264 0 264 -209q0 -60 -23.5 -107t-62 -75t-83.5 -42.5t-92 -14.5h-83v-106l94 -5z" />
    <glyph glyph-name="Sigma" unicode="&#x3a3;" horiz-adv-x="603" 
d="M565 467h-117l-6 69h-191l141 -206l-163 -208h232l10 64l111 -7l-8 -179h-529v112l175 212l-154 219v107h368l131 7v-190z" />
    <glyph glyph-name="Tau" unicode="&#x3a4;" horiz-adv-x="599" 
d="M107 453h-110l7 204l130 -7h338l131 7v-204h-111l-9 83h-106v-427l76 -5l-7 -104h-292l-7 104l75 6v426h-104z" />
    <glyph glyph-name="Upsilon" unicode="&#x3a5;" horiz-adv-x="663" 
d="M277 553l-34 -3l103 -169h1l95 164l-31 1v104h270v-104l-89 -4l-177 -290v-143l77 -5l-7 -104h-292l-7 104l75 6v141l-187 298l-94 4l7 97h290v-97z" />
    <glyph glyph-name="Phi" unicode="&#x3a6;" horiz-adv-x="833" 
d="M183 349q0 -64 37.5 -90.5t126.5 -27.5v228q-92 -1 -128 -23.5t-36 -86.5zM650 350q0 63 -37 85.5t-128 23.5v-228q89 1 127 27.5t38 91.5zM568 0h-303l-6 92l88 6v39q-323 3 -323 216q0 109 82.5 152.5t240.5 45.5v37l-75 6l7 84h275v-84l-69 -6v-37q77 -1 133 -10.5
t100.5 -31t67.5 -60.5t23 -95q0 -214 -324 -217v-40l90 -5z" />
    <glyph glyph-name="Chi" unicode="&#x3a7;" horiz-adv-x="722" 
d="M302 553l-21 -2l83 -122h1l81 116l-21 1v104h283v-104l-103 -4l-153 -213l161 -222l110 -3l-7 -104h-298v97l21 1l-84 124h-1l-81 -117l24 -1v-104h-290l-7 104l109 5l158 214l-161 225l-102 5l6 97h292v-97z" />
    <glyph glyph-name="Psi" unicode="&#x3a8;" horiz-adv-x="871" 
d="M576 0h-277l-7 104l75 6v79q-158 2 -232.5 79.5t-74.5 198.5v80l-76 6l7 97h223v-160q0 -83 37.5 -131t115.5 -50v259l-73 6l6 104h274v-104l-68 -6v-259q151 4 151 167v174h207v-97l-53 -6v-93q0 -120 -73 -191.5t-232 -73.5v-80l77 -5z" />
    <glyph glyph-name="Omega" unicode="&#x3a9;" horiz-adv-x="761" 
d="M336 0h-293l-7 143l76 7l11 -41h124l7 6q-35 12 -67 30.5t-66.5 49t-55 79t-20.5 108.5q0 130 90 207.5t246 77.5q157 0 246.5 -77.5t89.5 -207.5q0 -60 -20.5 -108.5t-55.5 -79t-66 -48.5t-67 -31l8 -6h123l11 41l77 -7l-8 -143h-292l-8 186q6 2 15 6.5t32.5 21
t41.5 37.5t33 57t15 78q0 78 -45 120.5t-130 42.5q-84 0 -129.5 -42.5t-45.5 -120.5q0 -42 14 -78t34 -57.5t40.5 -37t34.5 -21.5l14 -6z" />
    <glyph glyph-name="Iotadieresis" unicode="&#x3aa;" horiz-adv-x="374" 
d="M153 802q0 -26 -17.5 -48t-56.5 -22t-56.5 22.5t-17.5 47.5q0 29 20.5 49t53.5 20t53.5 -19t20.5 -50zM366 802q0 -26 -17.5 -48t-56.5 -22t-56.5 22.5t-17.5 47.5q0 29 20.5 49t53.5 20t53.5 -19t20.5 -50zM334 0h-293l-6 104l75 6v437l-76 6l7 97h293v-104l-70 -6v-438
l76 -4z" />
    <glyph glyph-name="Upsilondieresis" unicode="&#x3ab;" horiz-adv-x="663" 
d="M530 787q0 -26 -17.5 -48t-56.5 -22t-56.5 22.5t-17.5 47.5q0 29 20.5 49t53.5 20t53.5 -19t20.5 -50zM317 787q0 -26 -17.5 -48t-56.5 -22t-56.5 22.5t-17.5 47.5q0 29 20.5 49t53.5 20t53.5 -19t20.5 -50zM277 553l-34 -3l103 -169h1l95 164l-31 1v104h270v-104l-89 -4
l-177 -290v-143l77 -5l-7 -104h-292l-7 104l75 6v141l-187 298l-94 4l7 97h290v-97z" />
    <glyph glyph-name="alphatonos" unicode="&#x3ac;" 
d="M321 562l-69 19l63 202l96 -30zM299 90q20 0 38 6t29 14.5t19.5 17t12.5 14.5l3 6v217l-1 2l-4.5 4.5l-6 6t-8.5 7.5t-10.5 7.5t-12.5 7t-15 6t-17.5 4t-19.5 1.5q-69 0 -99.5 -37.5t-30.5 -119.5q0 -164 123 -164zM596 0h-176l-14 40q-7 -9 -18.5 -19.5t-48.5 -25
t-84 -14.5q-102 0 -166.5 76.5t-64.5 192.5q0 124 63.5 196t178.5 72q41 0 74.5 -11t46.5 -23l13 -11h7l9 27h131v-398l56 -4z" />
    <glyph glyph-name="epsilontonos" unicode="&#x3ad;" horiz-adv-x="482" 
d="M258 562l-69 19l63 202l96 -30zM254 297l91 1v-92h-88q-43 0 -64 -12t-21 -41q0 -32 31 -51t79 -19q43 0 80 15t52 30l16 15l45 -71q-2 -4 -6.5 -10t-22.5 -21.5t-40 -27.5t-60 -22t-83 -10q-106 0 -171.5 46t-65.5 125q0 86 88 114q-63 41 -63 111q0 66 53 103.5
t127 37.5q58 0 111 -38l13 28h88l-1 -161h-110l-6 48q-26 24 -58 24q-34 0 -54.5 -15t-20.5 -45q0 -25 15 -40.5t30 -18.5z" />
    <glyph glyph-name="etatonos" unicode="&#x3ae;" 
d="M282 0h-245l-7 104l56 6v280l-52 6l6 104h174l11 -35h2l5.5 5.5t17.5 13t31 16.5t46 12.5t61 5.5q183 0 183 -169v-599h-147v572q0 41 -20 58.5t-68 17.5q-29 0 -55 -9t-37 -18l-11 -9v-260l55 -4zM342 562l-69 19l63 202l96 -30z" />
    <glyph glyph-name="iotatonos" unicode="&#x3af;" horiz-adv-x="311" 
d="M183 562l-69 19l63 202l96 -30zM282 0h-245l-7 104l56 6v280l-52 6l6 104h193v-398l55 -4z" />
    <glyph glyph-name="upsilondieresistonos" unicode="&#x3b0;" horiz-adv-x="608" 
d="M316 562l-69 19l63 202l96 -30zM407 197v193l-53 6l7 104h193v-315q0 -93 -61 -148.5t-182 -55.5t-182 55.5t-61 148.5v205l-52 6l7 104h193v-303q0 -46 24.5 -75t70.5 -29t71 29t25 75zM237 652q0 -26 -18 -48t-56 -22q-39 0 -56.5 22.5t-17.5 47.5q0 29 20.5 49
t53.5 20q31 0 52.5 -18.5t21.5 -50.5zM540 652q0 -26 -18 -48t-56 -22q-39 0 -56.5 22.5t-17.5 47.5q0 29 20.5 49t53.5 20q31 0 52.5 -18.5t21.5 -50.5z" />
    <glyph glyph-name="alpha" unicode="&#x3b1;" 
d="M299 90q20 0 38 6t29 14.5t19.5 17t12.5 14.5l3 6v217l-1 2l-4.5 4.5l-6 6t-8.5 7.5t-10.5 7.5t-12.5 7t-15 6t-17.5 4t-19.5 1.5q-69 0 -99.5 -37.5t-30.5 -119.5q0 -164 123 -164zM596 0h-176l-14 40q-7 -9 -18.5 -19.5t-48.5 -25t-84 -14.5q-102 0 -166.5 76.5
t-64.5 192.5q0 124 63.5 196t178.5 72q41 0 74.5 -11t46.5 -23l13 -11h7l9 27h131v-398l56 -4z" />
    <glyph glyph-name="beta" unicode="&#x3b2;" horiz-adv-x="614" 
d="M435 241q0 67 -32.5 92.5t-114.5 25.5v101q4 1 11 3t24 11t30 20.5t24 33t11 47.5q0 86 -83 86q-52 0 -73 -36.5t-21 -110.5v-386q4 -6 12 -14t30.5 -17t50.5 -9q61 0 96 44t35 109zM211 -250h-148v782q0 121 64 178.5t179 57.5q105 0 166.5 -48.5t61.5 -130.5
q0 -92 -83 -160q137 -48 137 -196q0 -106 -65 -179t-167 -73q-49 0 -84.5 12t-46.5 24l-11 12h-3v-279z" />
    <glyph glyph-name="gamma" unicode="&#x3b3;" horiz-adv-x="557" 
d="M356 -250h-148v250l-152 391l-73 5l7 104h189l104 -357h4l77 247l-39 8l6 102h237v-104l-66 -6l-146 -390v-250z" />
    <glyph glyph-name="delta" unicode="&#x3b4;" horiz-adv-x="586" 
d="M293 83q117 0 117 170q0 81 -27.5 122t-89.5 41q-117 0 -117 -163q0 -170 117 -170zM293 -19q-129 0 -199 73.5t-70 200.5q0 166 119 230q-47 49 -47 120q0 73 62.5 118t156.5 45q67 0 145 -15l52 5v-160h-98l-7 44q-60 6 -90 6q-98 0 -98 -64q0 -30 19.5 -46.5
t49.5 -19.5h5q130 0 199.5 -69t69.5 -194t-72 -199.5t-197 -74.5z" />
    <glyph glyph-name="epsilon" unicode="&#x3b5;" horiz-adv-x="482" 
d="M254 297l91 1v-92h-88q-43 0 -64 -12t-21 -41q0 -32 31 -51t79 -19q43 0 80 15t52 30l16 15l45 -71q-2 -4 -6.5 -10t-22.5 -21.5t-40 -27.5t-60 -22t-83 -10q-106 0 -171.5 46t-65.5 125q0 86 88 114q-63 41 -63 111q0 66 53 103.5t127 37.5q58 0 111 -38l13 28h88
l-1 -161h-110l-6 48q-26 24 -58 24q-34 0 -54.5 -15t-20.5 -45q0 -25 15 -40.5t30 -18.5z" />
    <glyph glyph-name="zeta" unicode="&#x3b6;" horiz-adv-x="472" 
d="M125 775l4 -25h344v-99q-131 -144 -174 -202q-99 -134 -99 -241q0 -57 44.5 -81.5t112.5 -24.5q126 0 126 -98q0 -41 -8.5 -86.5t-17.5 -70.5l-9 -25l-110 13q22 76 22 123q0 23 -14.5 32.5t-56.5 9.5q-52 0 -92 9t-75.5 30.5t-55 63t-19.5 101.5q0 167 252 432h-149
l-116 -7l-7 139z" />
    <glyph glyph-name="eta" unicode="&#x3b7;" 
d="M282 0h-245l-7 104l56 6v280l-52 6l6 104h174l11 -35h2l5.5 5.5t17.5 13t31 16.5t46 12.5t61 5.5q183 0 183 -169v-599h-147v572q0 41 -20 58.5t-68 17.5q-29 0 -55 -9t-37 -18l-11 -9v-260l55 -4z" />
    <glyph glyph-name="theta" unicode="&#x3b8;" horiz-adv-x="594" 
d="M297 82q60 0 85.5 54t30.5 180h-232q4 -125 30 -179.5t86 -54.5zM297 667q-63 0 -88.5 -53t-28.5 -183h233q-3 130 -28.5 183t-87.5 53zM297 -19q-134 0 -201.5 102.5t-67.5 297.5q0 387 269 387t269 -387q0 -195 -67.5 -297.5t-201.5 -102.5z" />
    <glyph glyph-name="iota" unicode="&#x3b9;" horiz-adv-x="311" 
d="M282 0h-245l-7 104l56 6v280l-52 6l6 104h193v-398l55 -4z" />
    <glyph glyph-name="kappa" unicode="&#x3ba;" horiz-adv-x="593" 
d="M268 0h-231l-7 104l56 6v280l-66 6l7 104h206v-198l69 29l38 70l-20 2l7 97h231v-104l-97 -14l-71 -101l105 -167l96 -3l-7 -111h-171l-40 41l-108 175l-32 -14v-106l42 -5z" />
    <glyph glyph-name="lambda" unicode="&#x3bb;" horiz-adv-x="572" 
d="M580 104v-104h-237l-7 102l47 9l-66 221h-4l-138 -332h-178l-6 104l78 4l188 391q-24 84 -42.5 119t-47.5 35l-48 -8l4 105q48 18 85 18q63 0 102.5 -55.5t83.5 -190.5l135 -413z" />
    <glyph glyph-name="mu" unicode="&#x3bc;" horiz-adv-x="641" 
d="M415 138v252l-52 6l7 104h193v-398l55 -4l-7 -98h-177l-11 34h-2l-5.5 -5.5t-17.5 -13t-31 -16.5t-46 -12.5t-61 -5.5q-20 0 -37 3q2 -156 2 -234h-148v640l-52 6l7 104h193v-302q0 -96 87 -96q29 0 55 9t37 18z" />
    <glyph glyph-name="nu" unicode="&#x3bd;" horiz-adv-x="557" 
d="M568 396l-66 -6l-146 -390h-156l-146 391l-71 5l7 104h189l104 -346h4l77 239l-39 3v104h243v-104z" />
    <glyph glyph-name="xi" unicode="&#x3be;" horiz-adv-x="487" 
d="M425 350l-98 1q-80 -3 -113.5 -29.5t-33.5 -92.5q0 -71 51.5 -99t143.5 -28q55 0 87 -25.5t32 -71.5q0 -41 -14 -87t-28 -71l-14 -25l-91 13q23 79 23 123q0 23 -13 32.5t-48 9.5q-38 0 -74 5.5t-75 21t-68 40t-47.5 66.5t-18.5 96q0 136 129 182q-90 61 -90 170
q0 89 59.5 138t141.5 49q51 0 104 -37l16 27h87l-1 -177h-110l-6 59q-31 22 -63 22q-82 0 -82 -95q0 -58 38.5 -85.5t87.5 -29.5l88 1v-103z" />
    <glyph glyph-name="omicron" unicode="&#x3bf;" horiz-adv-x="586" 
d="M293 83q117 0 117 170q0 81 -27.5 122t-89.5 41q-117 0 -117 -163q0 -170 117 -170zM293 -19q-129 0 -199 73.5t-70 200.5q0 125 69.5 194t199.5 69t199.5 -69t69.5 -194t-72 -199.5t-197 -74.5z" />
    <glyph glyph-name="pi" unicode="&#x3c0;" horiz-adv-x="647" 
d="M610 0h-196v390h-181v-287l55 -5l-6 -98h-245l-7 104l56 6v279l-52 7l6 104h566v-104l-45 -7v-286l55 -5z" />
    <glyph glyph-name="rho" unicode="&#x3c1;" horiz-adv-x="601" 
d="M200 302v-171q3 -5 10 -12.5t31.5 -20.5t53.5 -13q130 0 130 183q0 81 -28 114.5t-93 33.5q-104 0 -104 -114zM200 -250h-146v539q0 109 65.5 169.5t188.5 60.5q136 0 202.5 -64.5t66.5 -182.5q0 -125 -62.5 -207.5t-168.5 -82.5q-44 0 -79.5 10t-48.5 20l-14 11h-4v-273
z" />
    <glyph glyph-name="sigma1" unicode="&#x3c2;" horiz-adv-x="505" 
d="M476 303h-110l-7 83q-32 30 -69 30q-56 0 -84.5 -35t-28.5 -121q0 -89 42.5 -123.5t140.5 -34.5q51 0 82.5 -26t31.5 -72q0 -41 -14 -86.5t-28 -70.5l-14 -25l-90 13q23 79 23 123q0 22 -12.5 32t-45.5 10q-131 0 -200 65.5t-69 192.5q0 121 63.5 190.5t172.5 69.5
q52 0 113 -40l17 30h88z" />
    <glyph glyph-name="sigma" unicode="&#x3c3;" horiz-adv-x="622" 
d="M387 405l-105 10q-57 -3 -81.5 -40.5t-24.5 -112.5q0 -180 117 -180t117 179q0 75 -23 144zM293 518q42 0 170 -9t148 -9v-110q-33 0 -98 5v-2q42 -66 42 -152q0 -113 -70 -186.5t-192 -73.5q-128 0 -198.5 76.5t-70.5 203.5q0 125 69.5 191t199.5 66z" />
    <glyph glyph-name="tau" unicode="&#x3c4;" horiz-adv-x="415" 
d="M401 386l-163 1v-210q0 -83 57 -83q17 0 34 2t26 4l9 2l1 -93q-29 -28 -117 -28q-79 0 -118 38.5t-39 122.5v246l-77 1v104l76 7h311v-114z" />
    <glyph glyph-name="upsilon" unicode="&#x3c5;" horiz-adv-x="608" 
d="M407 197v193l-53 6l7 104h193v-315q0 -93 -61 -148.5t-182 -55.5t-182 55.5t-61 148.5v205l-52 6l7 104h193v-303q0 -46 24.5 -75t70.5 -29t71 29t25 75z" />
    <glyph glyph-name="phi" unicode="&#x3c6;" horiz-adv-x="728" 
d="M168 260q0 -172 126 -176v331q-66 -2 -96 -35.5t-30 -119.5zM560 261q0 85 -30.5 119t-95.5 36v-331q126 5 126 176zM434 -250h-140v231q-125 2 -197.5 78t-72.5 201q0 124 71 190t199 68v122l-52 6l7 104h185v-232q127 -2 198.5 -68t71.5 -189q0 -125 -72.5 -201.5
t-197.5 -78.5v-231z" />
    <glyph glyph-name="chi" unicode="&#x3c7;" horiz-adv-x="594" 
d="M585 0h-171l-37 37l-85 142h-1l-57 -94l-6 -85h-218v104l93 5l101 144l-94 139l-97 4l7 104h185l96 -169h2l38 67h-2l7 102h223v-104l-89 -5l-91 -132l108 -159l94 -2z" />
    <glyph glyph-name="psi" unicode="&#x3c8;" horiz-adv-x="785" 
d="M466 -250h-140v231q-114 1 -187 60t-73 154v196l-70 5l7 104h202v-279q0 -57 33 -92t88 -36v547l-52 6l6 104h186v-657q59 1 93 35.5t34 92.5v169l-56 13l7 97h189v-305q0 -95 -74.5 -154t-192.5 -60v-231z" />
    <glyph glyph-name="omega" unicode="&#x3c9;" horiz-adv-x="787" 
d="M329 278v93h129v-93q0 -95 15 -135.5t58 -40.5q85 0 85 156q0 67 -14.5 121t-26.5 74.5t-18 24.5l113 36q2 0 11 -7.5t22 -26.5t25 -46t20.5 -72.5t8.5 -99.5q0 -281 -214 -281q-91 0 -150 98q-57 -98 -149 -98q-214 0 -214 281q0 54 8.5 99.5t20.5 72.5t25.5 46t22 26.5
t11.5 7.5l111 -36q-6 -5 -17.5 -24.5t-25.5 -74t-14 -121.5q0 -156 84 -156q43 0 58 40.5t15 135.5z" />
    <glyph glyph-name="iotadieresis" unicode="&#x3ca;" horiz-adv-x="311" 
d="M124 652q0 -26 -17.5 -48t-56.5 -22t-56.5 22.5t-17.5 47.5q0 29 20.5 49t53.5 20t53.5 -19t20.5 -50zM337 652q0 -26 -17.5 -48t-56.5 -22t-56.5 22.5t-17.5 47.5q0 29 20.5 49t53.5 20t53.5 -19t20.5 -50zM282 0h-245l-7 104l56 6v280l-52 6l6 104h193v-398l55 -4z" />
    <glyph glyph-name="upsilondieresis" unicode="&#x3cb;" horiz-adv-x="608" 
d="M270 652q0 -26 -17.5 -48t-56.5 -22t-56.5 22.5t-17.5 47.5q0 29 20.5 49t53.5 20t53.5 -19t20.5 -50zM483 652q0 -26 -17.5 -48t-56.5 -22t-56.5 22.5t-17.5 47.5q0 29 20.5 49t53.5 20t53.5 -19t20.5 -50zM407 197v193l-53 6l7 104h193v-315q0 -93 -61 -148.5
t-182 -55.5t-182 55.5t-61 148.5v205l-52 6l7 104h193v-303q0 -46 24.5 -75t70.5 -29t71 29t25 75z" />
    <glyph glyph-name="omicrontonos" unicode="&#x3cc;" horiz-adv-x="586" 
d="M313 562l-69 19l63 202l96 -30zM293 83q117 0 117 170q0 81 -27.5 122t-89.5 41q-117 0 -117 -163q0 -170 117 -170zM293 -19q-129 0 -199 73.5t-70 200.5q0 125 69.5 194t199.5 69t199.5 -69t69.5 -194t-72 -199.5t-197 -74.5z" />
    <glyph glyph-name="upsilontonos" unicode="&#x3cd;" horiz-adv-x="608" 
d="M324 562l-69 19l63 202l96 -30zM407 197v193l-53 6l7 104h193v-315q0 -93 -61 -148.5t-182 -55.5t-182 55.5t-61 148.5v205l-52 6l7 104h193v-303q0 -46 24.5 -75t70.5 -29t71 29t25 75z" />
    <glyph glyph-name="omegatonos" unicode="&#x3ce;" horiz-adv-x="787" 
d="M413 562l-69 19l63 202l96 -30zM329 278v93h129v-93q0 -95 15 -135.5t58 -40.5q85 0 85 156q0 67 -14.5 121t-26.5 74.5t-18 24.5l113 36q2 0 11 -7.5t22 -26.5t25 -46t20.5 -72.5t8.5 -99.5q0 -281 -214 -281q-91 0 -150 98q-57 -98 -149 -98q-214 0 -214 281
q0 54 8.5 99.5t20.5 72.5t25.5 46t22 26.5t11.5 7.5l111 -36q-6 -5 -17.5 -24.5t-25.5 -74t-14 -121.5q0 -156 84 -156q43 0 58 40.5t15 135.5z" />
    <glyph glyph-name="uni0400" unicode="&#x400;" horiz-adv-x="622" 
d="M395 716l-98 -9l-139 139l138 17zM566 473h-118l-5 63h-179v-154l262 1v-110h-262v-159h198l11 72l111 -7l-7 -179h-536l-6 104l75 6v437l-76 6l7 97h395l130 7v-184z" />
    <glyph glyph-name="afii10023" unicode="&#x401;" horiz-adv-x="622" 
d="M296 787q0 -26 -17.5 -48t-56.5 -22t-56.5 22.5t-17.5 47.5q0 29 20.5 49t53.5 20t53.5 -19t20.5 -50zM509 787q0 -26 -17.5 -48t-56.5 -22t-56.5 22.5t-17.5 47.5q0 29 20.5 49t53.5 20t53.5 -19t20.5 -50zM566 473h-118l-5 63h-179v-154l262 1v-110h-262v-159h198
l11 72l111 -7l-7 -179h-536l-6 104l75 6v437l-76 6l7 97h395l130 7v-184z" />
    <glyph glyph-name="afii10051" unicode="&#x402;" horiz-adv-x="786" 
d="M741 207q0 -226 -168 -226q-34 0 -63 8t-40 17l-12 8l9 89q22 -16 51 -16q69 0 69 90v21q0 51 -21 69t-76 18q-70 0 -120 -35v-148l60 -4l-6 -98h-278l-6 104l75 6v430h-94l-7 -63l-117 7l7 173l130 -7h316l130 7l7 -173l-117 -7l-8 63h-92v-180h1q6 5 19 13t58.5 21.5
t99.5 13.5q103 0 148 -45.5t45 -130.5v-25z" />
    <glyph glyph-name="afii10052" unicode="&#x403;" horiz-adv-x="521" 
d="M335 707l-98 7l95 148l140 -16zM344 0h-303l-6 104l75 6v437l-76 6l7 97h366l131 7v-217h-118l-6 96h-150v-434l86 -4z" />
    <glyph glyph-name="afii10053" unicode="&#x404;" horiz-adv-x="672" 
d="M548 257h-343q13 -82 60.5 -119t131.5 -37q55 0 105 20.5t73 40.5l23 20l57 -94q-4 -4 -11 -11.5t-33 -26t-54.5 -32.5t-75 -25.5t-95.5 -11.5q-168 0 -257.5 93t-89.5 250q0 152 90 247.5t232 95.5q73 0 141 -46l19 36h88v-211h-111l-9 73q-53 30 -111 30
q-161 0 -175 -182l345 1v-111z" />
    <glyph glyph-name="afii10054" unicode="&#x405;" horiz-adv-x="578" 
d="M517 467h-117l-7 64q-42 30 -84 30q-44 0 -68 -20.5t-24 -57.5q0 -31 34 -54t82.5 -40t97.5 -38.5t83 -61.5t34 -97q0 -100 -67.5 -155.5t-188.5 -55.5q-64 0 -121 10.5t-82 20.5l-25 10l-3 182l110 7l13 -107q49 -14 92 -14q120 0 120 82q0 25 -24.5 44t-61 30.5
t-79.5 29.5t-79.5 39t-61 60.5t-24.5 91.5q0 87 61 143.5t158 56.5q59 0 125 -42l20 32h87v-190z" />
    <glyph glyph-name="afii10055" unicode="&#x406;" horiz-adv-x="374" 
d="M334 0h-293l-6 104l75 6v437l-76 6l7 97h293v-104l-70 -6v-438l76 -4z" />
    <glyph glyph-name="afii10056" unicode="&#x407;" horiz-adv-x="374" 
d="M153 787q0 -26 -17.5 -48t-56.5 -22t-56.5 22.5t-17.5 47.5q0 29 20.5 49t53.5 20t53.5 -19t20.5 -50zM366 787q0 -26 -17.5 -48t-56.5 -22t-56.5 22.5t-17.5 47.5q0 29 20.5 49t53.5 20t53.5 -19t20.5 -50zM334 0h-293l-6 104l75 6v437l-76 6l7 97h293v-104l-70 -6v-438
l76 -4z" />
    <glyph glyph-name="afii10057" unicode="&#x408;" horiz-adv-x="479" 
d="M447 546l-53 -6v-334q0 -124 -50.5 -174.5t-159.5 -50.5q-48 0 -88.5 7t-57.5 14l-16 7l-14 173l104 7l12 -91q20 -5 42 -5q36 0 55 25.5t19 87.5v341l-93 6l7 97h293v-104z" />
    <glyph glyph-name="afii10058" unicode="&#x409;" horiz-adv-x="1030" 
d="M696 300h-58v-194h59q144 0 144 106q0 50 -35.5 69t-109.5 19zM705 0h-290l-6 104l75 6v426h-144q-1 -283 -66.5 -418.5t-178.5 -135.5q-24 0 -43 4.5t-26 9.5l-7 4l6 126q13 -7 38 -7q42 0 70 35.5t47 130.5t23 253l-93 7l7 105h591v-97l-70 -6v-144h58q295 0 295 -184
q0 -101 -73.5 -160t-212.5 -59z" />
    <glyph glyph-name="afii10059" unicode="&#x40a;" horiz-adv-x="1079" 
d="M746 300h-58v-194h59q144 0 144 106q0 50 -35.5 69t-109.5 19zM755 0h-290l-6 104l75 6v160h-270v-161l76 -5l-6 -104h-293l-6 104l75 6v437l-76 6l7 97h293v-104l-70 -6v-160h270v167l-76 6l7 97h293v-97l-70 -6v-144h58q295 0 295 -184q0 -101 -73.5 -160t-212.5 -59z
" />
    <glyph glyph-name="afii10060" unicode="&#x40b;" horiz-adv-x="842" 
d="M587 484l-117 -7l-8 63h-92v-180h1q6 5 19 13t58.5 21.5t99.5 13.5q103 0 148 -45.5t45 -130.5v-130l77 -4l-7 -98h-284l-7 97l67 6v95q0 51 -21 69t-76 18q-70 0 -120 -35v-148l68 -4l-7 -98h-285l-6 104l75 6v430h-94l-7 -63l-117 7l7 173l130 -7h316l130 7z" />
    <glyph glyph-name="afii10061" unicode="&#x40c;" horiz-adv-x="748" 
d="M387 707l-98 7l95 148l140 -16zM334 0h-293l-6 104l75 6v437l-76 6l7 97h279v-90l-56 -6v-187l65 29l135 162l-19 2v90h273v-104l-116 -5l-160 -188l194 -246l113 -3l-7 -104h-209l-44 35l-166 225l-59 -35v-116l76 -5z" />
    <glyph glyph-name="uni040D" unicode="&#x40d;" horiz-adv-x="806" 
d="M480 716l-98 -9l-139 139l138 17zM766 0h-284l-6 97l74 6v263l4 65h-2l-292 -411l-9 -20h-210l-6 104l75 6v437l-76 6l7 97h286v-97l-71 -6v-270l-5 -59h2l295 412l8 20h210v-97l-70 -6v-445l77 -4z" />
    <glyph glyph-name="afii10062" unicode="&#x40e;" horiz-adv-x="687" 
d="M288 553l-40 -4l137 -251h2l95 246l-45 2l7 104h257v-97l-71 -4l-167 -369q-51 -112 -115 -155t-172 -43q-30 0 -55.5 5t-36.5 11l-10 5l-8 186l105 7l13 -100h12q35 0 60 13t51 50l-228 390l-89 4l7 97h291v-97zM371 789q33 0 51.5 14t20.5 28l2 14v2l129 -18
q-1 -5 -2.5 -14t-14 -31.5t-32 -40t-60.5 -31.5t-94 -14t-93.5 13.5t-60 33t-31.5 38.5t-14 33l-3 13l129 18v-2q0 -2 0.5 -6t4.5 -13.5t10.5 -17t22 -13.5t35.5 -6z" />
    <glyph glyph-name="afii10145" unicode="&#x40f;" horiz-adv-x="780" 
d="M453 -204h-125l-8 204h-279l-6 104l75 6v437l-76 6l7 97h286v-97l-63 -6v-433h252v433l-68 6l6 97h286v-97l-70 -6v-438l76 -5l-6 -104h-280z" />
    <glyph glyph-name="afii10017" unicode="&#x410;" horiz-adv-x="726" 
d="M355 531h-2l-88 -258h175zM256 0h-253l-6 104l70 5l198 541h200l197 -549l68 -3l-6 -98h-272v83l55 6l-35 89h-240l-32 -83l63 -5z" />
    <glyph glyph-name="afii10018" unicode="&#x411;" horiz-adv-x="656" 
d="M321 292h-57v-186h58q145 0 145 98q0 50 -36 69t-110 19zM546 471h-118l-5 65h-159v-140h58q295 0 295 -184q0 -100 -73 -156t-214 -56h-289l-6 104l75 6v437l-76 6l7 97h374l131 7v-186z" />
    <glyph glyph-name="afii10019" unicode="&#x412;" horiz-adv-x="656" 
d="M247 380h117q30 0 53 22.5t23 67.5q0 42 -26 58t-79 16h-88v-164zM372 283h-125v-176h94q127 0 127 97q0 43 -24 61t-72 18zM349 0h-308l-6 104l75 6v437l-76 6l7 97h302q125 0 183 -46.5t58 -119.5q0 -77 -76 -133q109 -43 109 -147q0 -91 -66.5 -147.5t-201.5 -56.5z
" />
    <glyph glyph-name="afii10020" unicode="&#x413;" horiz-adv-x="521" 
d="M344 0h-303l-6 104l75 6v437l-76 6l7 97h366l131 7v-217h-118l-6 96h-150v-434l86 -4z" />
    <glyph glyph-name="afii10021" unicode="&#x414;" horiz-adv-x="760" 
d="M483 536h-167q-9 -275 -79 -422h246v422zM157 -158h-117l-9 272h66q38 74 59 170.5t27 253.5l-85 7l7 105h600v-104l-71 -6v-426h94l-16 -272h-125l-15 158h-393z" />
    <glyph glyph-name="afii10022" unicode="&#x415;" horiz-adv-x="622" 
d="M566 473h-118l-5 63h-179v-154l262 1v-110h-262v-159h198l11 72l111 -7l-7 -179h-536l-6 104l75 6v437l-76 6l7 97h395l130 7v-184z" />
    <glyph glyph-name="afii10024" unicode="&#x416;" horiz-adv-x="1021" 
d="M281 546l-20 -2l79 -144h85v147l-62 6l7 97h256v-97l-56 -6v-147h77l94 144l-15 2v104h265v-97l-97 -5l-137 -184l166 -257l98 -3l-6 -104h-187l-39 40l-146 247h-73v-185l77 -4l-6 -98h-284l-7 97l75 6v183h-76l-122 -240l-39 -46h-189v104l89 2l142 234l-126 209l-89 4
l7 97h259v-104z" />
    <glyph glyph-name="afii10025" unicode="&#x417;" horiz-adv-x="578" 
d="M180 465h-112l7 192h88l13 -35q59 45 117 45q102 0 160 -46t58 -128q0 -91 -89 -152q118 -34 118 -144q0 -95 -74 -155.5t-203 -60.5q-56 0 -102 10t-72.5 24.5t-45 29.5t-25.5 25l-6 10l60 92q8 -8 22 -20.5t60.5 -33t95.5 -20.5q59 0 93 25.5t34 74.5q0 43 -27 57.5
t-84 14.5l-115 -1v116l124 -1q32 1 57.5 25.5t25.5 67.5q0 82 -92 82q-45 0 -81 -30z" />
    <glyph glyph-name="afii10026" unicode="&#x418;" horiz-adv-x="806" 
d="M766 0h-284l-6 97l74 6v263l4 65h-2l-292 -411l-9 -20h-210l-6 104l75 6v437l-76 6l7 97h286v-97l-71 -6v-270l-5 -59h2l295 412l8 20h210v-97l-70 -6v-445l77 -4z" />
    <glyph glyph-name="afii10027" unicode="&#x419;" horiz-adv-x="806" 
d="M766 0h-284l-6 97l74 6v263l4 65h-2l-292 -411l-9 -20h-210l-6 104l75 6v437l-76 6l7 97h286v-97l-71 -6v-270l-5 -59h2l295 412l8 20h210v-97l-70 -6v-445l77 -4zM417 789q33 0 51.5 14t20.5 28l2 14v2l128 -18q-1 -5 -2.5 -14t-14 -31.5t-32 -40t-60 -31.5t-93.5 -14
t-93.5 13.5t-60 33t-31.5 38.5t-14 33l-3 13l128 18v-2q0 -2 0.5 -6t4.5 -13.5t11 -17t22.5 -13.5t35.5 -6z" />
    <glyph glyph-name="afii10028" unicode="&#x41a;" horiz-adv-x="748" 
d="M334 0h-293l-6 104l75 6v437l-76 6l7 97h279v-90l-56 -6v-187l65 29l135 162l-19 2v90h273v-104l-116 -5l-160 -188l194 -246l113 -3l-7 -104h-209l-44 35l-166 225l-59 -35v-116l76 -5z" />
    <glyph glyph-name="afii10029" unicode="&#x41b;" horiz-adv-x="748" 
d="M708 0h-292l-7 104l75 6v426h-144q-1 -283 -66.5 -418.5t-178.5 -135.5q-24 0 -43 4.5t-26 9.5l-7 4l6 126q13 -7 38 -7q42 0 70 35.5t47 130.5t23 253l-93 7l7 105h592v-104l-71 -6v-431l77 -5z" />
    <glyph glyph-name="afii10030" unicode="&#x41c;" horiz-adv-x="1043" 
d="M305 0h-264l-6 104l75 6l1 437l-75 6l7 97h266l214 -489h5l209 489h265v-104l-70 -6l1 -431l77 -5l-7 -104h-273l-7 90l62 6l-1 345h-4l-192 -441h-143l-193 441h-4l-1 -345l65 -6z" />
    <glyph glyph-name="afii10031" unicode="&#x41d;" horiz-adv-x="798" 
d="M334 0h-293l-6 104l75 6v437l-76 6l7 97h293v-104l-70 -6v-160h270v160l-76 6l7 104h293v-104l-70 -6v-438l76 -4l-7 -98h-292l-7 104l76 6v160h-270v-161l76 -5z" />
    <glyph glyph-name="afii10032" unicode="&#x41e;" horiz-adv-x="761" 
d="M564 335q0 103 -47.5 158.5t-137.5 55.5q-89 0 -135 -55.5t-46 -158.5q0 -106 46.5 -171t134.5 -65q89 0 137 65t48 171zM724 335q0 -157 -91.5 -255.5t-253.5 -98.5q-161 0 -250.5 98t-89.5 256q0 155 88 243.5t252 88.5q165 0 255 -88.5t90 -243.5z" />
    <glyph glyph-name="afii10033" unicode="&#x41f;" horiz-adv-x="780" 
d="M333 0h-292l-6 104l75 6v437l-76 6l7 97h699v-97l-70 -6v-438l76 -5l-6 -104h-293l-6 104l75 6v426h-252v-427l76 -5z" />
    <glyph glyph-name="afii10034" unicode="&#x420;" horiz-adv-x="620" 
d="M307 543h-54v-238h54q59 0 94.5 30.5t35.5 96.5q0 61 -34 86t-96 25zM340 0h-299l-6 104l75 6v437l-76 6l7 97h292q264 0 264 -209q0 -60 -23.5 -107t-62 -75t-83.5 -42.5t-92 -14.5h-83v-106l94 -5z" />
    <glyph glyph-name="afii10035" unicode="&#x421;" horiz-adv-x="665" 
d="M611 401h-118l-11 117q-44 31 -99 31q-82 0 -133 -56t-51 -160q0 -106 52.5 -169t147.5 -63q34 0 67.5 10t57 23.5t42.5 27.5t28 24l9 10l57 -94q-3 -5 -10 -13t-31.5 -29t-53.5 -37t-77.5 -29t-103.5 -13q-172 0 -258 96t-86 256q0 150 91 242t230 92q74 0 140 -44
l22 34h88v-256z" />
    <glyph glyph-name="afii10036" unicode="&#x422;" horiz-adv-x="599" 
d="M107 453h-110l7 204l130 -7h338l131 7v-204h-111l-9 83h-106v-427l76 -5l-7 -104h-292l-7 104l75 6v426h-104z" />
    <glyph glyph-name="afii10037" unicode="&#x423;" horiz-adv-x="687" 
d="M288 553l-40 -4l137 -251h2l95 246l-45 2l7 104h257v-97l-71 -4l-167 -369q-51 -112 -115 -155t-172 -43q-30 0 -55.5 5t-36.5 11l-10 5l-8 186l105 7l13 -100h12q35 0 60 13t51 50l-228 390l-89 4l7 97h291v-97z" />
    <glyph glyph-name="afii10038" unicode="&#x424;" horiz-adv-x="833" 
d="M183 349q0 -64 37.5 -90.5t126.5 -27.5v228q-92 -1 -128 -23.5t-36 -86.5zM650 350q0 63 -37 85.5t-128 23.5v-228q89 1 127 27.5t38 91.5zM568 0h-303l-6 92l88 6v39q-323 3 -323 216q0 109 82.5 152.5t240.5 45.5v37l-75 6l7 84h275v-84l-69 -6v-37q77 -1 133 -10.5
t100.5 -31t67.5 -60.5t23 -95q0 -214 -324 -217v-40l90 -5z" />
    <glyph glyph-name="afii10039" unicode="&#x425;" horiz-adv-x="722" 
d="M302 553l-21 -2l83 -122h1l81 116l-21 1v104h283v-104l-103 -4l-153 -213l161 -222l110 -3l-7 -104h-298v97l21 1l-84 124h-1l-81 -117l24 -1v-104h-290l-7 104l109 5l158 214l-161 225l-102 5l6 97h292v-97z" />
    <glyph glyph-name="afii10040" unicode="&#x426;" horiz-adv-x="796" 
d="M334 553l-70 -6v-433h252v433l-76 6l7 97h293v-97l-70 -6v-433h94l-18 -272h-130l-15 158h-560l-6 104l75 6v437l-76 6l7 97h293v-97z" />
    <glyph glyph-name="afii10041" unicode="&#x427;" horiz-adv-x="716" 
d="M296 553l-62 -6v-115q0 -54 23.5 -77t75.5 -23q64 0 119 25v190l-67 6l6 97h285v-97l-70 -6v-438l77 -5l-7 -104h-307l-7 104l90 6v139h-1q-6 -4 -18.5 -10.5t-58 -17t-99.5 -10.5q-103 0 -149 53t-46 142v141l-65 6l6 97h275v-97z" />
    <glyph glyph-name="afii10042" unicode="&#x428;" horiz-adv-x="1048" 
d="M653 553l-52 -6v-433h184v433l-58 6l7 97h275v-97l-70 -6v-438l76 -5l-7 -104h-967l-6 104l75 6v437l-76 6l7 97h274v-97l-51 -6v-433h183v433l-57 6l7 97h256v-97z" />
    <glyph glyph-name="afii10043" unicode="&#x429;" horiz-adv-x="1065" 
d="M1009 553l-70 -6v-433h91l-17 -272h-130l-13 158h-829l-6 104l75 6v437l-76 6l7 97h274v-97l-51 -6v-433h183v433l-57 6l7 97h256v-97l-52 -6v-433h184v433l-58 6l7 97h275v-97z" />
    <glyph glyph-name="afii10044" unicode="&#x42a;" horiz-adv-x="754" 
d="M420 300h-58v-194h59q144 0 144 106q0 50 -35.5 69t-109.5 19zM429 0h-290l-6 104l75 6v426h-90l-11 -83h-110l7 204l130 -7h298v-97l-70 -6v-144h58q295 0 295 -184q0 -101 -73.5 -160t-212.5 -59z" />
    <glyph glyph-name="afii10045" unicode="&#x42b;" horiz-adv-x="991" 
d="M951 0h-293l-6 104l75 6v437l-76 6l7 97h293v-104l-70 -6v-438l76 -4zM322 300h-58v-194h59q144 0 144 106q0 50 -35.5 69t-109.5 19zM331 0h-290l-6 104l75 6v437l-76 6l7 97h293v-97l-70 -6v-144h58q295 0 295 -184q0 -101 -73.5 -160t-212.5 -59z" />
    <glyph glyph-name="afii10046" unicode="&#x42c;" horiz-adv-x="656" 
d="M322 300h-58v-194h59q144 0 144 106q0 50 -35.5 69t-109.5 19zM331 0h-290l-6 104l75 6v437l-76 6l7 97h293v-97l-70 -6v-144h58q295 0 295 -184q0 -101 -73.5 -160t-212.5 -59z" />
    <glyph glyph-name="afii10047" unicode="&#x42d;" horiz-adv-x="647" 
d="M7 85l58 94q9 -9 25.5 -22t67.5 -34.5t103 -21.5q80 0 124.5 39.5t56.5 124.5l-328 -1v111h331q-6 95 -44 136.5t-121 41.5q-56 0 -103 -29l-6 -59h-104l6 192h81l14 -31q74 41 135 41q155 0 230.5 -88.5t75.5 -246.5q0 -167 -88.5 -259t-254.5 -92q-54 0 -101 10.5
t-74.5 26t-47.5 31t-28 25.5z" />
    <glyph glyph-name="afii10048" unicode="&#x42e;" horiz-adv-x="1085" 
d="M703 99q89 0 136.5 65t47.5 171q0 103 -47 158.5t-137 55.5q-89 0 -135.5 -55.5t-46.5 -158.5q0 -106 47 -171t135 -65zM334 0h-293l-6 104l75 6v437l-76 6l7 97h293v-90l-70 -6v-174h94q13 134 103 210.5t242 76.5q165 0 254.5 -88.5t89.5 -243.5q0 -158 -91 -256
t-253 -98q-144 0 -234.5 79t-108.5 211h-96v-169l76 -4z" />
    <glyph glyph-name="afii10049" unicode="&#x42f;" horiz-adv-x="674" 
d="M203 446q0 -47 27 -77t63 -30h126v203h-114q-45 0 -73.5 -24.5t-28.5 -71.5zM182 0h-159l-7 104l91 3l79 137q-59 25 -95 76t-36 122q0 102 66 155t174 53h339v-104l-70 -6v-438l76 -4l-7 -98h-282l-7 90l75 6v128h-107l-93 -182z" />
    <glyph glyph-name="afii10065" unicode="&#x430;" horiz-adv-x="561" 
d="M252 80q30 0 53.5 13.5t30.5 23.5t10 17v86q-48 -4 -72.5 -7t-50.5 -10.5t-36.5 -21t-10.5 -34.5q0 -67 76 -67zM180 331h-109l6 177h87l12 -30q61 40 129 40q87 0 137.5 -47.5t50.5 -147.5v-221l55 -4l-7 -98h-168l-19 49q-1 -3 -4 -7.5t-15 -16t-27.5 -20.5t-43 -16.5
t-59.5 -7.5q-84 0 -132.5 41t-48.5 111q0 24 7.5 44.5t17.5 35.5t30 28t35.5 22t43.5 16.5t45 11.5t49.5 8.5t47 6t46.5 4.5v10q0 53 -18.5 74.5t-61.5 21.5q-49 0 -79 -26z" />
    <glyph glyph-name="afii10066" unicode="&#x431;" horiz-adv-x="594" 
d="M301 414q-61 0 -88 -31t-29 -90v-32q0 -178 117 -178t117 177q0 82 -27 118t-90 36zM503 615l-54 2l-73 -4q-124 -8 -174.5 -46t-59.5 -115q63 65 173 65q121 0 188 -66.5t67 -190.5q0 -126 -73 -202.5t-196 -76.5q-139 0 -205.5 82t-66.5 233q0 41 1 69.5t5 69.5
t13 70.5t23 64.5t37 59.5t54 48t75 37.5t98 20l76 8l9 33l98 -7z" />
    <glyph glyph-name="afii10067" unicode="&#x432;" horiz-adv-x="570" 
d="M226 288h97q2 0 6 1t14.5 5t18 10t14 18t6.5 27q0 28 -19 41.5t-68 13.5h-69v-116zM310 218h-84v-122h72q57 0 79 18t22 51q0 53 -89 53zM298 0h-261l-7 104l56 6v280l-52 6l6 104h257q127 0 177 -33t50 -99q0 -67 -77 -106q97 -32 97 -108q0 -154 -246 -154z" />
    <glyph glyph-name="afii10068" unicode="&#x433;" horiz-adv-x="462" 
d="M289 0h-252l-7 104l56 6v280l-52 6l6 104h296l109 7l1 -208h-110l-7 91h-96v-288l63 -4z" />
    <glyph glyph-name="afii10069" unicode="&#x434;" horiz-adv-x="612" 
d="M264 394q-6 -171 -51 -288h174v288h-123zM110 -142h-95l-9 248h80q55 110 64 276l-79 7l6 111h455v-394h79l-11 -248h-109l-15 142h-350z" />
    <glyph glyph-name="afii10070" unicode="&#x435;" horiz-adv-x="528" 
d="M280 416q-49 0 -75 -28t-33 -85h200q1 13 1 22q0 91 -93 91zM487 208h-314q17 -120 133 -120q35 0 66.5 14t45.5 28l14 13l67 -72q-2 -4 -7 -10t-23 -21.5t-39.5 -27.5t-56.5 -21.5t-74 -9.5q-130 0 -202.5 69.5t-72.5 201.5q0 128 70.5 197t185.5 69q110 0 168.5 -57.5
t58.5 -164.5q0 -23 -5 -45t-10 -33z" />
    <glyph glyph-name="afii10072" unicode="&#x436;" horiz-adv-x="835" 
d="M518 0h-208l-7 90l43 6v113h-49l-87 -174l-33 -35h-169v97l77 4l95 161l-69 130l-84 4l7 104h189v-50l59 -139h64v99l-43 6l7 84h179v-189l64 1l33 76l-12 1l8 111h219v-104l-73 -4l-69 -128l93 -164l82 -2l-7 -98h-170l-35 41l-84 168h-49v-120l36 -2z" />
    <glyph glyph-name="afii10073" unicode="&#x437;" horiz-adv-x="500" 
d="M159 337h-110l6 171h88l11 -28q60 39 112 39q78 0 130 -35.5t52 -98.5q0 -67 -68 -115q95 -28 95 -116q0 -78 -67 -125.5t-170 -47.5q-51 0 -93.5 9t-66.5 22t-40.5 26t-21.5 22l-6 9l53 83q6 -7 17.5 -18t54.5 -29t93 -18q41 0 71 18t30 47q0 49 -101 49l-66 -1v92h70
q23 0 49 17.5t26 52.5q0 54 -68 54q-44 0 -75 -24z" />
    <glyph glyph-name="afii10074" unicode="&#x438;" horiz-adv-x="660" 
d="M186 0h-108v390l-52 6l7 104h192v-282l213 279l1 3h187v-104l-52 -6v-288l56 -4l-7 -98h-245v90l49 12v214l-239 -311z" />
    <glyph glyph-name="afii10075" unicode="&#x439;" horiz-adv-x="660" 
d="M186 0h-108v390l-52 6l7 104h192v-282l213 279l1 3h187v-104l-52 -6v-288l56 -4l-7 -98h-245v90l49 12v214l-239 -311zM337 654q33 0 51.5 14t20.5 28l2 14v2l129 -18q-1 -5 -2.5 -14t-14 -31.5t-32 -40t-60.5 -31.5t-94 -14t-93 13.5t-60 32.5t-32 38.5t-14 32.5l-3 14
l129 18v-2q0 -2 0.5 -6t4.5 -13.5t10.5 -17t22 -13.5t35.5 -6z" />
    <glyph glyph-name="afii10076" unicode="&#x43a;" horiz-adv-x="593" 
d="M268 0h-231l-7 104l56 6v280l-66 6l7 104h206v-198l69 29l38 70l-20 2l7 97h231v-104l-97 -14l-71 -101l105 -167l96 -3l-7 -111h-171l-40 41l-108 175l-32 -14v-106l42 -5z" />
    <glyph glyph-name="afii10077" unicode="&#x43b;" horiz-adv-x="590" 
d="M561 0h-245l-6 104l54 6v280h-97q-18 -396 -218 -396q-23 0 -50 6l-1 102q14 -2 20 -2q56 0 86 65.5t37 216.5l-79 7l7 111h443v-398l56 -4z" />
    <glyph glyph-name="afii10078" unicode="&#x43c;" horiz-adv-x="827" 
d="M105 390l-57 6l6 104h247l115 -372h2l118 372h243v-104l-50 -6l9 -289l58 -3l-6 -98h-181l-8 264l-1 72h-4l-117 -336h-134l-127 334h-3v-17l-12 -215l46 -4l-7 -98h-207l-6 104l56 5l22 283z" />
    <glyph glyph-name="afii10079" unicode="&#x43d;" horiz-adv-x="655" 
d="M268 0h-231l-7 104l56 6v280l-52 6l6 104h193v-192h190v102l-39 6v84h231v-104l-46 -6v-288l56 -4l-7 -98h-195v206h-190v-117l42 -5z" />
    <glyph glyph-name="afii10080" unicode="&#x43e;" horiz-adv-x="586" 
d="M293 83q117 0 117 170q0 81 -27.5 122t-89.5 41q-117 0 -117 -163q0 -170 117 -170zM293 -19q-129 0 -199 73.5t-70 200.5q0 125 69.5 194t199.5 69t199.5 -69t69.5 -194t-72 -199.5t-197 -74.5z" />
    <glyph glyph-name="afii10081" unicode="&#x43f;" horiz-adv-x="647" 
d="M610 0h-196v390h-181v-287l55 -5l-6 -98h-245l-7 104l56 6v279l-52 7l6 104h566v-104l-45 -7v-286l55 -5z" />
    <glyph glyph-name="afii10082" unicode="&#x440;" 
d="M326 410q-30 0 -55.5 -13t-34 -22.5t-12.5 -16.5v-233q3 -4 10 -10t32 -16.5t54 -10.5q129 0 129 180q0 82 -28 112t-95 30zM273 -250h-244l-6 104l55 6v530l-52 6l7 104h173l10 -35h2q5 6 16.5 15t52.5 23.5t91 14.5q104 0 164 -66.5t60 -180.5q0 -125 -62.5 -207.5
t-168.5 -82.5q-44 0 -80 9t-49 18l-14 9h-4v-165l56 -4z" />
    <glyph glyph-name="afii10083" unicode="&#x441;" horiz-adv-x="503" 
d="M472 304h-110l-8 82q-30 30 -72 30q-53 0 -79 -35t-26 -121q0 -175 131 -175q32 0 63.5 15.5t46.5 31.5l15 15l63 -70q-2 -4 -6.5 -10.5t-22 -23t-38.5 -29t-58 -23t-79 -10.5q-133 0 -200.5 73t-67.5 204q0 121 63.5 190.5t173.5 69.5q51 0 108 -40l16 30h89z" />
    <glyph glyph-name="afii10084" unicode="&#x442;" horiz-adv-x="566" 
d="M550 299h-103l-4 91h-86v-288l55 -4l-7 -98h-244l-7 104l55 6v280h-83l-7 -91h-103l4 201v7l100 -7h332l101 7z" />
    <glyph glyph-name="afii10085" unicode="&#x443;" horiz-adv-x="562" 
d="M5 -238l13 101q45 -16 81 -16q70 0 121 152l-164 392l-72 5l6 104h185l122 -341h2l79 233l-49 4v104h243v-104l-66 -6l-154 -410q-94 -249 -236 -249q-44 0 -72 8t-34 15z" />
    <glyph glyph-name="afii10086" unicode="&#x444;" horiz-adv-x="728" 
d="M560 261q0 82 -31.5 117t-94.5 37v-330q126 10 126 176zM168 260q0 -167 126 -176v331q-64 -3 -95 -37.5t-31 -117.5zM482 -250h-237l-6 104l55 6v121q-125 2 -197.5 78t-72.5 201q0 124 71 190t199 68v122l-52 6l7 104h185v-232q127 -2 198.5 -68t71.5 -189
q0 -125 -72.5 -201.5t-197.5 -78.5v-129l55 -4z" />
    <glyph glyph-name="afii10087" unicode="&#x445;" horiz-adv-x="594" 
d="M585 0h-171l-37 37l-85 142h-1l-57 -94l-6 -85h-218v104l93 5l101 144l-94 139l-97 4l7 104h185l96 -169h2l38 67h-2l7 102h223v-104l-89 -5l-91 -132l108 -159l94 -2z" />
    <glyph glyph-name="afii10088" unicode="&#x446;" horiz-adv-x="641" 
d="M624 -142h-123l-2 142h-462l-7 104l56 6v280l-52 6l6 104h193v-390h181v280l-52 6l6 104h193v-390h73z" />
    <glyph glyph-name="afii10089" unicode="&#x447;" horiz-adv-x="575" 
d="M350 279v111l-52 6l7 104h192v-398l55 -4l-7 -98h-253l-7 97l65 5v90q-42 -22 -140 -22q-77 0 -123 38.5t-46 112.5v69l-52 6l7 104h195v-162q0 -32 18.5 -54.5t53.5 -22.5q24 0 45.5 4.5t31.5 8.5z" />
    <glyph glyph-name="afii10090" unicode="&#x448;" horiz-adv-x="873" 
d="M843 0h-806l-7 104l56 6v280l-52 6l6 104h186v-390h144v280l-51 6l7 104h185v-390h143v280l-49 6l7 104h183v-398l55 -4z" />
    <glyph glyph-name="afii10091" unicode="&#x449;" horiz-adv-x="874" 
d="M858 -142h-123l-2 142h-696l-7 104l56 6v280l-52 6l6 104h186v-390h144v280l-51 6l7 104h185v-390h143v280l-49 6l7 104h183v-390h73z" />
    <glyph glyph-name="afii10092" unicode="&#x44a;" horiz-adv-x="667" 
d="M395 244h-58v-148h59q102 0 102 84q0 39 -26.5 51.5t-76.5 12.5zM141 0l-7 104l56 6v280h-63l-8 -84h-103l8 201l100 -7h262v-84l-49 -6v-72h61q252 0 252 -154q0 -90 -64 -137t-187 -47h-258z" />
    <glyph glyph-name="afii10093" unicode="&#x44b;" horiz-adv-x="857" 
d="M291 244h-58v-148h59q102 0 102 84q0 39 -26.5 51.5t-76.5 12.5zM37 0l-7 104l56 6v280l-52 6l6 104h193v-162h61q252 0 252 -154q0 -90 -64 -137t-187 -47h-258zM820 0h-195v410l-38 6l6 84h224v-104l-45 -6v-288l55 -4z" />
    <glyph glyph-name="afii10094" unicode="&#x44c;" horiz-adv-x="563" 
d="M291 244h-58v-148h59q102 0 102 84q0 39 -26.5 51.5t-76.5 12.5zM37 0l-7 104l56 6v280l-52 6l6 104h193v-162h61q252 0 252 -154q0 -90 -64 -137t-187 -47h-258z" />
    <glyph glyph-name="afii10095" unicode="&#x44d;" horiz-adv-x="514" 
d="M15 59l49 78q6 -6 16.5 -14.5t47.5 -22.5t78 -14q60 0 93 25t44 79l-225 -1v110l229 -1q-5 67 -31.5 91.5t-76.5 24.5q-41 0 -74 -22l-6 -48h-109l6 164h80l16 -27q56 37 107 37q100 0 165.5 -67.5t65.5 -181.5q0 -138 -73 -213t-194 -75q-45 0 -83 8t-60 19.5t-37.5 23
t-21.5 19.5z" />
    <glyph glyph-name="afii10096" unicode="&#x44e;" horiz-adv-x="834" 
d="M552 83q113 0 113 178q0 79 -25 117t-88 38q-62 0 -86.5 -37.5t-24.5 -117.5q0 -178 111 -178zM268 0h-231l-7 104l56 6v280l-52 6l6 104h193v-192h67q12 102 76.5 156t172.5 54q130 0 195.5 -65.5t65.5 -191.5q0 -129 -67 -204.5t-194 -75.5q-103 0 -169 60t-80 165h-67
v-117l42 -5z" />
    <glyph glyph-name="afii10097" unicode="&#x44f;" horiz-adv-x="576" 
d="M180 335q0 -37 24.5 -58t60.5 -21h78v148h-62q-53 0 -77 -15t-24 -54zM176 0h-153l-7 104l83 4l44 86q-47 25 -76 62.5t-29 81.5q0 162 229 162h269v-104l-46 -6v-288l56 -4l-7 -98h-196v162h-76l-56 -120z" />
    <glyph glyph-name="uni0450" unicode="&#x450;" horiz-adv-x="528" 
d="M350 581l-98 -9l-139 139l138 17zM280 416q-49 0 -75 -28t-33 -85h200q1 13 1 22q0 91 -93 91zM487 208h-314q17 -120 133 -120q35 0 66.5 14t45.5 28l14 13l67 -72q-2 -4 -7 -10t-23 -21.5t-39.5 -27.5t-56.5 -21.5t-74 -9.5q-130 0 -202.5 69.5t-72.5 201.5
q0 128 70.5 197t185.5 69q110 0 168.5 -57.5t58.5 -164.5q0 -23 -5 -45t-10 -33z" />
    <glyph glyph-name="afii10071" unicode="&#x451;" horiz-adv-x="528" 
d="M230 652q0 -26 -17.5 -48t-56.5 -22t-56.5 22.5t-17.5 47.5q0 29 20.5 49t53.5 20t53.5 -19t20.5 -50zM443 652q0 -26 -17.5 -48t-56.5 -22t-56.5 22.5t-17.5 47.5q0 29 20.5 49t53.5 20t53.5 -19t20.5 -50zM280 416q-49 0 -75 -28t-33 -85h200q1 13 1 22q0 91 -93 91z
M487 208h-314q17 -120 133 -120q35 0 66.5 14t45.5 28l14 13l67 -72q-2 -4 -7 -10t-23 -21.5t-39.5 -27.5t-56.5 -21.5t-74 -9.5q-130 0 -202.5 69.5t-72.5 201.5q0 128 70.5 197t185.5 69q110 0 168.5 -57.5t58.5 -164.5q0 -23 -5 -45t-10 -33z" />
    <glyph glyph-name="afii10099" unicode="&#x452;" horiz-adv-x="624" 
d="M563 -35q0 -106 -54 -163.5t-132 -57.5q-57 0 -106 30l37 111q24 -12 45 -12q28 0 45.5 22t17.5 70v255q0 87 -90 87q-31 0 -56.5 -9t-33.5 -16t-12 -12v-168l57 -4l-7 -98h-245l-6 104l55 6v384h-57v92l57 4v57l-52 6l7 97h191v-158h191v-98h-191v-107h6l3 2q3 2 9 5.5
t14 8t20.5 9t27 8t33.5 5.5t40 2q89 0 137.5 -45.5t48.5 -133.5v-283z" />
    <glyph glyph-name="afii10100" unicode="&#x453;" horiz-adv-x="462" 
d="M276 572l-98 7l95 148l140 -16zM289 0h-252l-7 104l56 6v280l-52 6l6 104h296l109 7l1 -208h-110l-7 91h-96v-288l63 -4z" />
    <glyph glyph-name="afii10101" unicode="&#x454;" horiz-adv-x="507" 
d="M469 347h-109l-6 43q-31 23 -70 23q-53 0 -78 -25.5t-30 -90.5l221 1v-110h-216q20 -100 128 -100q38 0 73 11t51 23l16 11l40 -76q-2 -3 -6.5 -8t-22.5 -18.5t-40 -23.5t-59.5 -18t-80.5 -8q-129 0 -192.5 73.5t-63.5 204.5q0 120 67.5 189.5t173.5 69.5q48 0 104 -34
l13 24h88z" />
    <glyph glyph-name="afii10102" unicode="&#x455;" horiz-adv-x="467" 
d="M426 347h-96l-8 45q-36 27 -78 27q-28 0 -46 -11t-18 -31q0 -21 27.5 -36.5t66 -28.5t77.5 -29.5t66.5 -49t27.5 -77.5q0 -81 -57 -128t-179 -47q-44 0 -85.5 6.5t-61.5 12.5l-19 6l-13 150l90 6l10 -71q40 -10 75 -10q89 0 89 57q0 19 -19 32.5t-48 21.5t-62.5 21
t-62.5 28.5t-48 46t-19 72.5q0 72 53.5 115t133.5 43q59 0 117 -37l16 27h72z" />
    <glyph glyph-name="afii10103" unicode="&#x456;" horiz-adv-x="311" 
d="M244 651q0 -35 -22.5 -56.5t-61.5 -21.5t-62.5 22.5t-23.5 56.5t22.5 56t62.5 22q41 0 63 -22.5t22 -56.5zM282 0h-245l-7 104l56 6v280l-52 6l6 104h193v-398l55 -4z" />
    <glyph glyph-name="afii10104" unicode="&#x457;" horiz-adv-x="311" 
d="M125 652q0 -26 -17.5 -48t-56.5 -22t-56.5 22.5t-17.5 47.5q0 29 20.5 49t53.5 20t53.5 -19t20.5 -50zM338 652q0 -26 -17.5 -48t-56.5 -22t-56.5 22.5t-17.5 47.5q0 29 20.5 49t53.5 20t53.5 -19t20.5 -50zM282 0h-245l-7 104l56 6v280l-52 6l6 104h193v-398l55 -4z" />
    <glyph glyph-name="afii10105" unicode="&#x458;" horiz-adv-x="296" 
d="M245 651q0 -35 -22.5 -56.5t-61.5 -21.5t-62.5 22.5t-23.5 56.5t22.5 56t62.5 22q41 0 63 -22.5t22 -56.5zM-75 -243l37 111q33 -11 65 -11q26 0 42.5 31t16.5 86v416l-52 6l7 104h191v-526q0 -120 -55.5 -181.5t-132.5 -61.5q-41 0 -70.5 6.5t-39.5 12.5z" />
    <glyph glyph-name="afii10106" unicode="&#x459;" horiz-adv-x="842" 
d="M570 244h-58v-148h59q102 0 102 84q0 39 -26.5 51.5t-76.5 12.5zM316 0l-7 104l55 6v280h-97q-18 -396 -218 -396q-23 0 -50 6l-1 102q14 -2 20 -2q56 0 86 65.5t37 216.5l-79 7l7 111h443v-162h61q252 0 252 -154q0 -90 -64 -137t-187 -47h-258z" />
    <glyph glyph-name="afii10107" unicode="&#x45a;" horiz-adv-x="899" 
d="M627 244h-58v-148h59q103 0 103 84q0 39 -27 51.5t-77 12.5zM615 416l-46 -6v-72h61q252 0 252 -154q0 -90 -64 -137t-187 -47h-209l1 5v201h-190v-117l42 -5l-7 -84h-231l-7 104l56 6v280l-52 6l6 104h193v-192h190v102l-39 6v84h231v-84z" />
    <glyph glyph-name="afii10108" unicode="&#x45b;" horiz-adv-x="632" 
d="M274 0h-245l-6 104l55 6v384h-57v92l57 4v57l-52 6l7 97h191v-158h191v-98h-191v-107h6l3 2q3 2 9 5.5t14 8t20.5 9t27 8t33.5 5.5t40 2q89 0 137.5 -45.5t48.5 -133.5v-146l55 -4l-7 -98h-195v220q0 87 -90 87q-32 0 -57.5 -9.5t-34.5 -18.5l-10 -9v-168l57 -4z" />
    <glyph glyph-name="afii10109" unicode="&#x45c;" horiz-adv-x="593" 
d="M352 572l-98 7l95 148l140 -16zM268 0h-231l-7 104l56 6v280l-66 6l7 104h206v-198l69 29l38 70l-20 2l7 97h231v-104l-97 -14l-71 -101l105 -167l96 -3l-7 -111h-171l-40 41l-108 175l-32 -14v-106l42 -5z" />
    <glyph glyph-name="uni045D" unicode="&#x45d;" horiz-adv-x="660" 
d="M398 581l-98 -9l-139 139l138 17zM186 0h-108v390l-52 6l7 104h192v-282l213 279l1 3h187v-104l-52 -6v-288l56 -4l-7 -98h-245v90l49 12v214l-239 -311z" />
    <glyph glyph-name="afii10110" unicode="&#x45e;" horiz-adv-x="562" 
d="M5 -238l13 101q45 -16 81 -16q70 0 121 152l-164 392l-72 5l6 104h185l122 -341h2l79 233l-49 4v104h243v-104l-66 -6l-154 -410q-94 -249 -236 -249q-44 0 -72 8t-34 15zM287 654q33 0 51.5 14t20.5 28l2 14v2l129 -18q-1 -5 -2.5 -14t-14 -31.5t-32 -40t-60.5 -31.5
t-94 -14t-93 13.5t-60 32.5t-32 38.5t-14 32.5l-3 14l129 18v-2q0 -2 0.5 -6t4.5 -13.5t10.5 -17t22 -13.5t35.5 -6z" />
    <glyph glyph-name="afii10193" unicode="&#x45f;" horiz-adv-x="668" 
d="M400 -142h-124l-3 142h-236l-7 104l56 6v280l-52 6l6 104h193v-390h210v300l-38 6l7 84h178v-398l56 -4l-7 -98h-234z" />
    <glyph glyph-name="afii10146" unicode="&#x462;" horiz-adv-x="735" 
d="M401 300h-57v-194h58q145 0 145 106q0 50 -36 69t-110 19zM413 652l-70 -6v-24h1v-15h123l123 6v-163h-111l-4 43h-131v-90h58q295 0 295 -184q0 -101 -73.5 -160t-213.5 -59h-289l-7 104l75 6v383h-72l-11 -74h-117l6 194l139 -6h55v39l-73 6l7 63h290v-63z" />
    <glyph glyph-name="afii10194" unicode="&#x463;" horiz-adv-x="643" 
d="M372 244h-58v-148h58q103 0 103 83q0 38 -27.5 51.5t-75.5 13.5zM101 335h-88l8 172l88 -7h58v100h147v-100h109l95 7l1 -133h-95l-4 33h-106v-69h61q252 0 252 -154q0 -90 -64 -137t-188 -47h-257l-7 104l56 6v280h-59z" />
    <glyph glyph-name="afii10050" unicode="&#x490;" horiz-adv-x="499" 
d="M344 0h-303l-6 104l75 6v437l-76 6l7 97h338l1 100h116l7 -214h-239v-434l86 -4z" />
    <glyph glyph-name="afii10098" unicode="&#x491;" horiz-adv-x="418" 
d="M282 0h-245l-7 104l56 6v280l-52 7l6 103h255l1 126h111l8 -236h-182v-288l55 -4z" />
    <glyph glyph-name="uni1E9E" unicode="&#x1e9e;" horiz-adv-x="753" 
d="M487 290q-27 0 -35 -21l-119 43l118 218h-72q-75 0 -107 -33t-32 -107v-390h-223l-7 97l76 6v311q0 236 289 236h234l6 -79l-98 -180q86 -2 141.5 -50.5t55.5 -133.5q0 -102 -72 -164t-175 -62q-49 0 -86.5 5t-50.5 10l-13 6l-7 154l95 7l9 -60q19 -3 42 -3q48 0 77.5 29
t29.5 77q0 84 -76 84z" />
    <glyph glyph-name="uni2002" unicode="&#x2002;" horiz-adv-x="495" 
 />
    <glyph glyph-name="uni2003" unicode="&#x2003;" horiz-adv-x="990" 
 />
    <glyph glyph-name="uni2004" unicode="&#x2004;" horiz-adv-x="330" 
 />
    <glyph glyph-name="uni2005" unicode="&#x2005;" horiz-adv-x="247" 
 />
    <glyph glyph-name="uni2009" unicode="&#x2009;" horiz-adv-x="198" 
 />
    <glyph glyph-name="uni200A" unicode="&#x200a;" horiz-adv-x="40" 
 />
    <glyph glyph-name="uni2011" unicode="&#x2011;" horiz-adv-x="375" 
d="M343 221h-311v108h311v-108z" />
    <glyph glyph-name="endash" unicode="&#x2013;" horiz-adv-x="596" 
d="M564 221h-532v108h532v-108z" />
    <glyph glyph-name="emdash" unicode="&#x2014;" horiz-adv-x="775" 
d="M743 221h-711v108h711v-108z" />
    <glyph glyph-name="afii00208" unicode="&#x2015;" horiz-adv-x="775" 
d="M743 221h-711v108h711v-108z" />
    <glyph glyph-name="quoteleft" unicode="&#x2018;" horiz-adv-x="202" 
d="M100 433q-40 0 -62.5 27.5t-22.5 71.5q0 59 36.5 124.5t89.5 101.5l50 -45q-80 -64 -80 -142q20 -3 34.5 -12t20 -20.5t8 -20t2.5 -16.5q0 -29 -21.5 -49t-54.5 -20z" />
    <glyph glyph-name="quoteright" unicode="&#x2019;" horiz-adv-x="211" 
d="M101 755q39 0 61.5 -27t22.5 -73q0 -59 -36.5 -124t-89.5 -101l-50 46q79 62 81 140q-30 4 -47.5 23t-17.5 46q0 31 21.5 50.5t54.5 19.5z" />
    <glyph glyph-name="quotesinglbase" unicode="&#x201a;" horiz-adv-x="211" 
d="M101 154q39 0 61.5 -28t22.5 -72q0 -59 -36.5 -124t-89.5 -101l-50 46q79 62 81 141q-31 4 -48 23t-17 46q0 30 22 49.5t54 19.5z" />
    <glyph glyph-name="quotedblleft" unicode="&#x201c;" horiz-adv-x="416" 
d="M314 433q-40 0 -62.5 27.5t-22.5 71.5q0 59 36.5 124.5t89.5 101.5l50 -45q-80 -64 -80 -142q20 -3 34.5 -12t20 -20.5t8 -20t2.5 -16.5q0 -29 -21.5 -49t-54.5 -20zM100 433q-40 0 -62.5 27.5t-22.5 71.5q0 59 36.5 124.5t89.5 101.5l50 -45q-80 -64 -80 -142
q20 -3 34.5 -12t20 -20.5t8 -20t2.5 -16.5q0 -29 -21.5 -49t-54.5 -20z" />
    <glyph glyph-name="quotedblright" unicode="&#x201d;" horiz-adv-x="425" 
d="M315 755q39 0 61.5 -27t22.5 -73q0 -59 -36.5 -124t-89.5 -101l-50 46q79 62 81 140q-30 4 -47.5 23t-17.5 46q0 31 21.5 50.5t54.5 19.5zM101 755q39 0 61.5 -27t22.5 -73q0 -59 -36.5 -124t-89.5 -101l-50 46q79 62 81 140q-30 4 -47.5 23t-17.5 46q0 31 21.5 50.5
t54.5 19.5z" />
    <glyph glyph-name="quotedblbase" unicode="&#x201e;" horiz-adv-x="425" 
d="M315 154q39 0 61.5 -28t22.5 -72q0 -59 -36.5 -124t-89.5 -101l-50 46q79 62 81 141q-31 4 -48 23t-17 46q0 30 22 49.5t54 19.5zM101 154q39 0 61.5 -28t22.5 -72q0 -59 -36.5 -124t-89.5 -101l-50 46q79 62 81 141q-31 4 -48 23t-17 46q0 30 22 49.5t54 19.5z" />
    <glyph glyph-name="dagger" unicode="&#x2020;" horiz-adv-x="562" 
d="M507 351h-157l3 -601h-141l2 601h-160v107h171l-3 192h120l-3 -192h168v-107z" />
    <glyph glyph-name="daggerdbl" unicode="&#x2021;" horiz-adv-x="562" 
d="M340 -250h-119l2 173h-169v107h171l-3 170l1 170h-169v107h166l-2 173h124l-2 -173h167v-107h-169v-170l-2 -170h171v-107h-170z" />
    <glyph glyph-name="bullet" unicode="&#x2022;" horiz-adv-x="424" 
d="M66 330q0 53 36.5 88.5t100.5 35.5q56 0 96 -31q40 -39 40 -93q0 -56 -40 -93q-41 -32 -96 -32q-59 0 -98 34.5t-39 90.5z" />
    <glyph glyph-name="ellipsis" unicode="&#x2026;" horiz-adv-x="916" 
d="M837 64q0 -34 -24.5 -57t-63.5 -23q-38 0 -63 22t-25 58q0 35 24 58t64 23t64 -23.5t24 -57.5zM545 64q0 -34 -24.5 -57t-63.5 -23q-38 0 -63 22t-25 58q0 35 24 58t64 23t64 -23.5t24 -57.5zM252 64q0 -34 -24.5 -57t-63.5 -23q-38 0 -63 22t-25 58q0 35 24 58t64 23
t64 -23.5t24 -57.5z" />
    <glyph glyph-name="perthousand" unicode="&#x2030;" horiz-adv-x="1443" 
d="M1203 82q82 0 82 104q0 101 -82 101q-79 0 -79 -101q0 -104 79 -104zM1203 -19q-98 0 -149 55.5t-51 148.5q0 91 53 146.5t147 55.5q92 0 147 -56t55 -146q0 -92 -53 -148t-149 -56zM753 82q82 0 82 104q0 101 -82 101q-79 0 -79 -101q0 -104 79 -104zM753 -19
q-98 0 -149 55.5t-51 148.5q0 91 53 146.5t147 55.5q92 0 147 -56t55 -146q0 -92 -53 -148t-149 -56zM239 363q82 0 82 104q0 101 -82 101q-79 0 -79 -101q0 -104 79 -104zM239 262q-98 0 -149 55.5t-51 148.5q0 91 53 146.5t147 55.5q92 0 147 -56t55 -146q0 -92 -53 -148
t-149 -56zM385 -12l-108 20l316 627l108 -20z" />
    <glyph glyph-name="guilsinglleft" unicode="&#x2039;" horiz-adv-x="398" 
d="M335 372l-115 -123l114 -124l-59 -66l-186 191l187 186z" />
    <glyph glyph-name="guilsinglright" unicode="&#x203a;" horiz-adv-x="398" 
d="M308 245l-187 -186l-60 63l115 123l-113 125l59 66z" />
    <glyph glyph-name="fraction" unicode="&#x2044;" horiz-adv-x="511" 
d="M149 -48l-88 47l389 605l87 -47z" />
    <glyph glyph-name="zerosuperior" unicode="&#x2070;" horiz-adv-x="497" 
d="M248 312q43 0 61.5 40.5t18.5 135.5q0 97 -18.5 138.5t-61.5 41.5t-61 -41.5t-18 -138.5q0 -96 18 -136t61 -40zM248 214q-216 0 -216 274q0 277 216 277q217 0 217 -277q0 -274 -217 -274z" />
    <glyph glyph-name="foursuperior" unicode="&#x2074;" horiz-adv-x="497" 
d="M441 230h-216l-6 88l53 5v55h-234l-7 79q87 158 118 307l126 -14q-30 -124 -108 -275h105v35l22 161h113v-196h54v-89l-54 -8v-55l41 -4z" />
    <glyph glyph-name="fivesuperior" unicode="&#x2075;" horiz-adv-x="496" 
d="M223 472q-52 0 -74 -22l-65 9l33 291h219l6 25l89 -6l-6 -138l-113 6h-100l-9 -74q8 1 24 1q102 0 161 -43.5t59 -124.5q0 -92 -68 -137t-170 -45q-49 0 -85 6.5t-48 13.5l-11 6l-6 131l89 6l8 -55q25 -6 61 -6q46 0 73 21.5t27 60.5q0 34 -26 54t-68 20z" />
    <glyph glyph-name="sixsuperior" unicode="&#x2076;" horiz-adv-x="497" 
d="M253 484q-45 0 -65 -25q-8 -24 -8 -52q0 -54 18 -78t56 -24q35 0 53.5 26t18.5 71q0 82 -73 82zM45 447q0 92 19 158t50 99t62 47t64 14q43 0 87 -30l13 20h73v-146h-93l-6 40q-22 18 -56 18q-39 0 -60 -27.5t-25 -92.5q46 22 97 22q84 0 137 -42t53 -127
q0 -88 -55.5 -137t-150.5 -49q-98 0 -153.5 57.5t-55.5 175.5z" />
    <glyph glyph-name="sevensuperior" unicode="&#x2077;" horiz-adv-x="497" 
d="M458 642q-110 -172 -188 -412h-154q60 180 191 402h-172l-6 -40h-89l6 164l107 -6h305v-108z" />
    <glyph glyph-name="eightsuperior" unicode="&#x2078;" horiz-adv-x="497" 
d="M179 607q0 -62 73 -76q66 15 66 77q0 35 -19.5 54t-50.5 19q-32 0 -50.5 -19t-18.5 -55zM322 375q0 62 -76 75q-71 -13 -71 -75q0 -37 20 -57t53 -20q34 0 54 20t20 57zM451 614q0 -76 -85 -118q97 -36 97 -128q0 -154 -215 -154q-214 0 -214 155q0 78 93 124
q-82 39 -82 123q0 69 56.5 109t146.5 40t146.5 -40.5t56.5 -110.5z" />
    <glyph glyph-name="ninesuperior" unicode="&#x2079;" horiz-adv-x="497" 
d="M243 493q44 0 69 29q5 22 5 51q0 54 -16.5 77.5t-54.5 23.5q-35 0 -54.5 -26.5t-19.5 -70.5q0 -84 71 -84zM452 532q0 -95 -23.5 -161.5t-62 -98.5t-76.5 -45t-79 -13q-37 0 -72.5 4t-52.5 8l-16 5l-6 140l89 6l10 -61q20 -4 48 -4q44 0 75 31.5t37 92.5q-40 -28 -97 -28
q-189 0 -189 163q0 88 57.5 141t151.5 53q99 0 152.5 -57t53.5 -176z" />
    <glyph glyph-name="zerosub" unicode="&#x2080;" horiz-adv-x="497" 
d="M248 -183q43 0 61.5 40.5t18.5 135.5q0 97 -18.5 138.5t-61.5 41.5t-61 -41.5t-18 -138.5q0 -96 18 -136t61 -40zM248 -281q-216 0 -216 274q0 277 216 277q217 0 217 -277q0 -274 -217 -274z" />
    <glyph glyph-name="onesub" unicode="&#x2081;" horiz-adv-x="496" 
d="M226 255h113v-421l92 -4l-6 -95h-320l-6 95l106 10v292l-93 -44l-40 92z" />
    <glyph glyph-name="twosub" unicode="&#x2082;" horiz-adv-x="497" 
d="M147 99h-95l6 162h74l13 -30q57 39 113 39q86 0 135 -47t49 -119q0 -121 -207 -255h122l9 39l90 -7l-7 -146h-402v110q14 5 70 44t116.5 100t60.5 103q0 40 -18 56.5t-56 16.5q-37 0 -69 -27z" />
    <glyph glyph-name="threesub" unicode="&#x2083;" horiz-adv-x="496" 
d="M426 178l-126 -134q63 -7 105 -49t42 -107q0 -82 -68.5 -125.5t-174.5 -43.5q-40 0 -75 6.5t-51 12.5l-15 7l-6 132l89 6l9 -55q30 -7 56 -7q105 0 105 69q0 29 -17 46t-49 17q-15 0 -29.5 -6t-20.5 -12l-7 -6l-59 63l136 151h-113l-7 -43h-89l7 161l107 -6h251v-77z" />
    <glyph glyph-name="foursub" unicode="&#x2084;" horiz-adv-x="497" 
d="M441 -265h-216l-6 88l53 5v55h-234l-7 79q87 158 118 307l126 -14q-30 -124 -108 -275h105v35l22 161h113v-196h54v-89l-54 -7v-56l41 -4z" />
    <glyph glyph-name="fivesub" unicode="&#x2085;" horiz-adv-x="496" 
d="M223 -23q-64 0 -74 -22l-65 9l33 291h219l6 25l89 -6l-6 -138l-113 6h-100l-9 -74q8 1 24 1q102 0 161 -43.5t59 -124.5q0 -92 -68 -137t-170 -45q-49 0 -85 6.5t-48 12.5l-11 7l-6 131l89 6l8 -54q30 -7 61 -7q46 0 73 21.5t27 60.5q0 34 -26 54t-68 20z" />
    <glyph glyph-name="sixsub" unicode="&#x2086;" horiz-adv-x="497" 
d="M253 -11q-45 0 -65 -25q-8 -24 -8 -52q0 -54 18 -78t56 -24q35 0 53.5 26t18.5 71q0 82 -73 82zM45 -48q0 92 19 158t50 99t62 47t64 14q43 0 87 -30l13 20h73v-146h-93l-6 40q-22 18 -56 18q-39 0 -60 -27.5t-25 -92.5q46 22 97 22q84 0 137 -42t53 -127
q0 -88 -55.5 -137t-150.5 -49q-98 0 -153.5 57.5t-55.5 175.5z" />
    <glyph glyph-name="sevensub" unicode="&#x2087;" horiz-adv-x="497" 
d="M458 147q-110 -172 -188 -412h-154q59 178 191 402h-172l-6 -40h-89l6 164l107 -6h305v-108z" />
    <glyph glyph-name="eightsub" unicode="&#x2088;" horiz-adv-x="497" 
d="M179 112q0 -62 73 -76q66 15 66 77q0 35 -19.5 54t-50.5 19q-32 0 -50.5 -19t-18.5 -55zM322 -120q0 64 -76 75q-28 -4 -49.5 -21t-21.5 -54t20 -57t53 -20q34 0 54 20t20 57zM451 119q0 -76 -85 -118q97 -34 97 -128q0 -154 -215 -154q-214 0 -214 155q0 78 93 124
q-82 37 -82 123q0 69 56.5 109t146.5 40t146.5 -40.5t56.5 -110.5z" />
    <glyph glyph-name="ninesub" unicode="&#x2089;" horiz-adv-x="497" 
d="M243 -2q44 0 69 29q5 22 5 51q0 54 -16.5 77.5t-54.5 23.5q-35 0 -54.5 -26.5t-19.5 -70.5q0 -84 71 -84zM452 37q0 -95 -23.5 -161.5t-62 -98.5t-76.5 -45t-79 -13q-37 0 -72.5 4.5t-52.5 8.5l-16 4l-6 140l89 6l10 -61q30 -4 48 -4q44 0 75 31.5t37 93.5
q-39 -29 -97 -29q-189 0 -189 163q0 88 57.5 141t151.5 53q99 0 152.5 -57t53.5 -176z" />
    <glyph glyph-name="Euro" unicode="&#x20ac;" horiz-adv-x="653" 
d="M523 192h-251q37 -104 166 -104q41 0 81 15.5t59 31.5l20 16l44 -77q-3 -4 -8 -10t-25 -22t-44 -28.5t-63.5 -22.5t-84.5 -10q-244 0 -300 214l-74 4v89h59q-1 14 -1 45v11l-58 3v90h67q21 109 87 169.5t173 60.5q74 0 134 -39l16 30h80v-169h-103l-6 41q-38 31 -98 31
q-59 0 -90.5 -28.5t-42.5 -95.5h263v-96h-270v-8q0 -31 1 -45h269v-96z" />
    <glyph glyph-name="uni20B4" unicode="&#x20b4;" horiz-adv-x="566" 
d="M510 218h-270q-13 -26 -13 -50q0 -38 20.5 -57t69.5 -19q33 0 63 5l10 79l103 -6l-7 -155q-6 -4 -19 -9.5t-60 -15t-103 -9.5q-212 0 -212 159q0 41 23 80l-51 6v74h120l69 57h-189v83h271q14 22 14 46q0 71 -75 71q-38 0 -71 -26l-5 -42h-97l6 168h81l9 -31
q57 41 113 41q82 0 128 -44.5t46 -106.5q0 -42 -23 -81l49 -4v-74h-118q-7 -7 -72 -57h190v-82z" />
    <glyph glyph-name="afii61352" unicode="&#x2116;" horiz-adv-x="1321" 
d="M1216 86h-311v108h311v-108zM1063 384q44 0 63 27.5t19 83.5q0 55 -19 81t-63 26q-45 0 -64 -25.5t-19 -80.5q0 -56 19.5 -84t63.5 -28zM1063 307q-108 0 -164 49.5t-56 138.5t56 138.5t164 49.5t163.5 -49.5t55.5 -138.5q0 -88 -57.5 -138t-161.5 -50zM716 -3l-155 -1
l-316 436h-3l5 -59v-264l79 -5l-7 -104h-278l-6 104l75 6v437l-76 6l7 97h228l311 -445h2l-4 45v291l-79 5l7 104h279v-104l-69 -6v-543z" />
    <glyph glyph-name="trademark" unicode="&#x2122;" horiz-adv-x="914" 
d="M274 400h-91v270h-127v80h357v-80h-139v-270zM508 400h-83l28 350h96l96 -260l116 260h89l9 -350h-85l-8 196l-88 -196h-77l-88 214z" />
    <glyph glyph-name="onethird" unicode="&#x2153;" horiz-adv-x="1057" 
d="M987 178l-126 -134q63 -7 105 -49t42 -107q0 -82 -68.5 -125.5t-174.5 -43.5q-40 0 -75 6.5t-50 12.5l-16 7l-6 132l89 6l9 -55q30 -7 56 -7q105 0 105 69q0 29 -17 46t-49 17q-15 0 -29.5 -6t-21.5 -12l-6 -6l-59 63l136 151h-113l-7 -43h-89l7 161l107 -6h251v-77z
M392 -48l-88 47l389 605l87 -47zM226 750h113v-421l92 -4l-6 -95h-320l-6 95l106 10v292l-93 -44l-40 92z" />
    <glyph glyph-name="twothirds" unicode="&#x2154;" horiz-adv-x="1091" 
d="M1021 178l-126 -134q63 -7 105 -49t42 -107q0 -82 -68.5 -125.5t-174.5 -43.5q-40 0 -75 6.5t-50 12.5l-16 7l-6 132l89 6l9 -55q30 -7 56 -7q105 0 105 69q0 29 -17 46t-49 17q-15 0 -29.5 -6t-21.5 -12l-6 -6l-59 63l136 151h-113l-7 -43h-89l7 161l107 -6h251v-77z
M426 -48l-88 47l389 605l87 -47zM147 594h-95l6 162h74l13 -30q57 39 113 39q86 0 135 -47t49 -119q0 -123 -207 -255h122l9 39l90 -7l-7 -146h-402v110q14 5 70 44t116.5 100t60.5 103q0 40 -18 56.5t-56 16.5q-37 0 -69 -27z" />
    <glyph glyph-name="oneeighth" unicode="&#x215b;" horiz-adv-x="1058" 
d="M740 112q0 -62 73 -76q66 15 66 77q0 35 -19.5 54t-50.5 19q-32 0 -50.5 -19t-18.5 -55zM883 -120q0 64 -76 75q-28 -4 -49.5 -21t-21.5 -54t20 -57t53 -20q34 0 54 20t20 57zM1012 119q0 -76 -85 -118q97 -34 97 -128q0 -154 -215 -154q-214 0 -214 155q0 78 93 124
q-82 37 -82 123q0 69 56.5 109t146.5 40t146.5 -40.5t56.5 -110.5zM392 -48l-88 47l389 605l87 -47zM226 750h113v-421l92 -4l-6 -95h-320l-6 95l106 10v292l-93 -44l-40 92z" />
    <glyph glyph-name="threeeighths" unicode="&#x215c;" horiz-adv-x="1064" 
d="M746 112q0 -62 73 -76q66 15 66 77q0 35 -19.5 54t-50.5 19q-32 0 -50.5 -19t-18.5 -55zM889 -120q0 64 -76 75q-28 -4 -49.5 -21t-21.5 -54t20 -57t53 -20q34 0 54 20t20 57zM1018 119q0 -76 -85 -118q97 -34 97 -128q0 -154 -215 -154q-214 0 -214 155q0 78 93 124
q-82 37 -82 123q0 69 56.5 109t146.5 40t146.5 -40.5t56.5 -110.5zM399 -48l-88 47l389 605l87 -47zM427 673l-126 -134q63 -7 105 -49t42 -107q0 -82 -68.5 -125.5t-174.5 -43.5q-40 0 -75 6.5t-50 13.5l-16 6l-6 132l89 6l9 -56q25 -6 56 -6q105 0 105 69q0 29 -17 46
t-49 17q-15 0 -29.5 -6t-21.5 -12l-6 -6l-59 63l136 151h-113l-7 -43h-89l7 161l107 -6h251v-77z" />
    <glyph glyph-name="fiveeighths" unicode="&#x215d;" horiz-adv-x="1052" 
d="M734 112q0 -62 73 -76q66 15 66 77q0 35 -19.5 54t-50.5 19q-32 0 -50.5 -19t-18.5 -55zM877 -120q0 64 -76 75q-28 -4 -49.5 -21t-21.5 -54t20 -57t53 -20q34 0 54 20t20 57zM1006 119q0 -76 -85 -118q97 -34 97 -128q0 -154 -215 -154q-214 0 -214 155q0 78 93 124
q-82 37 -82 123q0 69 56.5 109t146.5 40t146.5 -40.5t56.5 -110.5zM387 -48l-88 47l389 605l87 -47zM223 472q-52 0 -74 -22l-65 9l33 291h219l6 25l89 -6l-6 -138l-113 6h-100l-9 -74q8 1 24 1q102 0 161 -43.5t59 -124.5q0 -92 -68 -137t-170 -45q-49 0 -85 6.5t-48 13.5
l-11 6l-6 131l89 6l8 -55q25 -6 61 -6q46 0 73 21.5t27 60.5q0 34 -26 54t-68 20z" />
    <glyph glyph-name="seveneighths" unicode="&#x215e;" horiz-adv-x="975" 
d="M657 112q0 -62 73 -76q66 15 66 77q0 35 -19.5 54t-50.5 19q-32 0 -50.5 -19t-18.5 -55zM800 -120q0 64 -76 75q-28 -4 -49.5 -21t-21.5 -54t20 -57t53 -20q34 0 54 20t20 57zM929 119q0 -76 -85 -118q97 -34 97 -128q0 -154 -215 -154q-214 0 -214 155q0 78 93 124
q-82 37 -82 123q0 69 56.5 109t146.5 40t146.5 -40.5t56.5 -110.5zM310 -48l-88 47l389 605l87 -47zM458 642q-110 -172 -188 -412h-154q60 180 191 402h-172l-6 -40h-89l6 164l107 -6h305v-108z" />
    <glyph glyph-name="arrowup" unicode="&#x2191;" horiz-adv-x="743" 
d="M636 321l-77 -63l-139 132l4 -427h-106l4 426l-138 -131l-77 63l264 253z" />
    <glyph glyph-name="arrowdown" unicode="&#x2193;" horiz-adv-x="757" 
d="M384 -32l-264 253l76 63l139 -133l-4 428h106l-5 -428l140 133l77 -63z" />
    <glyph glyph-name="arrowupleft" unicode="&#x2196;" horiz-adv-x="640" 
d="M476 369l-174 8l283 -286l-84 -78l-277 293l8 -182l-87 -14l-25 372l370 -25z" />
    <glyph glyph-name="arrowupright" unicode="&#x2197;" horiz-adv-x="640" 
d="M140 13l-84 78l283 286l-174 -8l-15 88l370 25l-24 -372l-87 14l7 182z" />
    <glyph glyph-name="arrowdownright" unicode="&#x2198;" horiz-adv-x="640" 
d="M532 21l-370 25l15 87l174 -8l-283 287l84 78l276 -294l-7 183l87 14z" />
    <glyph glyph-name="arrowdownleft" unicode="&#x2199;" horiz-adv-x="640" 
d="M478 46l-370 -25l25 372l87 -14l-8 -183l277 294l84 -78l-284 -287l175 8z" />
    <glyph glyph-name="minus" unicode="&#x2212;" horiz-adv-x="596" 
d="M564 221h-532v108h532v-108z" />
    <glyph glyph-name="uni2731" unicode="&#x2731;" horiz-adv-x="1687" 
d="M628 360l24 7q-14 11 -31 12zM566 203l-7 21l-23 -8q15 -13 30 -13zM660 272l4 1q8 15 10 36l-25 -8zM573 344l-9 24q-7 -3 -15.5 -13t-11.5 -19l1 -3zM655 251l-2 5l-35 -11l8 -26q21 15 29 32zM541 281l-11 37l-7 -3q-11 -15 -9 -43zM616 356l-7 22h-5q-17 0 -29 -6
l9 -24zM615 213l-9 27l-35 -13l6 -24q21 0 38 10zM644 313l27 8q0 19 -12 36l-27 -8zM649 267l-11 31l-34 -10l11 -32zM556 234l-11 36l-31 -10q2 -15 14 -34zM633 310l-12 35l-33 -9l12 -36zM603 251l-10 33l-37 -10l11 -36zM1261 331l-28 29l-26 -25l25 -27zM589 295
l-12 38l-36 -12l11 -37zM1190 352l25 25q-104 88 -201 137l-4 -5q77 -48 180 -157zM1132 545h-1q77 -44 169 -114l11 9l17 -18l-9 -8l29 -27l12 11l18 -19l-13 -10q201 -199 272 -368h-164q-60 177 -195 311l-30 -23q116 -135 167 -289h-167q-42 153 -95 223l-13 -6l-13 23
l11 7l-17 27l-12 -9l-15 22l15 9q-24 35 -40 56t-46 56t-61 57t-72.5 44.5t-93 33.5t-110.5 11q-139 0 -222 -69t-83 -195q0 -70 32 -117t75.5 -65t94.5 -18q111 0 191 67.5t80 151.5q0 42 -27 66t-65 24q-22 0 -48 -24q13 -19 43.5 -35t52.5 -16q12 0 18 6h1q0 -5 -1 -12.5
t-12 -19.5t-31 -12q-26 0 -50.5 23t-32.5 53q-3 -3 -4.5 -8t-1.5 -8v-3q28 -30 28 -78q0 -22 -14.5 -33.5t-35.5 -11.5v-12q0 -37 -18 -55.5t-39 -18.5q-13 0 -23.5 5t-15.5 11l-4 5q-21 -17 -54 -17q-22 0 -35.5 13.5t-13.5 36.5l2 35h-6q-16 0 -30 11t-14 36
q0 22 17.5 39.5t31 23.5t22.5 8q-2 1 -5.5 4.5t-7.5 10t-4 13.5q0 43 91 43q4 0 14 4.5t21 4.5q9 0 22 -3q2 1 10 12h-11q-30 0 -52.5 12t-22.5 38q0 19 15.5 29.5t30.5 11.5l15 1v-1q-13 -5 -8 -25q6 -32 52 -47q55 43 106 43q81 0 138.5 -47.5t57.5 -136.5q0 -75 -36 -144
l3 -1q51 45 108 45q47 0 81.5 -29.5t34.5 -75.5q0 -49 -34.5 -78t-83.5 -29q-30 0 -46.5 15.5t-16.5 40.5q0 32 32 36v-2q-12 -5 -12 -18q0 -32 37 -32q17 0 28.5 12t11.5 31q0 25 -20.5 42.5t-55.5 17.5q-54 0 -107 -35q-106 -123 -302 -123q-143 0 -230.5 80t-87.5 224
q0 89 44 171l-5 1q-39 -75 -115 -75q-52 0 -93 36.5t-41 109.5q0 75 41 106t98 31q36 0 69 -22.5t55 -22.5q24 0 45 11t24 36h5q4 -12 4 -26q0 -36 -27 -62.5t-63 -26.5q-22 0 -49.5 9t-39.5 9q-31 0 -31 -28q0 -23 17.5 -36.5t42.5 -13.5q67 0 125 45q126 126 349 126
q192 0 378 -97l2 5q-19 13 -19 39q0 23 19.5 40t50.5 17q30 0 53.5 -18.5t23.5 -50.5q0 -25 -14.5 -38t-38.5 -13q-14 0 -22.5 8t-8.5 18q0 4 2 10l4 2q3 -19 19 -19q17 0 17 23q0 13 -10.5 21.5t-27.5 8.5q-14 0 -22.5 -9.5t-8.5 -21.5q0 -32 20 -43z" />
    <glyph glyph-name="uni2732" unicode="&#x2732;" horiz-adv-x="1687" 
d="M1130 224l-8 -20q7 0 14.5 3t11.5 6l4 3zM1036 367l25 -7l6 20q-20 -4 -31 -13zM1024 274l5 -2l10 30l-24 8q2 -20 9 -36zM1125 368l-9 -24l35 -10v3q-3 9 -11.5 19t-14.5 12zM1035 257l-2 -6q8 -15 29 -32l9 26zM1158 319l-10 -38l27 -9q1 23 -9 44zM1080 379l-8 -22
l33 -8l8 24q-12 6 -28 6h-5zM1082 241l-9 -28q18 -9 38 -9l7 24zM1017 322l27 -8l13 35l-28 8q-10 -14 -12 -35zM1144 270l-11 -35l27 -8q11 16 14 34zM1050 299l-11 -31l35 -12l10 33zM1068 346l-13 -35l34 -11l12 37zM1095 285l-10 -33l36 -13l12 36zM454 360l-28 -29
l30 -23l24 27zM1111 333l-11 -37l37 -11l10 36zM472 377l25 -25q103 109 180 157l-4 5q-97 -49 -201 -137zM542 585q6 -3 6 -12q0 -11 -8 -18.5t-23 -7.5q-24 0 -38.5 13t-14.5 38q0 32 23.5 50.5t53.5 18.5q31 0 50.5 -17t19.5 -40q0 -26 -19 -39l1 -5q188 97 379 97
q226 0 349 -126q58 -45 125 -45q25 0 42.5 13.5t17.5 36.5q0 28 -31 28q-12 0 -39.5 -9t-49.5 -9q-36 0 -62.5 26t-26.5 62q0 15 4 27h4q3 -25 24 -36t45 -11q22 0 55 22.5t69 22.5q57 0 98 -31t41 -106q0 -73 -41 -109.5t-93 -36.5q-76 0 -115 75l-6 -1q45 -83 45 -171
q0 -144 -87.5 -224t-230.5 -80q-198 0 -302 123q-55 35 -107 35q-35 0 -55.5 -17.5t-20.5 -42.5q0 -19 11.5 -31t28.5 -12q37 0 37 32q0 6 -3 10.5t-6 5.5l-3 2v2q32 -4 32 -36q0 -25 -16.5 -40.5t-46.5 -15.5q-49 0 -83.5 29t-34.5 78q0 46 34.5 75.5t81.5 29.5
q57 0 108 -45l3 1q-36 69 -36 144q0 89 57.5 136.5t138.5 47.5q54 0 107 -43q46 16 53 47q3 21 -9 26v1q7 0 17 -1t27 -11.5t17 -29.5q0 -26 -22 -38t-52 -12h-12q7 -11 11 -12q14 3 22 3q10 0 19.5 -4.5t14.5 -4.5q91 0 91 -43q0 -10 -7.5 -19t-11.5 -10q73 -22 73 -70
q0 -25 -14 -36.5t-30 -11.5h-6q2 -13 2 -34q0 -23 -13.5 -36.5t-35.5 -13.5q-15 0 -28.5 4.5t-19.5 8.5l-6 4q-14 -21 -43 -21q-21 0 -39 18.5t-18 55.5v12q-20 0 -35 11.5t-15 33.5q0 47 29 78q-1 12 -7 19q-9 -31 -33 -58t-49 -27q-20 0 -31 11t-13 22l-1 11h1q7 -5 15 -5
q21 0 53 19t46 39q-22 24 -49 24q-38 0 -65 -24t-27 -66q0 -84 80 -151.5t191 -67.5q51 0 95 18t76 65t32 117q0 126 -83 195t-223 69q-59 0 -110.5 -11t-93 -33.5t-72.5 -44.5t-61 -57t-46 -56t-40 -56l15 -9l-15 -22l-12 9l-17 -27l11 -7l-13 -23l-13 6q-53 -70 -95 -223
h-167q51 154 167 289l-30 23q-135 -134 -195 -311h-164q71 169 272 368l-13 10l19 19l11 -11l29 27l-9 8l17 18l11 -9q81 63 168 114q20 11 20 43q0 12 -8 21.5t-22 9.5q-17 0 -27.5 -8t-10.5 -22q0 -23 17 -23q7 0 11.5 5t5.5 9z" />
    <glyph glyph-name="uni2733" unicode="&#x2733;" horiz-adv-x="1287" 
d="M996 426q8 0 20 -4l-31 42q8 -23 11 -38zM1088 540q-28 -11 -49 -15q12 -5 37.5 -15.5t34.5 -14.5q6 7 14 12q-27 10 -37 33zM929 412q9 -6 16 -13q8 14 23 20q-4 18 -26 76q-2 -58 -13 -83zM863 412q20 11 40 8q9 24 11 69q-19 -29 -55 -48l3 -11q1 -6 1 -18zM1101 420
q-9 21 -6 43q-1 0 -102 43q8 -11 29.5 -39t28.5 -39q1 0 1 0.5t1 0.5q4 1 13 1q21 0 35 -10zM1000 64l15 28l-215 105l-15 -29zM134 505q-4 0 -5.5 -0.5t-3.5 -6t-3 -17.5q1 -34 24.5 -59t56.5 -25h2h3q42 0 65 33q-9 27 -58 51t-81 24zM752 184l15 29l-396 194l-15 -29z
M730 138q0 3 6 15l-142 69q-69 -55 -79 -63q17 3 32 3q46 0 77.5 -24t31.5 -68q0 -29 -16 -53l-23 16q-13 -60 -49 -89q-2 5 -7 18.5t-7.5 20t-4.5 17t-1 18.5q-4 -3 -62 -11q3 13 14.5 34.5t11.5 38.5q0 27 -67 35q-123 -69 -274 -80v69q49 3 97 15q1 3 1 11
q0 13 -13.5 24.5t-27.5 16.5l-14 5l8 4t12 5t11 2h2l-28 41q2 1 13 5.5t17 4.5q5 0 7 -1q-4 28 -11 42h5q6 0 21 3t25 3q33 0 50.5 -19t17.5 -47q0 -29 -17 -55.5t-46 -36.5q155 44 239 122l-202 99q-10 -18 -20 -18q-8 0 -14 6t-6 13q0 2 5 15l-1 1q-38 -34 -98 -34
q-56 0 -98.5 39t-42.5 92q0 10 4 32l-15 6q-6 2 -6 10q0 2 2 8l35 72q7 16 17 8l16 -5q37 42 108 42q58 0 97.5 -40t39.5 -104v-6l1 -1q8 17 19 17q8 0 14.5 -5t6.5 -13q0 -5 -6 -15l215 -105q9 11 19 26.5t16 27.5t18 34.5t17 32.5q-7 46 -40 46q-1 -24 -9.5 -42.5t-19 -27
t-24.5 -13.5t-21 -6t-13 -1h-2l-13 40l-63 -12v33h-2q-14 0 -38.5 9t-34.5 9q23 29 28 53q-12 9 -23 24.5t-16 26.5l-6 11q6 1 40 13t61 15q-7 22 -20 33q2 1 12.5 7t24.5 10.5t34 4.5q123 0 123 -100q0 -16 -3 -34q15 -1 32 -13.5t27 -30.5q56 81 133 81q36 0 88 -29
t86 -29q30 0 59 12q2 23 17 41t38 22q10 2 14 2q27 0 46 -19.5t19 -49.5q0 -37 -31 -57q17 -6 31 -23t14 -40q0 -28 -20 -47.5t-50 -19.5q-19 0 -32 8q6 -13 6 -29q0 -27 -19.5 -46.5t-48.5 -19.5q-26 0 -45 17q-13 -5 -28 -5q-21 0 -37 14q-20 -36 -61 -36
q-33 0 -51.5 25.5t-12.5 55.5q-15 -6 -27 -6q-25 0 -41 17.5t-16 42.5q0 24 16 41t41 17q27 0 43 -18q20 14 33.5 37.5t15.5 45.5q-37 13 -57 13q-37 0 -66 -38t-57.5 -97.5t-50.5 -84.5l131 -64q9 17 20 17q8 0 14 -5t6 -13q0 -1 -5 -16l248 -122l7 17q5 11 17 11
q9 0 17.5 -7t8.5 -16q0 -2 -2 -8l-76 -152q-4 -10 -17 -10q-9 0 -17 6t-8 15q0 2 2 8l8 16l-247 121q-9 -16 -20 -16q-8 0 -14.5 5.5t-6.5 13.5z" />
    <glyph glyph-name="uni2736" unicode="&#x2736;" horiz-adv-x="498" 
d="M373 192v218l-66 -92l29 -53l-73 -38l29 78l-43 163l-43 -163l28 -78l-73 38l30 53l-66 92v-218h84l40 -67l40 67h84zM428 143l-179 -71l-179 71v357h358v-357z" />
    <glyph glyph-name="uni2737" unicode="&#x2737;" horiz-adv-x="902" 
d="M697 335q35 17 35 37q0 14 -15 14q-11 0 -15.5 -10t-4.5 -41zM206 335q0 30 -4.5 40.5t-15.5 10.5q-16 0 -16 -14q0 -20 36 -37zM451 598q22 11 22 31q0 17 -22 21q-21 -4 -21 -21q0 -21 21 -31zM694 256l8 1q11 18 23 25t34 7h6q-2 12 -10.5 22t-21.5 10q-39 0 -39 -52
v-13zM201 257l8 -1v13q0 52 -40 52q-12 0 -20.5 -10t-11.5 -22h6q22 0 34.5 -7t23.5 -25zM583 37l-8 66l-37 -31h-173l-37 31l-8 -66h263zM92 257q0 -22 17 -41t44 -20h28q22 0 36.5 -19t14.5 -40q0 -17 -10 -29t-24 -12q-27 0 -27 21q0 18 17 18q7 0 11 -7t2 -12q4 0 8 6.5
t4 14.5q0 14 -10 23.5t-28 9.5t-30.5 -11.5t-12.5 -30.5q0 -25 18.5 -42t51.5 -17q28 0 47.5 17.5t19.5 49.5q0 40 -42 79q-29 26 -75.5 31t-59.5 11zM701 119q-2 5 3 12t11 7t12 -5t6 -13q0 -11 -9 -17.5t-20 -6.5q-14 0 -23.5 12t-9.5 29q0 21 14.5 40t36.5 19h27
q27 1 44 20t17 41q-13 -6 -59.5 -11t-74.5 -31q-43 -39 -43 -79q0 -32 20 -49.5t48 -17.5q31 0 50.5 18t19.5 41t-12 34t-31 11q-38 0 -38 -34q0 -7 3.5 -14t7.5 -6zM451 180q5 23 26 44t42 21q10 0 21 -1.5t18 -3.5l6 -2q-3 66 -3 93l6 95q-38 -10 -51.5 -21.5t-13.5 -33.5
q0 -16 -2 -27.5t-4 -14.5l-2 -3h2q36 0 36 -28q0 -13 -12 -22t-27 -9q-24 0 -24 34v23q0 36 1.5 54t9 30t22.5 12h1v6q0 7 -21 26t-31 42q-10 -23 -31 -42t-21 -26q0 -5 1 -6q22 0 27.5 -19.5t5.5 -68.5v-31q0 -34 -24 -34q-15 0 -26.5 9t-11.5 22q0 28 35 28h2q-7 8 -7 45
q0 22 -13.5 33.5t-51.5 21.5q5 -51 5 -95l-2 -93q22 7 44 7q21 0 42 -21t26 -44zM523 152h-145l-100 107v155l100 107h145l101 -107v-155zM362 114h178l120 130v186l-122 128h-173l-122 -128v-186zM633 0h-363l8 65q-5 -11 -26.5 -23t-53.5 -12q-52 0 -78.5 30t-26.5 63
q0 35 18 51q-23 8 -37.5 21t-20.5 32.5t-7.5 29.5t-2.5 31l56 -8q13 69 50 74q-5 8 -5 18q0 17 11 29t30 12q13 0 20 -9v41l144 150h64q-12 12 -12 34q0 42 50 52q50 -10 50 -52q0 -23 -11 -34h63l144 -150v-41q9 9 20 9q19 0 30.5 -12t11.5 -29q0 -3 -5 -18q36 -5 49 -74
l56 8q-1 -22 -2.5 -31.5t-7 -29t-20 -32.5t-37.5 -21q18 -16 18 -51q0 -33 -26.5 -63t-79.5 -30q-32 0 -53.5 12t-25.5 23z" />
    <glyph glyph-name="uni2766" unicode="&#x2766;" horiz-adv-x="1041" 
d="M838 353q0 4 20 8q-6 10 -8 27q-39 9 -92 24q76 -56 80 -59zM837 471q-36 -16 -70 -25l91 -24q5 9 13 17q-22 9 -34 32zM695 292q23 -5 38 -23q5 5 13 9q-12 40 -55 116q6 -38 6 -69q0 -24 -2 -33zM616 298q7 -13 7 -26q0 -5 -2 -13q18 29 48 33q1 6 1 20q0 34 -6 74
q-17 -48 -53 -79zM773 286h4q14 0 28 -8q-2 10 -2 16q0 20 11 37q-10 9 -44 33.5t-52 38.5q40 -69 55 -117zM312 221q61 25 92 70.5t31 97.5q0 33 -12 61q-51 -23 -83.5 -72.5t-32.5 -111.5q0 -20 5 -45zM943 453q19 -6 31 -24t12 -38q0 -27 -18 -45.5t-36 -21.5
q7 -14 7 -30q0 -28 -20 -47.5t-50 -19.5q-20 0 -34 10q1 -3 1 -10q0 -25 -18 -42t-44 -17q-24 0 -42 15q-18 -24 -53 -24q-29 0 -47.5 21t-18.5 49q0 9 1 13q-16 -29 -51 -29q-25 0 -41.5 18t-16.5 42t16 41t41 17q17 0 31 -8q17 19 28 47t11 50q0 6 -2 14q-42 34 -109 34
q-19 0 -45 -3l-1 -1h-2q11 -30 11 -69q0 -67 -40.5 -126t-118.5 -89q24 -59 73 -90t105 -31q45 0 83.5 20.5t58.5 57.5l42 -27q-24 -53 -74.5 -81.5t-112.5 -28.5q-106 0 -180 75t-74 185q0 78 42.5 140.5t108.5 93.5q-23 27 -52 39q-10 -56 -57 -86.5t-101 -30.5
q-32 0 -52 10q2 11 4 39t7 36q-29 1 -51 5t-32.5 8t-19 8t-10.5 5q1 1 3.5 14t9.5 28.5t18 22.5q-16 18 -26 36.5t-13.5 31t-4.5 13.5h1q7 0 21 8.5t40 17t61 8.5q19 0 42 -3q-7 10 -10.5 22.5t-4.5 24.5t-2 15q10 2 20 2q24 0 53.5 -7.5t60.5 -22t51.5 -42.5t20.5 -63
q0 -22 -9 -49q53 -25 84 -72l21 3q13 2 38 2q55 0 113 -20t78 -20q62 0 130 28q0 29 21 47.5t47 18.5t46.5 -20t20.5 -50q0 -29 -21 -48z" />
    <glyph glyph-name="uni2767" unicode="&#x2767;" horiz-adv-x="736" 
d="M274 190q0 -2 0.5 -4t0.5 -4q0 -13 -7 -27q16 11 31 12q12 0 17 -1q21 38 29 81q-23 -34 -71 -55v-2zM430 134q13 -4 24 -17q5 22 22 36q-26 43 -64 90q19 -69 18 -109zM510 167h5q17 0 33 -8q-3 12 -3 15q-2 14 1 23q-21 10 -103 59q40 -53 63 -90h2q1 1 2 1zM345 156
q18 -12 24 -33q13 11 29 14v9q0 42 -20 106q-9 -58 -33 -96zM674 183q0 -27 -19.5 -47t-47.5 -20q-15 0 -29 8l3 -14v-7q0 -28 -19 -46.5t-48 -18.5q-32 0 -50 26q-5 -17 -20.5 -28t-33.5 -11q-38 0 -55 35q-19 -21 -49 -21q-28 0 -46 20t-18 46q0 17 9 32q-14 -10 -32 -10
q-24 0 -40 15.5t-16 41.5q0 22 15.5 38.5t39.5 16.5q29 0 44 -20q63 37 63 69q0 6 -1 9q-12 12 -46.5 21t-68.5 9q-102 0 -141 -77l-58 21q30 51 51 70q49 43 138 43q16 0 36 -3q59 16 93 67q-59 34 -59 109q0 36 14 70t34 51q10 -9 34 -22t30 -20q12 24 24 42.5t19 26
t14.5 14.5t8.5 8q1 -1 11.5 -9.5t21.5 -21t13 -24.5q24 10 52 10q9 0 19.5 -1t11.5 -1h2q-1 -3 -1 -9q0 -4 1 -14.5t1 -18.5q0 -51 -40 -115q3 1 10 1q12 0 30 -4.5t21 -4.5h1q1 -31 -49 -88t-108 -57q-43 0 -81 35q-18 -27 -45 -44q51 -18 143 -73t103 -60q21 18 47 18
q25 0 44 -18.5t19 -44.5z" />
    <glyph glyph-name="st" unicode="&#xfb06;" horiz-adv-x="838" 
d="M426 347h-96l-8 45q-36 27 -78 27q-28 0 -46 -11t-18 -31q0 -21 27.5 -36.5t66 -28.5t77.5 -29.5t66.5 -49t27.5 -77.5q0 -81 -57 -128t-179 -47q-44 0 -85.5 6.5t-61.5 12.5l-19 6l-13 150l90 6l10 -71q40 -10 75 -10q89 0 89 57q0 19 -19 32.5t-48 21.5t-62.5 21
t-62.5 28.5t-48 46t-19 72.5q0 66 46 108.5t118 48.5q-15 35 -15 74q0 62 47.5 110.5t135.5 48.5h317v-250h131v-110h-131v-213q0 -81 56 -81l68 7l1 -94q-35 -19 -115 -19q-81 0 -119.5 35t-38.5 118v419l24 102h-189q-98 0 -98 -91q0 -38 24 -71q17 -6 42 -21l16 27h72z
" />
    <glyph glyph-name="halfcaron" horiz-adv-x="405" 
d="M266 542l-84 13q27 54 27 130q0 30 -4 50l11 65l101 -14q-12 -161 -51 -244z" />
    <glyph glyph-name="commaaccent" horiz-adv-x="269" 
d="M100 -48q14 0 27.5 -5t20.5 -10.5t7 -8.5q28 -32 28 -78q0 -51 -31.5 -104t-82.5 -87l-43 39q64 50 64 108q0 15 -2 22q-26 4 -41 20.5t-15 40.5q0 28 20 45.5t48 17.5z" />
    <glyph glyph-name="zero.onum" horiz-adv-x="674" 
d="M337 90q71 0 104 47t33 122q0 73 -32 111.5t-105 38.5q-137 0 -137 -150q0 -76 32.5 -122.5t104.5 -46.5zM337 -19q-143 0 -216 77t-73 201q0 121 72 190t217 69t216.5 -69t71.5 -190q0 -124 -72.5 -201t-215.5 -77z" />
    <glyph glyph-name="one.onum" horiz-adv-x="452" 
d="M223 500h116v-398l56 -4l-7 -98h-280l-7 104l92 6v276q-106 -28 -123 -28l-15 102q7 0 49 10t80 20z" />
    <glyph glyph-name="two.onum" horiz-adv-x="554" 
d="M149 315h-105l7 192h81l10 -30q68 41 137 41q97 0 149 -42t52 -108q0 -133 -226 -245h160l11 53l98 -7l-8 -169h-486v99l29 6q28 15 61.5 35.5t83.5 55.5t82 74.5t32 73.5q0 59 -81 59q-48 0 -81 -29z" />
    <glyph glyph-name="three.onum" horiz-adv-x="544" 
d="M476 416l-167 -182q84 -4 139 -52.5t55 -130.5q0 -102 -83.5 -161t-210.5 -59q-50 0 -92.5 8t-60.5 16l-17 8l-7 155l97 7l11 -74q32 -8 70 -8q70 0 106 29.5t36 78.5q0 82 -95 82q-15 0 -31 -6.5t-24 -13.5l-9 -7l-64 68l173 203h-158l-8 -55h-98l8 185l117 -7h313v-84z
" />
    <glyph glyph-name="four.onum" horiz-adv-x="596" 
d="M504 -150h-148v150h-317l-8 93q45 76 99 196t85 221l139 -10q-50 -172 -179 -394h181v100l24 196h124v-296h75v-97l-75 -9v-150z" />
    <glyph glyph-name="five.onum" horiz-adv-x="545" 
d="M228 162q-67 0 -85 -27l-72 10l39 355h270l7 32l98 -7l-7 -155l-123 7h-141l-14 -117q20 3 42 3q123 0 193.5 -50t70.5 -147q0 -112 -83 -173.5t-205 -61.5q-59 0 -102 8t-56 16l-14 8l-7 154l97 7l11 -73q30 -8 74 -8q61 0 97.5 33.5t36.5 89.5q0 46 -34 71t-93 25z" />
    <glyph glyph-name="six.onum" horiz-adv-x="606" 
d="M310 334q-42 0 -68.5 -16.5t-36.5 -38.5q-5 -20 -5 -47q0 -150 112 -150q53 0 78.5 40t25.5 102q0 110 -106 110zM48 276q0 49 6.5 98t24.5 103t45.5 95t74 68t104.5 27q49 0 107 -36l16 26h81v-175h-103l-7 50q-34 28 -80 28q-115 0 -128 -169q67 36 139 36
q111 0 175.5 -49.5t64.5 -155.5q0 -108 -68.5 -174.5t-187.5 -66.5q-124 0 -194 75.5t-70 219.5z" />
    <glyph glyph-name="seven.onum" horiz-adv-x="513" 
d="M500 382q-135 -224 -225 -532h-168q71 239 230 521h-215l-8 -57h-97l6 193l117 -7h360v-118z" />
    <glyph glyph-name="eight.onum" horiz-adv-x="612" 
d="M208 479q0 -89 103 -106q94 21 94 108q0 94 -99 94q-98 0 -98 -96zM412 178q0 50 -33 74t-77 30q-39 -5 -70.5 -28.5t-31.5 -74.5q0 -52 27.5 -78.5t78.5 -26.5t78.5 26.5t27.5 77.5zM558 485q0 -100 -117 -152q133 -44 133 -162q0 -190 -268 -190q-267 0 -267 191
q0 101 126 157q-112 48 -112 158q0 85 69.5 132.5t183.5 47.5t183 -48t69 -134z" />
    <glyph glyph-name="nine.onum" horiz-adv-x="606" 
d="M296 160q72 0 103 45q7 33 7 76q0 72 -24 104t-82 32q-54 0 -82 -36t-28 -94q0 -56 26.5 -91.5t79.5 -35.5zM558 243q0 -101 -20.5 -177.5t-50.5 -120t-72.5 -70.5t-79.5 -35.5t-78 -8.5q-48 0 -91.5 5.5t-63.5 10.5l-19 5l-7 165l97 7l12 -79q31 -6 72 -6
q63 0 106.5 43.5t52.5 127.5q-53 -43 -138 -43q-108 0 -173.5 56t-65.5 164q0 106 70.5 168t190.5 62q258 0 258 -274z" />
    <glyph glyph-name="dollar.onum" horiz-adv-x="467" 
d="M288 -119h-104l-9 101q-36 2 -69 8t-48 11l-15 5l-13 150l90 6l10 -71q40 -10 75 -10q89 0 89 57q0 19 -19 32.5t-48 21.5t-62.5 21t-62.5 28.5t-48 46t-19 72.5q0 60 38.5 100.5t99.5 52.5l4 118h105l10 -126q22 -8 47 -24l16 27h72l-1 -161h-96l-8 45q-36 27 -78 27
q-28 0 -46 -11t-18 -31q0 -21 27.5 -36.5t66 -28.5t77.5 -29.5t66.5 -49t27.5 -77.5q0 -140 -154 -168z" />
    <glyph glyph-name="cent.onum" horiz-adv-x="503" 
d="M321 -126h-105l-10 116q-182 43 -182 268q0 105 47.5 171t133.5 83l3 112h105l9 -120q22 -8 47 -26l16 30h89l-2 -204h-110l-8 82q-30 30 -72 30q-53 0 -79 -35t-26 -121q0 -175 131 -175q32 0 63.5 15.5t46.5 31.5l15 15l63 -70l-6 -9t-18.5 -20.5t-32.5 -26.5
t-49 -23.5t-67 -14.5z" />
    <glyph glyph-name="sterling.onum" horiz-adv-x="572" 
d="M551 0h-508v109h81q22 26 22 80v12l-103 2v93h98v18q0 91 48 148t136 57q49 0 104 -32l10 21h88v-161h-110l-6 40q-26 16 -52 16q-35 0 -53.5 -22.5t-18.5 -62.5v-22h204v-96h-204q-3 -57 -24 -91h186l12 48l97 -7z" />
    <glyph glyph-name="yen.onum" horiz-adv-x="587" 
d="M241 454l-10 -1l76 -125h2l71 121l-11 1v100h245v-100l-93 -5l-99 -159h101v-111h-149v-68l67 -5l-7 -102h-267l-6 102l64 5v68h-155v111h104l-104 164l-99 4l6 96h264v-96z" />
    <glyph glyph-name="Euro.onum" horiz-adv-x="582" 
d="M532 340h-110l-7 51q-32 25 -72 25q-52 0 -81 -28.5t-34 -96.5h290v-97h-285q22 -110 125 -110q33 0 64 12.5t46 25.5l14 12l64 -63q-2 -4 -6 -10t-20.5 -21.5t-37 -27.5t-58 -21.5t-81.5 -9.5q-112 0 -177.5 56t-80.5 157l-58 3v94h55q9 106 69.5 167t155.5 61
q66 0 123 -39l15 28h87v-168z" />
    <glyph glyph-name="uni20B4.onum" horiz-adv-x="510" 
d="M172 350h-90l7 158h72l9 -26q58 37 108 37q74 0 118.5 -39t44.5 -96q0 -47 -35 -87h51v-95h-222q-27 -19 -27 -54q0 -64 81 -64q27 0 52 5l9 62l90 -7l-7 -141q-52 -22 -170 -22q-95 0 -142.5 37t-47.5 98q0 49 37 86l-64 2v94h234q26 22 26 56q0 61 -67 61
q-31 0 -60 -24z" />
    <glyph glyph-name="afii61352.onum" horiz-adv-x="1213" 
d="M1109 1h-311v108h311v-108zM955 281q44 0 63 27.5t19 83.5q0 55 -19 81t-63 26q-45 0 -64 -25.5t-19 -80.5q0 -56 19.5 -84t63.5 -28zM955 204q-108 0 -164 49.5t-56 138.5t56 138.5t164 49.5t163.5 -49.5t55.5 -138.5q0 -88 -57.5 -138t-161.5 -50zM638 -2l-148 -1
l-265 338h-3l4 -30v-205l69 -8l-6 -92h-253l-6 102l65 5v342l-66 5l7 96h211l260 -347h2l-3 31v210l-68 7l6 99h254v-96l-60 -4v-452z" />
    <glyph glyph-name="onefifth" horiz-adv-x="1018" 
d="M776 -23q-64 0 -74 -22l-65 9l33 291h219l6 25l89 -6l-6 -138l-113 6h-100l-9 -74q8 1 24 1q102 0 161 -43.5t59 -124.5q0 -92 -68 -137t-170 -45q-49 0 -85 6.5t-47 12.5l-12 7l-6 131l89 6l8 -54q30 -7 61 -7q46 0 73 21.5t27 60.5q0 34 -26 54t-68 20zM400 -48l-88 47
l389 605l87 -47zM226 750h113v-421l92 -4l-6 -95h-320l-6 95l106 10v292l-93 -44l-40 92z" />
    <glyph glyph-name="twofifths" horiz-adv-x="1032" 
d="M791 -23q-64 0 -74 -22l-65 9l33 291h219l6 25l89 -6l-6 -138l-113 6h-100l-9 -74q8 1 24 1q102 0 161 -43.5t59 -124.5q0 -92 -68 -137t-170 -45q-49 0 -85 6.5t-48 12.5l-11 7l-6 131l89 6l8 -54q30 -7 61 -7q46 0 73 21.5t27 60.5q0 34 -26 54t-68 20zM414 -48l-88 47
l389 605l87 -47zM147 594h-95l6 162h74l13 -30q57 39 113 39q86 0 135 -47t49 -119q0 -123 -207 -255h122l9 39l90 -7l-7 -146h-402v110q14 5 70 44t116.5 100t60.5 103q0 40 -18 56.5t-56 16.5q-37 0 -69 -27z" />
    <glyph glyph-name="threefifths" horiz-adv-x="1032" 
d="M791 -23q-64 0 -74 -22l-65 9l33 291h219l6 25l89 -6l-6 -138l-113 6h-100l-9 -74q8 1 24 1q102 0 161 -43.5t59 -124.5q0 -92 -68 -137t-170 -45q-49 0 -85 6.5t-48 12.5l-11 7l-6 131l89 6l8 -54q30 -7 61 -7q46 0 73 21.5t27 60.5q0 34 -26 54t-68 20zM413 -48l-88 47
l389 605l87 -47zM427 673l-126 -134q63 -7 105 -49t42 -107q0 -82 -68.5 -125.5t-174.5 -43.5q-40 0 -75 6.5t-50 13.5l-16 6l-6 132l89 6l9 -56q25 -6 56 -6q105 0 105 69q0 29 -17 46t-49 17q-15 0 -29.5 -6t-21.5 -12l-6 -6l-59 63l136 151h-113l-7 -43h-89l7 161l107 -6
h251v-77z" />
    <glyph glyph-name="fourfifths" horiz-adv-x="1032" 
d="M791 -23q-64 0 -74 -22l-65 9l33 291h219l6 25l89 -6l-6 -138l-113 6h-100l-9 -74q8 1 24 1q102 0 161 -43.5t59 -124.5q0 -92 -68 -137t-170 -45q-49 0 -85 6.5t-48 12.5l-11 7l-6 131l89 6l8 -54q30 -7 61 -7q46 0 73 21.5t27 60.5q0 34 -26 54t-68 20zM414 -48l-88 47
l389 605l87 -47zM397 230h-216l-6 88l53 5v55h-234l-7 79q87 158 118 307l126 -14q-30 -124 -108 -275h105v35l22 161h113v-196h54v-89l-54 -8v-55l41 -4z" />
    <glyph glyph-name="ct" horiz-adv-x="892" 
d="M472 304h-110l-8 82q-30 30 -72 30q-53 0 -79 -35t-26 -121q0 -175 131 -175q32 0 63.5 15.5t46.5 31.5l15 15l63 -70q-2 -4 -6.5 -10.5t-22 -23t-38.5 -29t-58 -23t-79 -10.5q-133 0 -200.5 73t-67.5 204q0 111 53 179t147 79q-18 36 -18 78q0 60 49.5 108t138.5 48h344
v-250h131v-110h-131v-213q0 -81 56 -81l69 7v-94q-35 -19 -115 -19q-81 0 -119.5 35.5t-38.5 117.5v419l24 102h-216q-102 0 -102 -88q0 -40 32 -74q17 -8 41 -24l16 30h89z" />
    <glyph glyph-name="a.alt" 
d="M299 90q20 0 38 6t29 14.5t19.5 17t12.5 14.5l3 6v217l-1 2l-4.5 4.5l-6 6t-8.5 7.5t-10.5 7.5t-12.5 7t-15 6t-17.5 4t-19.5 1.5q-69 0 -99.5 -37.5t-30.5 -119.5q0 -164 123 -164zM596 0h-176l-14 40q-7 -9 -18.5 -19.5t-48.5 -25t-84 -14.5q-102 0 -166.5 76.5
t-64.5 192.5q0 124 63.5 196t178.5 72q41 0 74.5 -11t46.5 -23l13 -11h7l9 27h131v-398l56 -4z" />
    <glyph glyph-name="aring.alt" 
d="M321 645q23 0 37 15t14 39t-15 39t-36 15q-23 0 -37.5 -15t-14.5 -39t14.5 -39t37.5 -15zM321 581q-55 0 -87 32.5t-32 85.5q0 51 33.5 84t85.5 33q50 0 84 -33t34 -84q0 -52 -33 -85t-85 -33zM299 90q20 0 38 6t29 14.5t19.5 17t12.5 14.5l3 6v217l-1 2l-4.5 4.5l-6 6
t-8.5 7.5t-10.5 7.5t-12.5 7t-15 6t-17.5 4t-19.5 1.5q-69 0 -99.5 -37.5t-30.5 -119.5q0 -164 123 -164zM596 0h-176l-14 40q-7 -9 -18.5 -19.5t-48.5 -25t-84 -14.5q-102 0 -166.5 76.5t-64.5 192.5q0 124 63.5 196t178.5 72q41 0 74.5 -11t46.5 -23l13 -11h7l9 27h131
v-398l56 -4z" />
    <glyph glyph-name="agrave.alt" 
d="M385 581l-98 -9l-139 139l138 17zM299 90q20 0 38 6t29 14.5t19.5 17t12.5 14.5l3 6v217l-1 2l-4.5 4.5l-6 6t-8.5 7.5t-10.5 7.5t-12.5 7t-15 6t-17.5 4t-19.5 1.5q-69 0 -99.5 -37.5t-30.5 -119.5q0 -164 123 -164zM596 0h-176l-14 40q-7 -9 -18.5 -19.5t-48.5 -25
t-84 -14.5q-102 0 -166.5 76.5t-64.5 192.5q0 124 63.5 196t178.5 72q41 0 74.5 -11t46.5 -23l13 -11h7l9 27h131v-398l56 -4z" />
    <glyph glyph-name="adieresis.alt" 
d="M285 652q0 -26 -17.5 -48t-56.5 -22t-56.5 22.5t-17.5 47.5q0 29 20.5 49t53.5 20t53.5 -19t20.5 -50zM498 652q0 -26 -17.5 -48t-56.5 -22t-56.5 22.5t-17.5 47.5q0 29 20.5 49t53.5 20t53.5 -19t20.5 -50zM299 90q20 0 38 6t29 14.5t19.5 17t12.5 14.5l3 6v217l-1 2
l-4.5 4.5l-6 6t-8.5 7.5t-10.5 7.5t-12.5 7t-15 6t-17.5 4t-19.5 1.5q-69 0 -99.5 -37.5t-30.5 -119.5q0 -164 123 -164zM596 0h-176l-14 40q-7 -9 -18.5 -19.5t-48.5 -25t-84 -14.5q-102 0 -166.5 76.5t-64.5 192.5q0 124 63.5 196t178.5 72q41 0 74.5 -11t46.5 -23l13 -11
h7l9 27h131v-398l56 -4z" />
    <glyph glyph-name="aogonek.alt" 
d="M299 90q20 0 38 6t29 14.5t19.5 17t12.5 14.5l3 6v217l-1 2l-4.5 4.5l-6 6t-8.5 7.5t-10.5 7.5t-12.5 7t-15 6t-17.5 4t-19.5 1.5q-69 0 -99.5 -37.5t-30.5 -119.5q0 -164 123 -164zM539 -177v-73q-197 0 -197 132q0 67 78 118l-14 40q-7 -9 -18.5 -19.5t-48.5 -25
t-84 -14.5q-102 0 -166.5 76.5t-64.5 192.5q0 124 63.5 196t178.5 72q41 0 74.5 -11t46.5 -23l13 -11h7l9 27h131v-398l56 -4l-7 -98h-54q-4 -1 -12 -4t-23.5 -12t-28 -21t-22.5 -33t-10 -46q0 -35 23.5 -48t69.5 -13z" />
    <glyph glyph-name="abreve.alt" 
d="M320 658q21 0 37.5 5.5t24.5 13t13 15.5t7 14l1 5v3l120 -18q-1 -5 -2.5 -14t-14 -32t-32 -40t-60.5 -31.5t-94 -14.5t-93 13.5t-60 33t-32 39t-15 32.5l-2 14l121 18v-3q0 -2 1 -5.5t6.5 -13t13.5 -16.5t24 -12.5t36 -5.5zM299 90q20 0 38 6t29 14.5t19.5 17t12.5 14.5
l3 6v217l-1 2l-4.5 4.5l-6 6t-8.5 7.5t-10.5 7.5t-12.5 7t-15 6t-17.5 4t-19.5 1.5q-69 0 -99.5 -37.5t-30.5 -119.5q0 -164 123 -164zM596 0h-176l-14 40q-7 -9 -18.5 -19.5t-48.5 -25t-84 -14.5q-102 0 -166.5 76.5t-64.5 192.5q0 124 63.5 196t178.5 72q41 0 74.5 -11
t46.5 -23l13 -11h7l9 27h131v-398l56 -4z" />
    <glyph glyph-name="aacute.alt" 
d="M355 572l-98 7l95 148l140 -16zM299 90q20 0 38 6t29 14.5t19.5 17t12.5 14.5l3 6v217l-1 2l-4.5 4.5l-6 6t-8.5 7.5t-10.5 7.5t-12.5 7t-15 6t-17.5 4t-19.5 1.5q-69 0 -99.5 -37.5t-30.5 -119.5q0 -164 123 -164zM596 0h-176l-14 40q-7 -9 -18.5 -19.5t-48.5 -25
t-84 -14.5q-102 0 -166.5 76.5t-64.5 192.5q0 124 63.5 196t178.5 72q41 0 74.5 -11t46.5 -23l13 -11h7l9 27h131v-398l56 -4z" />
    <glyph glyph-name="amacron.alt" 
d="M446 616h-246v74h246v-74zM299 90q20 0 38 6t29 14.5t19.5 17t12.5 14.5l3 6v217l-1 2l-4.5 4.5l-6 6t-8.5 7.5t-10.5 7.5t-12.5 7t-15 6t-17.5 4t-19.5 1.5q-69 0 -99.5 -37.5t-30.5 -119.5q0 -164 123 -164zM596 0h-176l-14 40q-7 -9 -18.5 -19.5t-48.5 -25t-84 -14.5
q-102 0 -166.5 76.5t-64.5 192.5q0 124 63.5 196t178.5 72q41 0 74.5 -11t46.5 -23l13 -11h7l9 27h131v-398l56 -4z" />
    <glyph glyph-name="acircumflex.alt" 
d="M445 579l-125 80l-124 -80l-45 82l131 92h78l130 -92zM299 90q20 0 38 6t29 14.5t19.5 17t12.5 14.5l3 6v217l-1 2l-4.5 4.5l-6 6t-8.5 7.5t-10.5 7.5t-12.5 7t-15 6t-17.5 4t-19.5 1.5q-69 0 -99.5 -37.5t-30.5 -119.5q0 -164 123 -164zM596 0h-176l-14 40
q-7 -9 -18.5 -19.5t-48.5 -25t-84 -14.5q-102 0 -166.5 76.5t-64.5 192.5q0 124 63.5 196t178.5 72q41 0 74.5 -11t46.5 -23l13 -11h7l9 27h131v-398l56 -4z" />
    <glyph glyph-name="atilde.alt" 
d="M497 709l18 -72q0 -2 -1.5 -5.5t-8 -12.5t-16 -16t-29.5 -12.5t-45 -5.5q-39 0 -96 25t-88 25q-20 0 -40.5 -7.5t-30.5 -15.5l-11 -8l-18 80l3 6t10.5 14.5t19.5 18t32.5 14t46.5 6.5q45 0 101.5 -26t83.5 -26q20 0 37 4.5t25 8.5zM299 90q20 0 38 6t29 14.5t19.5 17
t12.5 14.5l3 6v217l-1 2l-4.5 4.5l-6 6t-8.5 7.5t-10.5 7.5t-12.5 7t-15 6t-17.5 4t-19.5 1.5q-69 0 -99.5 -37.5t-30.5 -119.5q0 -164 123 -164zM596 0h-176l-14 40q-7 -9 -18.5 -19.5t-48.5 -25t-84 -14.5q-102 0 -166.5 76.5t-64.5 192.5q0 124 63.5 196t178.5 72
q41 0 74.5 -11t46.5 -23l13 -11h7l9 27h131v-398l56 -4z" />
    <glyph glyph-name="g.alt" horiz-adv-x="611" 
d="M401 119v245q-4 7 -12 15.5t-33.5 21.5t-55.5 13q-65 0 -94.5 -35t-29.5 -114q0 -180 130 -180q28 0 52 8.5t34 16.5zM547 -26q0 -66 -24 -114.5t-66 -75.5t-92 -40t-109 -13t-104 6t-60 12l-15 6l-7 163l97 7l12 -85q37 -10 77 -10q73 0 109 39.5t36 123.5v24h-4
q-50 -36 -143 -36q-106 0 -168.5 78t-62.5 202q0 114 64 185.5t168 71.5q50 0 87 -13t48 -26l12 -13h7l13 34h125v-526z" />
    <glyph glyph-name="gcommaaccent.alt" horiz-adv-x="611" 
d="M284 563q-14 0 -27.5 5t-20.5 10.5t-7 8.5q-28 32 -28 78q0 51 31.5 104t82.5 87l43 -39q-64 -50 -64 -108q0 -15 2 -22q26 -4 41 -20.5t15 -40.5q0 -28 -20 -45.5t-48 -17.5zM401 119v245q-4 7 -12 15.5t-33.5 21.5t-55.5 13q-65 0 -94.5 -35t-29.5 -114
q0 -180 130 -180q28 0 52 8.5t34 16.5zM547 -26q0 -66 -24 -114.5t-66 -75.5t-92 -40t-109 -13t-104 6t-60 12l-15 6l-7 163l97 7l12 -85q37 -10 77 -10q73 0 109 39.5t36 123.5v24h-4q-50 -36 -143 -36q-106 0 -168.5 78t-62.5 202q0 114 64 185.5t168 71.5q50 0 87 -13
t48 -26l12 -13h7l13 34h125v-526z" />
    <glyph glyph-name="gbreve.alt" horiz-adv-x="611" 
d="M321 658q21 0 37.5 5.5t24.5 13t13 15.5t6 14l2 5v3l120 -18q-1 -5 -2.5 -14t-14 -32t-32 -40t-60.5 -31.5t-94 -14.5t-93 13.5t-60 33t-32 39t-14 32.5l-3 14l121 18v-3q0 -2 1 -5.5t6.5 -13t13.5 -16.5t24 -12.5t36 -5.5zM401 119v245q-4 7 -12 15.5t-33.5 21.5
t-55.5 13q-65 0 -94.5 -35t-29.5 -114q0 -180 130 -180q28 0 52 8.5t34 16.5zM547 -26q0 -66 -24 -114.5t-66 -75.5t-92 -40t-109 -13t-104 6t-60 12l-15 6l-7 163l97 7l12 -85q37 -10 77 -10q73 0 109 39.5t36 123.5v24h-4q-50 -36 -143 -36q-106 0 -168.5 78t-62.5 202
q0 114 64 185.5t168 71.5q50 0 87 -13t48 -26l12 -13h7l13 34h125v-526z" />
    <glyph glyph-name="y.alt" horiz-adv-x="617" 
d="M406 138v252l-52 6l7 104h193v-526q0 -66 -24 -114.5t-66 -75.5t-92.5 -40t-109.5 -13t-104 6t-60 12l-15 6l-7 163l96 7l13 -85q37 -10 76 -10q74 0 109.5 39.5t35.5 123.5v35q-44 -47 -151 -47q-187 0 -187 170v239l-52 6l7 104h193v-322q0 -42 21 -59.5t69 -17.5
q32 0 57 9.5t34 18.5z" />
    <glyph glyph-name="yacute.alt" horiz-adv-x="617" 
d="M354 572l-98 7l95 148l140 -16zM406 138v252l-52 6l7 104h193v-526q0 -66 -24 -114.5t-66 -75.5t-92.5 -40t-109.5 -13t-104 6t-60 12l-15 6l-7 163l96 7l13 -85q37 -10 76 -10q74 0 109.5 39.5t35.5 123.5v35q-44 -47 -151 -47q-187 0 -187 170v239l-52 6l7 104h193
v-322q0 -42 21 -59.5t69 -17.5q32 0 57 9.5t34 18.5z" />
    <glyph glyph-name="ydieresis.alt" horiz-adv-x="617" 
d="M284 652q0 -26 -17.5 -48t-56.5 -22t-56.5 22.5t-17.5 47.5q0 29 20.5 49t53.5 20t53.5 -19t20.5 -50zM497 652q0 -26 -17.5 -48t-56.5 -22t-56.5 22.5t-17.5 47.5q0 29 20.5 49t53.5 20t53.5 -19t20.5 -50zM406 138v252l-52 6l7 104h193v-526q0 -66 -24 -114.5
t-66 -75.5t-92.5 -40t-109.5 -13t-104 6t-60 12l-15 6l-7 163l96 7l13 -85q37 -10 76 -10q74 0 109.5 39.5t35.5 123.5v35q-44 -47 -151 -47q-187 0 -187 170v239l-52 6l7 104h193v-322q0 -42 21 -59.5t69 -17.5q32 0 57 9.5t34 18.5z" />
    <glyph glyph-name="afii10065.alt" 
d="M299 90q20 0 38 6t29 14.5t19.5 17t12.5 14.5l3 6v217l-1 2l-4.5 4.5l-6 6t-8.5 7.5t-10.5 7.5t-12.5 7t-15 6t-17.5 4t-19.5 1.5q-69 0 -99.5 -37.5t-30.5 -119.5q0 -164 123 -164zM596 0h-176l-14 40q-7 -9 -18.5 -19.5t-48.5 -25t-84 -14.5q-102 0 -166.5 76.5
t-64.5 192.5q0 124 63.5 196t178.5 72q41 0 74.5 -11t46.5 -23l13 -11h7l9 27h131v-398l56 -4z" />
    <glyph glyph-name="afii10066.alt" horiz-adv-x="586" 
d="M293 83q117 0 117 170q0 81 -27.5 122t-89.5 41q-117 0 -117 -163q0 -170 117 -170zM293 -19q-129 0 -199 73.5t-70 200.5q0 159 108 224q-64 48 -64 123q0 67 52.5 112.5t145.5 45.5q28 0 80.5 -6.5t67.5 -6.5q25 0 40.5 5.5t18.5 11.5l3 5l78 -15q0 -6 -1 -15t-8.5 -33
t-20.5 -42t-39.5 -33t-62.5 -15q-23 0 -72.5 11t-71.5 11q-85 0 -85 -58q0 -50 74 -63q9 1 26 1q130 0 199.5 -69t69.5 -194t-72 -199.5t-197 -74.5z" />
    <glyph glyph-name="afii10069.alt" horiz-adv-x="611" 
d="M401 119v245q-4 7 -12 15.5t-33.5 21.5t-55.5 13q-65 0 -94.5 -35t-29.5 -114q0 -180 130 -180q28 0 52 8.5t34 16.5zM547 -26q0 -66 -24 -114.5t-66 -75.5t-92 -40t-109 -13t-104 6t-60 12l-15 6l-7 163l97 7l12 -85q37 -10 77 -10q73 0 109 39.5t36 123.5v24h-4
q-50 -36 -143 -36q-106 0 -168.5 78t-62.5 202q0 114 64 185.5t168 71.5q50 0 87 -13t48 -26l12 -13h7l13 34h125v-526z" />
    <glyph glyph-name="afii10085.alt" horiz-adv-x="617" 
d="M406 138v252l-52 6l7 104h193v-526q0 -66 -24 -114.5t-66 -75.5t-92.5 -40t-109.5 -13t-104 6t-60 12l-15 6l-7 163l96 7l13 -85q37 -10 76 -10q74 0 109.5 39.5t35.5 123.5v35q-44 -47 -151 -47q-187 0 -187 170v239l-52 6l7 104h193v-322q0 -42 21 -59.5t69 -17.5
q32 0 57 9.5t34 18.5z" />
    <glyph glyph-name="afii10110.alt" horiz-adv-x="617" 
d="M319 658q21 0 37.5 5.5t24.5 13t13 15.5t6 14l2 5v3l120 -18q-1 -5 -2.5 -14t-14 -32t-32 -40t-60.5 -31.5t-94 -14.5t-93 13.5t-60 33t-32 39t-14 32.5l-3 14l121 18v-3q0 -2 1 -5.5t6.5 -13t13.5 -16.5t24 -12.5t36 -5.5zM406 138v252l-52 6l7 104h193v-526
q0 -66 -24 -114.5t-66 -75.5t-92.5 -40t-109.5 -13t-104 6t-60 12l-15 6l-7 163l96 7l13 -85q37 -10 76 -10q74 0 109.5 39.5t35.5 123.5v35q-44 -47 -151 -47q-187 0 -187 170v239l-52 6l7 104h193v-322q0 -42 21 -59.5t69 -17.5q32 0 57 9.5t34 18.5z" />
    <glyph glyph-name="Epsilon.alt" horiz-adv-x="672" 
d="M548 257h-343q13 -82 60.5 -119t131.5 -37q55 0 105 20.5t73 40.5l23 20l57 -94q-4 -4 -11 -11.5t-33 -26t-54.5 -32.5t-75 -25.5t-95.5 -11.5q-168 0 -257.5 93t-89.5 250q0 152 90 247.5t232 95.5q73 0 141 -46l19 36h88v-211h-111l-9 73q-53 30 -111 30
q-161 0 -175 -182l345 1v-111z" />
    <glyph glyph-name="Epsilontonos.alt" horiz-adv-x="719" 
d="M595 257h-343q13 -82 60.5 -119t131.5 -37q55 0 105 20.5t73 40.5l23 20l57 -94q-4 -4 -11 -11.5t-33 -26t-54.5 -32.5t-75 -25.5t-95.5 -11.5q-168 0 -257.5 93t-89.5 250q0 152 90 247.5t232 95.5q73 0 141 -46l19 36h88v-211h-111l-9 73q-53 30 -111 30
q-161 0 -175 -182l345 1v-111zM69 562l-69 19l63 202l96 -30z" />
    <glyph glyph-name="epsilon.alt" horiz-adv-x="507" 
d="M469 347h-109l-6 43q-31 23 -70 23q-53 0 -78 -25.5t-30 -90.5l221 1v-110h-216q20 -100 128 -100q38 0 73 11t51 23l16 11l40 -76q-2 -3 -6.5 -8t-22.5 -18.5t-40 -23.5t-59.5 -18t-80.5 -8q-129 0 -192.5 73.5t-63.5 204.5q0 120 67.5 189.5t173.5 69.5q48 0 104 -34
l13 24h88z" />
    <glyph glyph-name="epsilontonos.alt" horiz-adv-x="507" 
d="M328 562l-69 19l63 202l96 -30zM469 347h-109l-6 43q-31 23 -70 23q-53 0 -78 -25.5t-30 -90.5l221 1v-110h-216q20 -100 128 -100q38 0 73 11t51 23l16 11l40 -76q-2 -3 -6.5 -8t-22.5 -18.5t-40 -23.5t-59.5 -18t-80.5 -8q-129 0 -192.5 73.5t-63.5 204.5
q0 120 67.5 189.5t173.5 69.5q48 0 104 -34l13 24h88z" />
    <glyph glyph-name="AndrijType" horiz-adv-x="1851" 
d="M1228 359q23 0 35.5 6t24.5 6t12 -5q0 -8 -22 -14q-15 -26 -33 -102q24 35 57 59t58 24v-4q0 -18 -11.5 -56t-36 -89t-75.5 -91.5t-118 -46.5q3 29 29.5 57.5t59.5 48.5l2 -4q-38 -30 -48 -81q35 11 63 37t44.5 59t26 63.5t13.5 61.5q-43 -26 -72 -81q-1 -4 -12.5 -6
t-22.5 -2h-11q12 102 41 146q-42 0 -69 5q-34 -95 -48 -171q-1 -4 -17.5 -7t-27.5 -3l-4 1q0 32 55 185q-9 1 -34.5 5.5t-38.5 4.5q-40 0 -55 -33h-5q-26 0 -28 16q15 36 67 36q15 0 99 -15q11 1 24.5 7.5t26.5 8.5l-9 -20q32 -6 60 -6zM1560 324q0 -24 -31 -72.5t-61 -48.5
q-7 0 -17.5 4.5t-15.5 4.5q48 31 79 110q-29 -11 -60.5 -42.5t-44.5 -71.5q-5 -16 -12 -56.5t-7 -58.5l-3 -5q-2 0 -12.5 -1t-16.5 -1q-16 0 -16 5q4 16 14.5 71t22.5 102t26 85q31 11 41 11q4 0 10 -2q-19 -32 -38 -94q21 28 54 53.5t64 25.5q24 0 24 -19zM1659 213
q0 -8 -27 -25.5t-47 -17.5q-30 0 -30 40q0 51 35 94t84 43q21 0 21 -19q0 -13 -9.5 -27.5t-22.5 -18.5q6 -1 18 -1q63 0 81 47q4 -2 14 -2h13q11 0 15 -4q-23 -54 -145 -54q-38 0 -58 4q-8 -13 -8 -43q0 -38 10 -38q11 0 31 13t21 13q4 0 4 -4zM1645 330q-6 0 -18 -13.5
t-18 -28.5l15 -2q26 19 26 38q0 6 -5 6zM967 260q6 10 42 10q7 0 7 -1q0 -2 -4.5 -7t-10 -10t-11.5 -10l-5 -5q-8 -8 -42 -8q-6 0 -6 1t5.5 5.5t13.5 11.5t11 13zM598 213q13 8 28.5 50.5t15.5 70.5q0 41 -34.5 76t-99.5 57q3 1 18 10t24 10q7 0 26 -8.5t42.5 -24.5
t41.5 -45.5t18 -65.5q0 -46 -34.5 -97.5t-72.5 -51.5q-21 0 -21 26q0 51 41 111q5 6 13 6q4 0 13 -2.5t14 -2.5q-35 -46 -35 -107q0 -4 2 -12zM990 451q7 0 7 -1q0 -2 -5.5 -3t-16 -5.5t-20.5 -14.5q-18 -18 -51 -18q-9 0 -9 1q39 41 95 41zM100 195q0 91 24.5 125.5
t95.5 34.5q34 0 72 -6q39 36 48 41q3 2 21.5 6t20.5 4l-4 -11q-56 -144 -58 -224q0 -4 -15 -8t-27 -4q-2 0 -4 1h-3q2 70 45 189q-33 -36 -84.5 -79.5t-86.5 -65.5q-2 -2 -18.5 -5t-23.5 -3q-2 0 -3 1v4zM819 385q8 0 17.5 -10t11.5 -18q-24 0 -54.5 -6.5t-39.5 -13.5
q-12 -9 -19 -33t-11 -55.5t-7 -40.5q-1 -4 -13 -5.5t-24 -1.5t-12 -1l3 12q0 1 0.5 2.5t0.5 2.5q28 98 61 122q56 37 86 46zM868 353q1 9 48 9q-18 -145 -86 -229q-28 -33 -73.5 -55.5t-79.5 -22.5q5 54 89 105l3 -3q-40 -32 -50 -81q35 17 61.5 43.5t40.5 51.5t24.5 62.5
t14.5 59.5t8 60zM541 356q11 0 11 -4t-9.5 -24t-19 -53.5t-9.5 -69.5q-2 -8 -34 -8q-11 0 -13 2q0 14 1 26.5t2 20t5 19t5.5 15t7 17t7.5 17.5q-16 0 -44 -35t-44 -71q-1 -4 -12.5 -6t-22.5 -2l-11 -1q24 117 46 154q4 6 32 6h8q2 0 4 1h2q-17 -26 -37 -108q23 33 37 50.5
t39 35.5t49 18zM276 332q-49 13 -75 13q-15 0 -20 -8q-24 -35 -27 -111q61 43 122 106zM828 323l3 -1q-5 -19 -10 -36.5t-7.5 -27.5t-4 -19.5t-3.5 -14t-3 -8t-3.5 -4.5t-5 -1.5l-7.5 -1.5q-5 0 -8 -1l-5 -1q-4 -1 -9 -1.5t-8 -0.5t-3 1q6 19 10.5 36.5t7 28t4 19.5
t3.5 13.5t3 8t3.5 5t4.5 2t8 1.5q5 0 8 1l4 1q4 0 9.5 0.5t8.5 0.5z" />
    <glyph glyph-name="ampersand.alt" horiz-adv-x="760" 
d="M379 99q-85 85 -135 196q-58 -21 -58 -83q0 -57 32 -89.5t95 -32.5q36 0 66 9zM712 284l-69 -3q-2 -102 -55 -178q27 -13 55 -13q16 0 34.5 4t29.5 8t12 5l18 -100q-78 -26 -119 -26q-63 0 -132 36q-72 -36 -170 -36q-132 0 -205 66t-73 161q0 74 50 121t119 68
q-12 48 -12 90q0 84 55 132t143 48q61 0 116 -41l16 31h81l-1 -175h-109l-4 48q-29 29 -67 29q-87 0 -87 -84q0 -67 41.5 -149t103.5 -146q27 48 27 113q0 47 -13 93v12h215v-114z" />
    <glyph glyph-name="afii10086.hist" horiz-adv-x="435" 
d="M458 591h-102l-7 55q-22 16 -44 16q-32 0 -45.5 -22.5t-13.5 -83.5v-56h150v-110h-150v-55h150v-111h-150v-122l56 -5l-7 -97h-244l-7 104l55 6v114h-56v104l56 4v58h-56v103l56 4v74q0 95 45.5 146t125.5 51q41 0 93 -33l15 23h81z" />
    <glyph glyph-name="afii10097.hist" horiz-adv-x="639" 
d="M284 86q80 0 130 50v244q-3 4 -10.5 10t-37 15.5t-68.5 9.5q-49 0 -77.5 -18t-28.5 -49q0 -41 41 -59h21l88 1v-78l-85 1q-85 0 -85 -59q0 -30 29.5 -49t82.5 -19zM609 0h-175l-15 41q-9 -9 -22.5 -19t-58 -25.5t-97.5 -15.5q-96 0 -155.5 45t-59.5 123q0 83 83 117
q-58 42 -58 108q0 67 59.5 106t146.5 39q97 0 166 -46l13 27h125v-398l55 -4z" />
    <glyph glyph-name="a.sc" horiz-adv-x="643" 
d="M313 433h-1l-69 -190h137zM233 0h-242l-6 102l76 4l166 444h192l164 -444l76 -4l-7 -102h-260v75l48 4l-29 79h-199l-27 -73l55 -5z" />
    <glyph glyph-name="b.sc" horiz-adv-x="581" 
d="M226 319h97q25 0 43.5 17t18.5 51q0 58 -85 58h-74v-126zM331 237h-105v-132h79q57 0 80 18t23 55q0 59 -77 59zM314 0h-278l-6 102l65 5v342l-66 5l7 96h270q113 0 164.5 -41t51.5 -103q0 -64 -66 -108q94 -38 94 -124q0 -77 -58.5 -125.5t-177.5 -48.5z" />
    <glyph glyph-name="c.sc" horiz-adv-x="585" 
d="M546 327h-113l-6 90q-39 32 -88 32q-74 0 -114.5 -41t-40.5 -125t43 -132.5t123 -48.5q29 0 58.5 7.5t50 18t37 21.5t24.5 19l8 7l55 -89q-3 -4 -9 -11t-28 -25.5t-48 -32t-71 -25t-95 -11.5q-144 0 -222.5 80t-78.5 215q0 131 80 211.5t204 80.5q64 0 126 -47l21 37h84
v-231z" />
    <glyph glyph-name="d.sc" horiz-adv-x="677" 
d="M330 434h-87v-318h89q85 0 123 40.5t38 126.5q0 83 -37.5 117t-125.5 34zM36 0l-6 102l65 5v342l-66 5l7 96h294q317 0 317 -267q0 -136 -79.5 -209.5t-236.5 -73.5h-295z" />
    <glyph glyph-name="e.sc" horiz-adv-x="552" 
d="M504 398h-113l-4 53h-144v-127l224 1v-95h-224v-132h158l12 62l106 -7l-8 -153h-475l-6 102l65 5v342l-66 5l7 96h343l126 6z" />
    <glyph glyph-name="f.sc" horiz-adv-x="515" 
d="M320 0h-284l-6 102l65 5v342l-66 5l7 96h352l125 6v-164h-113l-4 46h-153v-120l226 1v-101h-226v-118l83 -4z" />
    <glyph glyph-name="g.sc" horiz-adv-x="631" 
d="M539 355h-113l-6 79q-40 22 -79 22q-82 0 -119.5 -43t-37.5 -130q0 -89 42.5 -138.5t113.5 -49.5q93 0 112 62v49h-101v84h226v-292h-83l-16 47q-60 -64 -170 -64q-135 0 -206 81t-71 222q0 131 78.5 207.5t200.5 76.5q70 0 129 -41l17 31h83v-203z" />
    <glyph glyph-name="h.sc" horiz-adv-x="708" 
d="M300 0h-264l-6 102l65 5v342l-66 5l7 96h265v-96l-58 -5v-122h223v121l-65 6l7 96h266v-102l-61 -5v-336l67 -5l-6 -102h-266l-6 96l64 5v124h-223v-125l64 -4z" />
    <glyph glyph-name="i.sc" horiz-adv-x="337" 
d="M303 0h-267l-6 102l65 5v342l-66 5l7 96h267v-96l-60 -4v-350l66 -4z" />
    <glyph glyph-name="j.sc" horiz-adv-x="427" 
d="M400 448l-44 -5v-265q0 -107 -45.5 -152t-145.5 -45q-43 0 -79.5 6.5t-51.5 12.5l-15 7l-14 156l100 6l11 -75q13 -3 32 -3q30 0 45 19.5t15 67.5v271l-82 5l7 96h267v-102z" />
    <glyph glyph-name="k.sc" horiz-adv-x="675" 
d="M301 0h-265l-6 102l65 5v342l-66 5l7 96h252v-89l-45 -6v-149l59 37l97 117l-10 1v89h260v-102l-117 -5l-117 -138l149 -200l111 -3l-6 -102h-203l-47 45l-119 172l-57 -29v-101l58 -4v-83z" />
    <glyph glyph-name="l.sc" horiz-adv-x="505" 
d="M36 0l-6 102l65 5v342l-66 5l7 96h267v-102l-60 -5v-332h145l10 63l107 -8l-8 -166h-461z" />
    <glyph glyph-name="m.sc" horiz-adv-x="926" 
d="M275 0h-239l-6 102l65 5l1 342l-65 5l6 96h249l179 -392h5l173 392h248v-102l-62 -5l1 -343l68 -4l-7 -96h-248l-7 82l53 6v257h-5l-158 -345h-136l-158 345h-4l-2 -258l55 -7z" />
    <glyph glyph-name="n.sc" horiz-adv-x="719" 
d="M638 -2l-148 -1l-265 338h-3l4 -30v-205l69 -8l-6 -92h-253l-6 102l65 5v342l-66 5l7 96h211l260 -347h2l-3 31v210l-68 7l6 99h254v-96l-60 -4v-452z" />
    <glyph glyph-name="o.sc" horiz-adv-x="671" 
d="M487 285q0 81 -39 123t-113 42q-151 0 -151 -165q0 -86 38 -135t113 -49q74 0 113 49t39 135zM640 285q0 -137 -80.5 -220.5t-224.5 -83.5q-145 0 -224.5 83.5t-79.5 220.5q0 134 78.5 208.5t225.5 74.5q146 0 225.5 -75t79.5 -208z" />
    <glyph glyph-name="p.sc" horiz-adv-x="554" 
d="M276 444h-44v-180h44q107 0 107 97q0 47 -28 65t-79 18zM309 0h-273l-6 102l65 5v342l-66 5l7 96h264q235 0 235 -180q0 -52 -21 -91t-55.5 -60.5t-74 -32t-82.5 -10.5h-70v-89l83 -4z" />
    <glyph glyph-name="q.sc" horiz-adv-x="671" 
d="M335 100q74 0 113 49.5t39 135.5q0 81 -39 123t-113 42q-151 0 -151 -165q0 -86 38 -135.5t113 -49.5zM590 -49l13 -117q-37 -14 -76 -14q-73 0 -140 42.5t-104 121.5q-121 15 -186.5 96t-65.5 205q0 134 78.5 208.5t225.5 74.5q146 0 225.5 -75t79.5 -208
q0 -116 -58 -194.5t-165 -100.5q53 -50 116 -50q26 0 57 11z" />
    <glyph glyph-name="r.sc" horiz-adv-x="592" 
d="M277 444h-45v-162h71q31 0 56 22.5t25 65.5q0 39 -26 56.5t-81 17.5zM278 0h-242l-6 102l65 5v342l-66 5l7 96h264q113 0 174.5 -44t61.5 -128q0 -97 -100 -156l71 -117l94 -3l-6 -102h-178l-39 44l-78 142h-68v-105l52 -5z" />
    <glyph glyph-name="s.sc" horiz-adv-x="510" 
d="M459 393h-112l-5 41q-34 27 -70 27q-72 0 -72 -55q0 -25 29.5 -42.5t71.5 -31t84 -30.5t71.5 -51.5t29.5 -83.5q0 -90 -60 -138t-169 -48q-56 0 -106.5 8.5t-72.5 16.5l-23 9l-4 156l84 6l15 -71q51 -15 96 -15q46 0 70 15.5t24 40.5q0 21 -29.5 36.5t-71 28.5t-83.5 31
t-71.5 55.5t-29.5 90.5q0 80 52.5 129.5t143.5 49.5q50 0 104 -35l14 24h90v-164z" />
    <glyph glyph-name="t.sc" horiz-adv-x="523" 
d="M102 378h-113l7 178l125 -6h288l125 6v-178h-112l-5 60h-81v-331l66 -5l-7 -102h-266l-6 102l65 5v331h-80z" />
    <glyph glyph-name="u.sc" horiz-adv-x="661" 
d="M278 454l-58 -4v-207q0 -138 115 -138q118 0 118 138v200l-69 7l6 100h259v-96l-59 -6v-236q0 -102 -62.5 -166.5t-196.5 -64.5q-133 0 -196 65t-63 166v237l-65 5l6 96h265v-96z" />
    <glyph glyph-name="v.sc" horiz-adv-x="616" 
d="M249 454l-45 -4l114 -337h2l111 331l-52 6v100h253v-102l-65 -5l-161 -443h-190l-160 442l-70 5l7 103h256v-96z" />
    <glyph glyph-name="w.sc" horiz-adv-x="925" 
d="M249 454l-44 -4l82 -282h2l110 382h152l117 -379h2l73 272l-56 7l6 100h247v-102l-60 -4l-138 -444h-154l-118 366h-4l-114 -366h-153l-139 435l-72 5l7 110h254v-96z" />
    <glyph glyph-name="x.sc" horiz-adv-x="641" 
d="M269 461l-6 -1l61 -84h1l59 80l-8 1v93h260v-102l-105 -4l-123 -166l130 -172l113 -4l-6 -102h-274v89h5l-61 84h-1l-54 -73h6v-100h-268l-7 102l113 5l127 165l-131 178l-105 4l6 96h268v-89z" />
    <glyph glyph-name="y.sc" horiz-adv-x="587" 
d="M241 454l-10 -1l76 -125h2l71 121l-11 1v100h245v-100l-93 -5l-147 -236v-102l67 -5l-7 -102h-267l-6 102l64 5v99l-155 244l-99 4l6 96h264v-96z" />
    <glyph glyph-name="z.sc" horiz-adv-x="569" 
d="M523 452l-290 -341h187l10 61l106 -6l-7 -166h-490v98l291 340h-164l-6 -53h-112l6 165v6l125 -6h344v-98z" />
    <glyph glyph-name="agrave.sc" horiz-adv-x="643" 
d="M313 433h-1l-69 -190h137zM233 0h-242l-6 102l76 4l166 444h192l164 -444l76 -4l-7 -102h-260v75l48 4l-29 79h-199l-27 -73l55 -5zM391 641l-98 -9l-139 139l138 17z" />
    <glyph glyph-name="aacute.sc" horiz-adv-x="643" 
d="M313 433h-1l-69 -190h137zM233 0h-242l-6 102l76 4l166 444h192l164 -444l76 -4l-7 -102h-260v75l48 4l-29 79h-199l-27 -73l55 -5zM351 632l-98 7l95 148l140 -16z" />
    <glyph glyph-name="acircumflex.sc" horiz-adv-x="643" 
d="M313 433h-1l-69 -190h137zM233 0h-242l-6 102l76 4l166 444h192l164 -444l76 -4l-7 -102h-260v75l48 4l-29 79h-199l-27 -73l55 -5zM447 643l-125 80l-124 -80l-45 82l131 92h78l130 -92z" />
    <glyph glyph-name="atilde.sc" horiz-adv-x="643" 
d="M313 433h-1l-69 -190h137zM233 0h-242l-6 102l76 4l166 444h192l164 -444l76 -4l-7 -102h-260v75l48 4l-29 79h-199l-27 -73l55 -5zM497 770l18 -72q0 -2 -1.5 -5.5t-8 -12.5t-16 -16t-29.5 -12.5t-45 -5.5q-39 0 -96 25t-88 25q-20 0 -40.5 -8t-30.5 -16l-11 -7l-18 80
l3 6t10.5 14.5t19.5 18t32.5 14t46.5 6.5q45 0 101.5 -26t83.5 -26q20 0 37 4.5t25 9.5z" />
    <glyph glyph-name="adieresis.sc" horiz-adv-x="643" 
d="M313 433h-1l-69 -190h137zM233 0h-242l-6 102l76 4l166 444h192l164 -444l76 -4l-7 -102h-260v75l48 4l-29 79h-199l-27 -73l55 -5zM287 696q0 -26 -17.5 -48t-56.5 -22t-56.5 22.5t-17.5 47.5q0 29 20.5 49t53.5 20t53.5 -19t20.5 -50zM500 696q0 -26 -17.5 -48
t-56.5 -22t-56.5 22.5t-17.5 47.5q0 29 20.5 49t53.5 20t53.5 -19t20.5 -50z" />
    </font>
</defs>
</svg>
